<svg width="49" height="49" viewBox="0 0 49 49" fill="none" xmlns="http://www.w3.org/2000/svg">
<g clip-path="url(#clip0_8756_16000)">
<path d="M24.5 49C38.031 49 49 38.031 49 24.5C49 10.969 38.031 0 24.5 0C10.969 0 0 10.969 0 24.5C0 38.031 10.969 49 24.5 49Z" fill="black"/>
<path d="M24.4999 46.9946C36.9233 46.9946 46.9945 36.9234 46.9945 24.5C46.9945 12.0766 36.9233 2.00549 24.4999 2.00549C12.0765 2.00549 2.00537 12.0766 2.00537 24.5C2.00537 36.9234 12.0765 46.9946 24.4999 46.9946Z" fill="#FEDE58"/>
<path d="M21.7259 44.4544C13.6372 43.0505 8.75726 36.7668 7.55398 28.8786V28.3439L5.88277 28.277L5.81592 27.0737H37.9701C38.3712 27.9428 38.6386 28.8786 38.8391 29.8145C39.7081 36.0983 36.2989 39.5744 31.2184 42.7163C28.2102 44.2538 25.0015 44.6549 21.7259 44.4544Z" fill="black"/>
<path d="M24.8677 43.251C28.3439 42.8499 31.4189 41.3792 34.0928 39.1064C35.9646 37.4352 37.1679 35.3629 37.5021 33.2906C37.7695 31.9536 37.569 29.4802 37.1679 28.6112L8.89094 28.5443C8.75724 32.2878 11.498 36.4324 13.8377 39.0395C15.91 41.3124 18.6508 42.6494 21.5922 43.251C22.3275 43.3847 24.1324 43.3847 24.8677 43.251Z" fill="#871945"/>
<path d="M5.08043 22.8622C4.2114 21.1242 4.2114 19.0519 4.47879 17.1801C4.87988 15.3752 5.68206 13.704 6.81849 12.6344C8.22231 11.2974 10.1609 11.0969 11.9658 11.4311C12.9686 11.6985 13.8376 12.2333 14.5729 12.9686C15.7762 14.1051 16.5784 15.6426 16.9795 17.4475C17.2469 18.7845 17.2469 20.1883 16.9795 21.4584L16.5784 22.8622H5.08043Z" fill="black"/>
<path d="M15.6425 21.592C15.9767 21.1909 16.0436 18.9181 15.7762 17.7148C15.5756 16.6452 15.5088 16.6452 15.1077 17.0463C14.1718 17.9822 12.5675 17.9822 11.6316 17.0463C10.6289 15.8431 10.8294 14.3055 12.0327 13.3697C12.2332 13.1691 12.3669 13.0354 12.3669 12.9686C12.3001 12.7012 10.8962 12.4338 10.0941 12.5006C7.28642 12.768 6.24359 15.1746 5.66869 17.648C5.46814 18.7844 5.60184 21.1909 5.93608 21.592H15.6425Z" fill="white"/>
<path d="M25.2688 22.929C25.1351 22.7285 24.8677 21.5921 24.8009 20.9904C24.4666 19.1187 24.734 17.1801 25.5362 15.442C26.539 13.4365 28.277 11.9659 30.3493 11.4311C32.2879 10.9631 34.1597 11.4311 35.8309 12.4338C37.569 13.5702 38.8391 15.7094 39.1733 17.9154C39.307 18.7176 39.307 20.1214 39.1733 20.9236C39.1065 21.5921 38.8391 22.6616 38.6385 22.929H25.2688Z" fill="black"/>
<path d="M37.7696 21.659C38.037 21.3247 38.1038 19.3861 38.037 18.3165C37.9033 17.3806 37.6359 16.7122 37.5022 16.7122C37.4353 16.7122 37.3016 16.8459 37.1011 17.0464C35.9646 18.1828 33.9592 17.9154 33.2239 16.4448C32.7559 15.3752 32.9565 14.3725 33.7586 13.5703C34.026 13.3029 34.2266 13.0355 34.2266 12.9686C34.2266 12.9686 33.9592 12.8349 33.6918 12.7681C30.2825 11.6317 26.6727 14.1051 26.0042 18.116C25.8037 19.1187 26.0042 20.9905 26.2048 21.659H37.7696Z" fill="white"/>
<path d="M33.6916 39.4406C33.6916 39.4406 30.6166 42.1145 26.6725 42.9836C22.2605 43.9863 19.0518 42.5156 19.0518 42.5156C19.0518 42.5156 19.9876 37.4351 25.2687 36.165C30.3492 34.9617 33.6916 39.4406 33.6916 39.4406Z" fill="#F9BEDD"/>
</g>
<defs>
<clipPath id="clip0_8756_16000">
<rect width="49" height="49" fill="white"/>
</clipPath>
</defs>
</svg>
