<svg width="96" height="50" viewBox="0 0 96 50" fill="none" xmlns="http://www.w3.org/2000/svg">
<g id="sqlite-ar21 1" filter="url(#filter0_d_8756_16387)">
<path id="Vector" d="M40.0817 21.9957C39.0118 21.9957 38.1434 22.3136 37.4766 22.9455C36.8099 23.5773 36.4687 24.4108 36.4687 25.4265C36.4687 25.9537 36.554 26.4344 36.7168 26.8763C36.8797 27.3182 37.1433 27.7292 37.4844 28.0974C37.8255 28.4657 38.5233 28.9697 39.5584 29.6481C40.826 30.4234 41.6517 31.0514 42.0549 31.5398C42.4293 31.9663 42.6408 32.5115 42.6519 33.0788C42.6519 33.796 42.4193 34.3659 41.9308 34.7962C41.4424 35.2265 40.795 35.4397 39.9925 35.4397C39.1397 35.4397 38.4419 35.1412 37.7674 34.5481C37.0929 33.955 36.8099 33.1641 36.7982 32.1756H36.4028V35.7576H36.7982C36.9145 35.4164 37.0851 35.2459 37.3022 35.2459C37.4069 35.2459 37.6511 35.3234 38.0775 35.4552C39.0079 35.7886 39.7755 35.9475 40.3802 35.9475C41.4191 35.9475 42.303 35.5831 43.0434 34.8466C43.4002 34.501 43.6826 34.0862 43.8733 33.6276C44.064 33.1689 44.1588 32.6761 44.1521 32.1795C44.1521 31.3731 43.9079 30.656 43.4233 30.0319C42.9387 29.4077 42.0045 28.675 40.6012 27.8416C39.3994 27.1167 38.6125 26.5235 38.252 26.0661C37.8991 25.6367 37.7059 25.0984 37.7054 24.5426C37.6953 24.2664 37.7497 23.9917 37.864 23.74C37.9784 23.4884 38.1497 23.2668 38.3644 23.0928C38.8024 22.7322 39.3723 22.5501 40.0895 22.5501C40.8958 22.5501 41.5626 22.7904 42.0975 23.2711C42.6503 23.7988 42.9827 24.5163 43.0279 25.2792H43.4233V22.1779H43.055C43.0085 22.333 42.9698 22.4376 42.931 22.488C42.8922 22.5384 42.8225 22.5578 42.7178 22.5578C42.5899 22.5578 42.3611 22.5035 42.0394 22.4027C41.3416 22.1701 40.7058 22.0538 40.1205 22.0538L40.0817 21.9957ZM52.9907 21.9957C51.6882 21.9957 50.5097 22.3058 49.4359 22.9183C48.3739 23.5239 47.4952 24.4052 46.8929 25.4691C46.2777 26.5202 45.9551 27.7169 45.9586 28.9348C45.9449 30.5535 46.5241 32.1213 47.5868 33.3425C48.6722 34.6295 49.9825 35.4358 51.4944 35.7459C51.8433 35.9281 52.3356 36.3933 52.983 37.1415C53.7195 37.9944 54.332 38.6069 54.8437 38.9713C55.3409 39.3293 55.8936 39.603 56.4796 39.7815C57.0911 39.9622 57.7261 40.051 58.3637 40.0451C59.1855 40.0451 59.9143 39.9016 60.5733 39.607L60.426 39.2465C60.05 39.3822 59.6507 39.4481 59.2243 39.4481C58.6505 39.4481 58.0729 39.2542 57.4914 38.8782C56.91 38.5022 56.185 37.7734 55.3205 36.7073L54.4755 35.7459C56.1346 35.4242 57.4992 34.6217 58.5575 33.3347C59.5988 32.1079 60.1642 30.5477 60.1508 28.9387C60.1685 28.0181 59.993 27.104 59.6358 26.2554C59.2786 25.4067 58.7475 24.6423 58.0768 24.0115C56.6967 22.6741 55.0027 21.9957 52.9907 21.9957ZM61.054 21.9957L61.0734 22.4221C61.9418 22.4221 62.4302 22.678 62.5349 23.1897C62.5736 23.3719 62.593 23.713 62.5969 24.1976L62.5891 33.5479C62.5814 34.2457 62.4806 34.6915 62.2906 34.8853C62.1007 35.0792 61.7751 35.1955 61.306 35.2459L61.2866 35.6723H69.9314L70.1524 33.5518H69.7569C69.6406 34.1333 69.3848 34.5442 68.9739 34.7768C68.563 35.0094 67.8303 35.1257 66.7758 35.1257H65.9618C65.012 35.1257 64.4654 34.7845 64.3181 34.0945C64.2888 33.949 64.2745 33.801 64.2755 33.6526L64.3142 24.1937C64.3142 23.4959 64.4034 23.0307 64.5856 22.7982C64.7678 22.5656 65.1012 22.4415 65.5819 22.4105L65.5625 21.9841L61.054 21.9957ZM53.1303 22.5074C53.8257 22.4923 54.5146 22.643 55.1402 22.947C55.7658 23.251 56.31 23.6997 56.7277 24.2557C57.6581 25.4187 58.1156 27.0236 58.1156 29.0511C58.1156 30.9739 57.6504 32.509 56.72 33.6642C56.2796 34.2253 55.7131 34.6747 55.0665 34.9758C54.4199 35.2768 53.7114 35.4212 52.9985 35.397C52.2966 35.4134 51.6013 35.2594 50.972 34.9482C50.3428 34.6369 49.7984 34.1777 49.3855 33.6099C48.4629 32.416 48.0054 30.8653 48.0054 28.958C48.0054 27.0004 48.4706 25.4691 49.401 24.2596C50.3314 23.0501 51.5719 22.5074 53.138 22.5074H53.1303ZM73.0171 24.5232C72.8078 24.5232 72.645 24.593 72.5248 24.7364C72.4642 24.8084 72.422 24.8939 72.4018 24.9857C72.3815 25.0776 72.3838 25.1729 72.4085 25.2637C72.456 25.4764 72.5768 25.6658 72.7497 25.7986C72.9319 25.9537 73.1296 26.0312 73.3389 26.0312C73.5482 26.0312 73.6994 25.9537 73.8118 25.7986C73.9243 25.6436 73.9592 25.4691 73.9165 25.2637C73.8739 25.0582 73.7614 24.876 73.5909 24.7364C73.4203 24.5969 73.2226 24.5232 73.0171 24.5232ZM78.7157 25.9576C78.3591 27.3376 77.5799 28.0819 76.3898 28.206L76.4053 28.6014H77.8008L77.7815 33.261L77.859 34.8621C77.9947 35.5095 78.4211 35.839 79.1266 35.839C80.1501 35.839 81.22 35.2187 82.3442 33.9666L82.0031 33.6758C81.189 34.4977 80.4757 34.9086 79.8477 34.9086C79.46 34.9086 79.2274 34.6876 79.1344 34.2496C79.1086 34.126 79.0969 33.9998 79.0995 33.8735L79.115 28.5859H81.2471L81.2277 27.954H79.1266V25.9459L78.7157 25.9576ZM86.9418 27.7175C85.7517 27.7175 84.7826 28.299 84.0344 29.4426C83.2862 30.5862 83.0536 31.8655 83.3482 33.2688C83.4711 34.0047 83.8401 34.6772 84.3949 35.1761C84.9221 35.6258 85.5966 35.8467 86.3913 35.8467C87.1357 35.8467 88.1746 35.6529 88.6088 35.2769C89.0429 34.9008 89.45 34.2806 89.8221 33.4394L89.5236 33.1292C88.9305 34.2224 87.7327 34.7729 86.8255 34.7729C85.585 34.7729 84.8213 34.0906 84.4996 32.7338C84.462 32.5507 84.4348 32.3656 84.4182 32.1795C85.8913 31.9469 87.0155 31.5321 87.7714 30.9312C88.5273 30.3303 89.2833 29.6907 89.1437 29.0239C89.0673 28.6422 88.85 28.3031 88.5351 28.0742C88.2133 27.8416 87.3721 27.7137 86.9069 27.7137L86.9418 27.7175ZM73.932 27.7679L71.3657 28.3572V28.8146L72.2573 28.6983C72.6838 28.6983 72.9396 28.8921 73.021 29.2798C73.0533 29.4576 73.0702 29.6379 73.0714 29.8186L73.0443 34.0131C73.0365 34.5946 72.9745 34.9319 72.8427 35.0326C72.7109 35.1334 72.3659 35.1877 71.8115 35.1877L71.796 35.5831H75.8664L75.8587 35.1877C75.2927 35.1877 74.9283 35.1489 74.7655 35.0559C74.6027 34.9629 74.4941 34.8117 74.4476 34.5713C74.4088 34.3969 74.3933 34.0984 74.3933 33.6797L74.4088 27.7602H73.9436L73.932 27.7679ZM86.2906 28.5432C86.5387 28.5432 86.779 28.6402 87.0194 28.8262C87.2597 29.0123 87.407 29.2216 87.4458 29.4465C87.6784 30.5629 86.6898 31.3305 84.4608 31.7608C84.3988 30.9855 84.5383 30.2102 84.8989 29.5434C85.2594 28.8766 85.7207 28.5355 86.2867 28.5355L86.2906 28.5432Z" fill="#003B57"/>
<path id="Vector_2" d="M32.7509 7.57483H10.6777C9.1968 7.57483 7.9873 8.78432 7.9873 10.2652V34.6101C7.9873 36.091 9.1968 37.3005 10.6777 37.3005H25.2148C25.0481 30.0668 27.5214 16.0297 32.7509 7.58258V7.57483Z" fill="#0F80CC"/>
<path id="Vector_3" d="M31.9486 8.35788H10.6778C10.4277 8.35737 10.18 8.40625 9.94881 8.50173C9.71765 8.5972 9.50762 8.73739 9.33077 8.91423C9.15392 9.09108 9.01374 9.30112 8.91827 9.53228C8.82279 9.76344 8.77391 10.0112 8.77442 10.2613V32.823C13.593 30.9739 20.819 29.3806 25.8197 29.4504C26.8277 24.1976 29.7739 13.944 31.9447 8.354L31.9486 8.35788Z" fill="url(#paint0_linear_8756_16387)"/>
<path id="Vector_4" d="M37.899 6.77627C36.3484 5.42722 34.5574 5.96994 32.7509 7.57097L31.9484 8.35404C28.8588 11.6375 25.9901 17.7082 25.0985 22.3446C25.4862 23.0502 25.7188 23.9457 25.8971 24.6706L26.0134 25.1513L26.1297 25.694C26.1297 25.694 26.1026 25.5893 25.9901 25.2598L25.9126 25.0466C25.8981 25.0074 25.8826 24.9687 25.8661 24.9303C25.6645 24.4651 25.1063 23.4727 24.8582 23.0424C24.6637 23.6126 24.4802 24.1864 24.3077 24.7636C25.0171 26.0584 25.4474 28.2797 25.4474 28.2797C25.4474 28.2797 25.4087 28.1362 25.2303 27.6323C25.0753 27.1865 24.2844 25.8103 24.0984 25.4847C23.7805 26.6631 23.6526 27.4617 23.7689 27.6555C23.9898 28.0316 24.203 28.679 24.3891 29.3922C24.6793 30.5724 24.916 31.765 25.0985 32.9665L25.1257 33.296C25.0741 34.6288 25.1039 35.9635 25.2148 37.2927C25.3544 38.9713 25.6141 40.4134 25.9514 41.1887L26.1762 41.0646C25.6878 39.545 25.4862 37.5486 25.5753 35.2498C25.7072 31.7337 26.5174 27.4966 28.0098 23.0773C30.5296 16.4096 34.0379 11.0599 37.2439 8.50135C34.3209 11.1374 30.3668 19.6814 29.1806 22.8447C27.8548 26.3879 26.9166 29.7063 26.3507 32.8967C27.3276 29.9117 30.487 28.6324 30.487 28.6324C30.487 28.6324 32.0376 26.7213 33.8441 23.9922L30.3823 24.9148L29.2659 25.411C29.2659 25.411 32.1151 23.6743 34.5613 22.8912C37.9223 17.5958 41.5856 10.0714 37.8951 6.78402" fill="#003B57"/>
</g>
<defs>
<filter id="filter0_d_8756_16387" x="-3.5293" y="0" width="103.294" height="55.647" filterUnits="userSpaceOnUse" color-interpolation-filters="sRGB">
<feFlood flood-opacity="0" result="BackgroundImageFix"/>
<feColorMatrix in="SourceAlpha" type="matrix" values="0 0 0 0 0 0 0 0 0 0 0 0 0 0 0 0 0 0 127 0" result="hardAlpha"/>
<feOffset dy="4"/>
<feGaussianBlur stdDeviation="2"/>
<feComposite in2="hardAlpha" operator="out"/>
<feColorMatrix type="matrix" values="0 0 0 0 0 0 0 0 0 0 0 0 0 0 0 0 0 0 0.25 0"/>
<feBlend mode="normal" in2="BackgroundImageFix" result="effect1_dropShadow_8756_16387"/>
<feBlend mode="normal" in="SourceGraphic" in2="effect1_dropShadow_8756_16387" result="shape"/>
</filter>
<linearGradient id="paint0_linear_8756_16387" x1="22.137" y1="8.86184" x2="22.137" y2="31.4662" gradientUnits="userSpaceOnUse">
<stop stop-color="#97D9F6"/>
<stop offset="0.92024" stop-color="#0F80CC"/>
<stop offset="1" stop-color="#0F80CC"/>
</linearGradient>
</defs>
</svg>
