<svg width="96" height="48" viewBox="0 0 96 48" fill="none" xmlns="http://www.w3.org/2000/svg">
<g id="djangoproject-ar21 1" filter="url(#filter0_d_8756_16374)">
<path id="Vector" d="M14.4025 8.51691H19.1942V30.6966C16.7364 31.1636 14.9314 31.3502 12.9707 31.3502C7.12046 31.3502 4.07104 28.7058 4.07104 23.6337C4.07104 18.7483 7.30707 15.575 12.3164 15.575C13.0946 15.575 13.6854 15.637 14.4009 15.8236L14.4025 8.51691ZM14.4025 19.6822C13.8427 19.4956 13.3757 19.4336 12.7849 19.4336C10.3581 19.4336 8.95725 20.9266 8.95725 23.5408C8.95725 26.0923 10.2953 27.4923 12.7531 27.4923C13.3052 27.4913 13.8565 27.4499 14.4025 27.3685V19.6822ZM26.8178 15.9181V27.0262C26.8178 30.8538 26.5374 32.6883 25.706 34.2765C24.9278 35.8012 23.901 36.7661 21.7854 37.8238L17.336 35.7075C19.4523 34.7117 20.4783 33.8413 21.1319 32.5024C21.8164 31.1334 22.0348 29.5467 22.0348 25.3768V15.9268L26.8178 15.9181ZM22.026 8.5447H26.8178V13.4682H22.026V8.5447ZM29.7115 17.0068C31.8278 16.011 33.8409 15.5758 36.0597 15.5758C38.5175 15.5758 40.1359 16.2294 40.8514 17.5055C41.2485 18.2202 41.3803 19.1549 41.3803 21.1466V30.8912C39.233 31.2025 36.5258 31.4201 34.535 31.4201C30.5215 31.4201 28.7165 30.0192 28.7165 26.9079C28.7165 23.5472 31.1123 21.9843 36.9936 21.4936V20.4358C36.9936 19.5647 36.5568 19.2446 35.3442 19.2446C33.5709 19.2446 31.5801 19.7426 29.7123 20.7074V17.0044L29.7115 17.0068ZM37.2104 24.6303C34.0363 24.9416 33.0015 25.4403 33.0015 26.6839C33.0015 27.617 33.5932 28.053 34.9074 28.053C35.6221 28.053 36.2765 27.9911 37.2104 27.8354V24.6303ZM43.7221 16.6653C46.5532 15.9189 48.8871 15.5774 51.252 15.5774C53.7097 15.5774 55.4846 16.1373 56.5424 17.2268C57.5382 18.2536 57.8487 19.3733 57.8487 21.7691V31.1659H53.057V21.9542C53.057 20.1182 52.4344 19.4336 50.7223 19.4336C50.0687 19.4336 49.4779 19.4956 48.513 19.7751V31.1628H43.7134L43.7221 16.6653ZM59.7038 33.7786C61.3841 34.6497 63.0645 35.0539 64.8377 35.0539C67.98 35.0539 69.3181 33.7786 69.3181 30.7292V30.6355C68.385 31.1016 67.452 31.289 66.2068 31.289C61.998 31.289 59.3297 28.5199 59.3297 24.1324C59.3297 18.6864 63.282 15.6068 70.2822 15.6068C72.3358 15.6068 74.2345 15.8244 76.5367 16.2913L74.896 19.7481C73.6199 19.4996 74.7928 19.7148 73.8295 19.6211V20.119L73.8915 22.1408L73.9232 24.755C73.955 25.4086 73.955 26.0621 73.9868 26.7149V28.022C73.9868 32.1292 73.6453 34.0573 72.6177 35.6456C71.1248 37.9803 68.5415 39.1397 64.8695 39.1397C63.0033 39.1397 61.3849 38.8594 59.7045 38.2058V33.7873L59.7038 33.7786ZM69.2332 19.4654H68.7353C67.8022 19.4336 66.7134 19.683 65.9662 20.1499C64.8147 20.8035 64.2239 21.9859 64.2239 23.6663C64.2239 26.0621 65.415 27.4304 67.5226 27.4304C68.1762 27.4304 68.7138 27.3057 69.3269 27.1191V25.4697C69.3269 24.9099 69.2951 24.2786 69.2951 23.6337L69.2633 21.4245L69.2316 19.8378V19.4646L69.2332 19.4654ZM83.9752 15.5139C88.7669 15.5139 91.6916 18.5315 91.6916 23.4177C91.6916 28.4207 88.6422 31.5701 83.7878 31.5701C78.996 31.5701 76.0396 28.5525 76.0396 23.6981C76.0396 18.657 79.089 15.5147 83.9744 15.5147L83.9752 15.5139ZM83.8815 27.7115C85.7175 27.7115 86.807 26.1868 86.807 23.5424C86.807 20.9218 85.7492 19.3733 83.9132 19.3733C82.0073 19.3733 80.9258 20.898 80.9258 23.5424C80.9258 26.1868 82.0153 27.7115 83.8815 27.7115Z" fill="#092E20"/>
</g>
<defs>
<filter id="filter0_d_8756_16374" x="-3.76465" y="0" width="103.294" height="55.647" filterUnits="userSpaceOnUse" color-interpolation-filters="sRGB">
<feFlood flood-opacity="0" result="BackgroundImageFix"/>
<feColorMatrix in="SourceAlpha" type="matrix" values="0 0 0 0 0 0 0 0 0 0 0 0 0 0 0 0 0 0 127 0" result="hardAlpha"/>
<feOffset dy="4"/>
<feGaussianBlur stdDeviation="2"/>
<feComposite in2="hardAlpha" operator="out"/>
<feColorMatrix type="matrix" values="0 0 0 0 0 0 0 0 0 0 0 0 0 0 0 0 0 0 0.25 0"/>
<feBlend mode="normal" in2="BackgroundImageFix" result="effect1_dropShadow_8756_16374"/>
<feBlend mode="normal" in="SourceGraphic" in2="effect1_dropShadow_8756_16374" result="shape"/>
</filter>
</defs>
</svg>
