<svg width="50" height="24" viewBox="0 0 50 24" fill="none" xmlns="http://www.w3.org/2000/svg">
<g clip-path="url(#clip0_8756_16016)">
<path d="M31.2631 4.46998C31.0465 4.77436 30.8299 5.07874 30.6134 5.38312C30.5662 5.37646 30.519 5.36979 30.4717 5.36313C30.4182 4.71374 29.9028 4.16997 30.1825 3.43218C30.3186 3.07332 30.4771 3.05134 30.8018 3.13875C32.4281 3.57653 34.0597 3.9949 35.6915 4.4123C35.8174 4.4445 35.9587 4.41653 36.0708 4.36184C34.2768 3.88765 32.4829 3.41345 30.6776 2.93626C31.2514 2.01459 31.4666 1.96386 32.7683 2.35389C33.5993 2.60286 34.4356 2.83456 35.2738 3.05827C35.3998 3.0919 35.5488 3.03946 35.6678 2.95012C34.342 2.60602 33.0161 2.26192 31.6589 1.90967C32.7288 0.650919 33.8931 1.46825 35.0127 1.66779C35.0211 1.61772 35.0295 1.56766 35.038 1.51759C34.4332 1.35764 33.8284 1.19769 33.1842 1.0273C33.8207 0.36381 34.5903 1.23018 35.3682 0.781319C34.9195 0.7573 34.6294 0.741773 34.3394 0.726247C34.3371 0.68108 34.3348 0.635913 34.3325 0.590746C34.6466 0.454678 34.9608 0.31861 35.2423 0.146325C35.2588 0.110107 35.3079 0.110107 35.3582 0.149186C35.4019 0.811642 36.1474 0.916334 36.2632 1.53605C36.4348 1.35566 36.5491 1.23548 36.6896 1.0878C36.151 1.05717 35.6724 0.518921 35.7617 0.110107C36.8309 0.110107 37.9002 0.110107 39.021 0.159019C39.1154 0.25396 39.1584 0.299988 39.2014 0.346017C39.2321 0.267381 39.2629 0.188744 39.2937 0.110108C39.447 0.110107 39.6003 0.110107 39.7642 0.149059C39.7969 0.306915 39.8189 0.425818 39.8318 0.495187C40.0444 0.440686 40.2441 0.389517 40.4437 0.338347C40.4637 0.478481 40.4837 0.618615 40.5068 0.780034C40.8112 0.560263 41.0513 0.321908 41.4425 0.73791C41.6311 0.938446 42.138 0.802099 42.4585 0.926507C43.1006 1.17572 43.7148 1.49703 44.3376 1.79467C44.4367 1.84203 44.5206 1.92111 44.6115 1.98553C44.5993 2.01686 44.5871 2.0482 44.5749 2.07954C44.246 2.01755 43.917 1.95557 43.5881 1.89358C44.3662 2.33132 45.3189 2.25304 45.9015 3.04239C45.3723 2.96986 44.8647 2.83727 44.3615 2.68963C43.8549 2.54099 43.8568 2.53444 43.695 2.77141C44.3231 2.91979 45.0001 3.07848 45.6761 3.24173C45.7321 3.25526 45.8095 3.33815 45.8284 3.32404C46.3148 2.9612 46.4621 3.41196 46.5631 3.68862C46.7816 4.28683 46.9189 4.91458 47.0893 5.53024C47.1378 5.52214 47.1862 5.51403 47.2347 5.50592C47.1187 5.00992 47.0027 4.51392 46.8867 4.01792C46.9357 3.99559 46.9846 3.97326 47.0336 3.95094C47.2118 4.24313 47.4401 4.51733 47.5541 4.83263C47.6656 5.14089 47.6605 5.49108 47.7235 5.94414C47.8303 5.67588 47.9002 5.50051 48.0271 5.18194C48.4553 6.12807 48.8371 6.9715 49.214 7.80421C49.3626 8.21162 49.5396 8.58883 49.6355 8.98556C49.781 9.58811 49.8701 10.2042 49.9832 10.8146C50.0256 10.806 50.068 10.7975 50.1105 10.789C50.1105 11.3419 50.1105 11.8948 50.0653 12.4985C49.7926 11.7675 49.5668 10.9852 49.337 10.204C49.2074 9.76335 49.0712 9.32459 48.938 8.88497C49.183 10.3167 49.5365 11.7118 49.9012 13.104C49.9144 13.1544 50.0382 13.176 50.1105 13.211C50.1105 13.3998 50.1105 13.5885 50.1105 13.8244C50.0029 13.9539 49.8954 14.0363 49.7422 14.1537C49.2635 12.3702 48.7716 10.5374 48.2821 8.71323C48.0652 8.82696 48.1193 8.81093 48.2022 9.08894C48.4238 9.83272 48.6002 10.5903 48.7722 11.3475C48.7831 11.3952 48.6022 11.4863 48.469 11.5461C48.4275 11.535 48.4356 11.5443 48.4356 11.5443C48.0734 11.4385 47.6744 11.3961 47.3573 11.2127C46.8179 10.9007 46.2097 10.8689 45.6506 10.6637C45.5012 10.6088 45.4175 10.3759 45.2533 10.1577C45.6292 10.1577 45.8419 10.1577 46.0547 10.1577C45.7181 9.94591 45.1472 10.1925 45.1472 9.4739C45.3878 9.49377 45.609 9.51203 45.8302 9.5303C45.4495 9.2806 44.8951 9.35831 44.8121 8.71689C45.0119 8.749 45.1954 8.7785 45.4274 8.83469C45.5137 8.84786 45.5513 8.83433 45.589 8.82081C45.3929 8.74281 45.18 8.69127 45.0052 8.58008C44.7901 8.44328 44.6068 8.25675 44.338 8.03162C44.8554 7.90709 45.2451 8.40667 45.6234 7.90864C44.9219 7.94588 44.2922 7.897 43.9456 7.17566C44.3827 7.27566 44.8197 7.37566 45.2568 7.47565C45.2634 7.42929 45.27 7.38293 45.2766 7.33656C44.5265 7.02842 43.5743 7.16947 42.9564 6.28287C43.6505 6.444 44.237 6.58012 44.8738 6.74295C44.9618 6.75612 44.9994 6.74259 45.0371 6.72907C44.6405 6.57926 44.2495 6.33158 43.8457 6.30882C43.4857 6.28854 43.2017 5.84466 42.7802 6.13455C42.7385 6.16327 42.363 5.86434 42.2903 5.66406C42.0741 5.06871 41.9318 4.44668 41.6311 3.85112C41.7657 4.43383 41.9003 5.01654 42.0591 5.70405C41.1953 5.16451 41.3155 4.3207 41.0783 3.47109C40.8375 4.14021 41.2288 4.60419 41.2616 5.21238C40.4379 4.98784 40.7383 4.14384 40.2945 3.72999C40.3751 4.11695 40.4556 4.50391 40.5536 4.97438C39.7197 4.6054 39.9347 3.8259 39.5476 3.29741C39.6464 3.7569 39.7453 4.21639 39.8445 4.67764C39.314 4.67707 39.3024 4.654 38.9677 3.06439C38.7246 3.59729 39.1603 4.06139 39.1822 4.56724C38.7025 4.62122 38.2847 3.70536 38.4007 2.76251C38.2082 2.92551 38.0708 3.04178 37.9776 3.12067C38.0993 3.35869 38.2155 3.54899 38.2962 3.75326C38.386 3.98097 38.4435 4.22137 38.4404 4.57108C38.2473 4.4512 38.0542 4.33133 37.8278 4.19078C37.3275 4.60885 36.9969 4.68752 36.7822 4.35363C36.1881 4.97802 35.489 4.8967 34.7508 4.67477C33.9737 4.44113 33.1843 4.24798 32.5 4.06393C32.4496 4.21722 32.4453 4.34216 32.3806 4.40985C31.8488 4.96674 31.3058 5.51299 30.6957 6.0123C30.609 5.20284 31.5 5.02219 31.7548 4.40301C31.6477 4.40301 31.5416 4.40301 31.3764 4.36054C31.1215 4.27088 30.9256 4.22368 30.7023 4.16986C30.7023 4.33971 30.7023 4.46058 30.7023 4.51998C30.8865 4.50356 31.0748 4.48677 31.2631 4.46998ZM42.0153 2.84965C42.0849 2.77307 42.1546 2.69648 42.2868 2.56883C42.6272 2.78422 42.9675 2.99962 43.3999 3.27324C43.3822 3.28998 43.4838 3.19394 43.5855 3.0979C43.5111 3.13117 43.4367 3.16444 43.3623 3.19771C43.1094 2.8268 42.8566 2.45588 42.5788 2.04831C42.3899 2.26011 42.2724 2.39184 42.0456 2.52969C42.022 2.65089 41.9984 2.7721 41.8831 2.86505C41.81 2.91419 41.737 2.96333 41.664 3.01248C41.7076 3.05761 41.7512 3.10275 41.7948 3.14789C41.8496 3.05781 41.9044 2.96773 42.0153 2.84965ZM42.326 4.07704C42.3425 4.1153 42.359 4.15356 42.3836 4.28159C42.4954 4.71911 42.6073 5.15663 42.7192 5.59416C42.7809 5.57526 42.8426 5.55636 42.9043 5.53747C42.7266 5.04797 42.549 4.55847 42.326 4.07704ZM33.9985 3.36177C34.5193 3.48719 35.0401 3.61262 35.5609 3.73804C35.5723 3.69101 35.5838 3.64399 35.5952 3.59696C34.2628 3.2436 32.9304 2.89023 31.5979 2.53686C31.5831 2.59121 31.5684 2.64556 31.5536 2.69991C32.3433 2.90234 33.1331 3.10478 33.9985 3.36177ZM44.6511 4.62101C44.8058 4.46076 44.9606 4.3005 45.1607 4.09326C44.7236 4.05855 44.3994 4.0328 44.0752 4.00706C44.0725 4.05776 44.0697 4.10847 44.067 4.15918C44.2383 4.17626 44.4096 4.19334 44.5809 4.21043C44.6088 4.24881 44.6367 4.28719 44.6646 4.32556C44.3257 4.58275 43.9868 4.83993 43.6479 5.09712C43.6952 5.15653 43.7425 5.21593 43.7898 5.27534C44.1174 5.29661 44.445 5.31789 44.7725 5.33916C44.7742 5.29221 44.7759 5.24526 44.7776 5.19831C44.6074 5.17942 44.4372 5.16052 44.1754 5.13146C44.3534 4.93821 44.4722 4.80913 44.6511 4.62101ZM32.863 1.76135C33.3066 1.87211 33.7492 1.98698 34.194 2.09272C35.0175 2.28848 35.3616 2.32575 35.4344 2.25749C34.5005 2.01565 33.5523 1.77011 32.6042 1.52458C32.5951 1.54977 32.586 1.57497 32.5769 1.60017C32.6425 1.65319 32.7082 1.7062 32.863 1.76135ZM45.9086 6.42891C45.8126 6.29292 45.7166 6.15694 45.6089 6.00435C45.4818 6.1246 45.357 6.24274 45.3235 6.27441C45.6753 6.59414 46.0096 6.89787 46.3443 7.20211C46.3897 7.16567 46.5004 7.07672 46.5819 7.01123C46.3533 6.81869 46.1582 6.65426 45.9086 6.42891ZM43.2631 5.14797C43.2631 5.36139 43.2631 5.57481 43.2631 5.87776C43.4588 5.71768 43.5883 5.61184 43.7177 5.50601C43.6455 5.49102 43.5734 5.47602 43.5012 5.46103C43.3965 5.02755 43.2918 4.59407 43.1871 4.16059C43.14 4.16875 43.0929 4.1769 43.0458 4.18506C43.1024 4.47884 43.159 4.77262 43.2631 5.14797ZM45.4752 4.36197C45.5307 4.64095 45.5863 4.91993 45.6419 5.1989C45.6939 5.1895 45.7459 5.18009 45.7979 5.17069C45.7117 4.63752 45.6255 4.10436 45.5313 3.52138C45.4037 3.6582 45.2979 3.77157 45.2237 3.85113C45.3222 4.01456 45.3984 4.14097 45.4752 4.36197ZM46.4619 5.31693C46.3635 4.80313 46.2651 4.28934 46.1667 3.77554C46.1105 3.78844 46.0543 3.80133 45.9981 3.81423C46.1305 4.33983 46.263 4.86544 46.4619 5.31693ZM47.9761 10.0328C47.8646 10.0431 47.7531 10.0534 47.7652 10.0523C47.8236 10.3729 47.8669 10.6101 47.9159 10.8788C47.9574 10.8788 48.0757 10.8788 48.196 10.8788C48.1311 10.6112 48.0709 10.3629 47.9761 10.0328ZM44.1928 3.52293C44.3963 3.54124 44.5999 3.55954 44.8035 3.57784C44.5722 3.4124 44.3258 3.34782 44.0753 3.3125C44.026 3.30554 43.9606 3.41139 43.9026 3.46521C43.9661 3.48437 44.0295 3.50353 44.1928 3.52293ZM44.3436 5.94566C44.5408 5.97317 44.7381 6.00068 44.9354 6.02819C44.9397 5.97874 44.9441 5.92928 44.9485 5.87983C44.7104 5.8405 44.4732 5.7924 44.2336 5.77021C44.1924 5.76638 44.1409 5.87265 44.0941 5.92806C44.1473 5.93369 44.2004 5.93931 44.3436 5.94566ZM37.8753 1.67337C37.7647 1.61864 37.654 1.56391 37.4416 1.45885C37.5512 1.742 37.4744 2.10328 37.8753 1.67337ZM46.8074 6.5387C46.4647 6.86884 46.8066 6.8078 46.9948 6.86516C46.9948 6.71917 46.9948 6.59616 46.9948 6.47315C46.9598 6.47441 46.9249 6.47568 46.8074 6.5387ZM36.7775 0.797351C36.7862 0.862795 36.795 0.928239 36.8038 0.993683C36.8623 0.982974 36.9208 0.972264 36.9793 0.961554C36.9369 0.886852 36.8944 0.81215 36.7775 0.797351ZM47.5017 7.62559C47.6196 7.582 47.7375 7.53841 47.8554 7.49482C47.8207 7.4435 47.7859 7.39219 47.7511 7.34087C47.6874 7.40584 47.6237 7.4708 47.5017 7.62559ZM41.124 1.97883C41.2035 1.98532 41.2831 1.99181 41.3627 1.9983C41.3272 1.89424 41.2918 1.79018 41.2368 1.62871C41.1414 1.76814 41.0832 1.85315 41.124 1.97883ZM42.4252 3.1021C42.4152 3.1666 42.4052 3.2311 42.3951 3.29559C42.4264 3.25192 42.4577 3.20824 42.4252 3.1021ZM41.0405 2.73113C41.0483 2.7704 41.0562 2.80966 41.0641 2.84893C41.0909 2.84069 41.1416 2.82781 41.141 2.82489C41.1304 2.77036 41.1137 2.71701 41.0405 2.73113ZM43.4908 2.23298C43.4412 2.22026 43.3921 2.20404 43.3417 2.19812C43.3329 2.19709 43.319 2.23938 43.3074 2.26167C43.3504 2.27567 43.3933 2.28967 43.4908 2.23298ZM41.9673 1.79526C42.0185 1.81315 42.0694 1.83228 42.1218 1.84545C42.1246 1.84615 42.1401 1.79644 42.1497 1.7702C42.1116 1.75993 42.0735 1.74967 41.9673 1.79526ZM36.7126 1.83005C36.7614 1.81102 36.8102 1.79199 36.859 1.77296C36.8169 1.76329 36.7749 1.75362 36.7126 1.83005ZM35.4113 1.29993C35.4192 1.3392 35.4271 1.37847 35.4349 1.41774C35.4618 1.4095 35.5125 1.39662 35.5119 1.3937C35.5013 1.33916 35.4845 1.28581 35.4113 1.29993ZM46.8318 7.49232C46.787 7.52129 46.7422 7.55026 46.6974 7.57923C46.7601 7.57339 46.8229 7.56755 46.8318 7.49232ZM45.4149 7.05481C45.4079 7.09519 45.4008 7.13558 45.3938 7.17596C45.4354 7.16922 45.4809 7.16987 45.5162 7.15124C45.5268 7.14565 45.5089 7.08627 45.4149 7.05481ZM47.7954 6.63665C47.7458 6.62393 47.6967 6.60771 47.6463 6.60179C47.6375 6.60076 47.6236 6.64305 47.6121 6.66534C47.655 6.67934 47.698 6.69334 47.7954 6.63665ZM46.3634 6.19495C46.3983 6.19954 46.4579 6.21704 46.4635 6.20634C46.4819 6.17124 46.4807 6.12591 46.487 6.08451C46.4467 6.09178 46.4064 6.09905 46.3634 6.19495ZM40.1856 3.57622C40.2105 3.58498 40.2354 3.59374 40.2603 3.6025C40.2526 3.57797 40.2448 3.55344 40.1856 3.57622ZM35.203 1.70372C35.1788 1.69471 35.1546 1.6857 35.1304 1.67668C35.1379 1.70199 35.1454 1.72729 35.203 1.70372ZM35.7548 3.79546C35.7306 3.78645 35.7064 3.77744 35.6822 3.76843C35.6897 3.79373 35.6972 3.81903 35.7548 3.79546Z" fill="white"/>
<path d="M29.2581 17.3862C29.106 16.7142 28.9539 16.0422 28.8017 15.3702C28.8454 15.3306 28.8891 15.2911 28.9328 15.2515C29.0508 15.3699 29.2335 15.4689 29.2758 15.6098C29.4908 16.3253 29.6693 17.0516 29.8522 17.7422C30.0405 17.6233 30.0405 17.6233 29.4748 15.5151C29.87 15.3845 29.9234 15.3972 30.0106 15.7085C30.1677 16.2704 30.3495 16.8299 30.4418 17.4031C30.478 17.6278 30.3131 17.8917 30.2162 18.128C30.1671 18.2477 30.0653 18.3459 29.9873 18.4537C30.02 18.4872 30.0527 18.5206 30.0854 18.554C30.2078 18.4475 30.3364 18.3472 30.4515 18.2333C30.9995 17.6904 31.5927 17.1831 32.0745 16.5865C32.4897 16.0726 32.9414 16.0318 33.4936 16.2034C33.6263 16.2446 33.7527 16.3061 33.8862 16.4881C33.5187 16.4881 33.1512 16.4881 32.7837 16.4881C32.7852 16.5424 32.7868 16.5968 32.7883 16.6511C32.9096 16.642 33.0386 16.6029 33.1501 16.6315C33.2898 16.6674 33.4151 16.7589 33.5466 16.8263C33.4442 16.9062 33.3415 16.9858 33.2393 17.066C33.0996 17.1756 32.9601 17.2856 32.7715 17.4341C33.0745 17.6577 33.3292 17.8585 33.5971 18.04C33.8805 18.232 34.1764 18.4056 34.4274 18.6836C34.0956 18.6297 33.7638 18.5758 33.432 18.5219C33.4277 18.5709 33.4234 18.6199 33.4192 18.6689C34.7624 18.9768 36.1057 19.2847 37.5358 19.6126C37.8298 20.7305 38.1538 21.963 38.4778 23.1955C38.4987 23.2058 38.5195 23.2161 38.5403 23.2264C38.5403 23.0624 38.5737 22.8901 38.5349 22.7357C38.2688 21.6749 37.9876 20.6178 37.7112 19.5594C37.7519 19.5172 37.7926 19.4749 37.8333 19.4326C37.9528 19.5207 38.1479 19.5874 38.1801 19.7002C38.525 20.9087 38.8441 22.1244 39.2427 23.3635C39.2427 23.2094 39.2751 23.047 39.2374 22.9027C38.9879 21.9459 38.7209 20.9936 38.4664 20.0381C38.4252 19.8836 38.4178 19.7202 38.3914 19.5376C38.6625 19.4577 38.7902 19.4128 38.8723 19.7901C39.1163 20.9119 39.4411 22.0163 39.7406 23.1258C39.7745 23.2517 39.8484 23.3668 40.0175 23.4544C39.8789 22.8826 39.7479 22.3088 39.5998 21.7395C39.4311 21.0902 39.2368 20.4474 39.0789 19.7956C39.0488 19.6714 39.1364 19.5188 39.1697 19.3792C39.2786 19.4713 39.453 19.5445 39.486 19.6585C39.7319 20.5072 39.9469 21.3648 40.1777 22.218C40.2745 22.5759 40.4229 22.9247 40.4732 23.288C40.494 23.438 40.3576 23.6904 40.2224 23.7599C40.068 23.8392 39.7354 24.1887 39.6962 23.5398C39.4956 23.7558 39.3626 23.8991 39.2615 24.0763C39.1402 24.1101 38.9869 24.1101 38.8221 24.0725C38.7667 23.9376 38.7227 23.8404 38.6318 23.6395C38.5317 23.8524 38.4711 23.9813 38.4105 24.1101C38.2572 24.1101 38.1039 24.1101 37.9391 24.0725C37.8837 23.9376 37.8397 23.8404 37.7488 23.6395C37.6487 23.8524 37.5881 23.9813 37.5275 24.1101C37.3742 24.1101 37.2209 24.1101 37.0216 24.1101C36.9756 23.9974 36.9756 23.8847 36.9756 23.7695C36.2455 24.0257 35.8709 23.8942 35.6251 23.3484C35.3532 23.4334 35.0845 23.5173 34.6812 23.6434C34.8117 23.3825 34.8644 23.2771 34.9395 23.1269C34.455 23.1269 34.0045 23.1269 33.436 23.1269C33.6187 22.8988 33.7051 22.7909 33.7854 22.6907C33.1195 22.5442 33.4667 21.8707 32.9993 21.4473C33.1341 21.9952 33.2375 22.4152 33.3423 22.841C32.8013 22.8458 32.7275 22.7079 32.5059 21.3342C32.461 21.3372 32.416 21.3402 32.3711 21.3432C32.4348 21.7382 32.4984 22.1333 32.5644 22.5426C31.7576 22.3211 32.0007 21.6247 31.8556 21.1129C31.8036 21.1149 31.7516 21.1169 31.6996 21.1189C31.7241 21.4333 31.7487 21.7478 31.7745 22.0782C31.1187 21.9929 31.2557 21.3592 30.9685 20.9983C30.9852 21.1618 31.0018 21.3252 31.0185 21.4887C30.9767 21.5184 30.935 21.548 30.8932 21.5777C30.709 21.3393 30.5247 21.101 30.3215 20.8382C30.0951 21.0159 29.8376 20.9948 29.6418 20.5504C29.6194 20.6774 29.6225 20.8168 29.5678 20.928C29.5096 21.0466 29.3968 21.1385 29.2497 21.3097C29.1545 20.9842 29.0812 20.7338 28.934 20.482C28.8765 20.519 28.893 20.5572 28.9095 20.5955C28.9479 20.7678 29.024 20.9422 29.0149 21.112C29.0046 21.3047 28.9179 21.4932 28.8645 21.6836C28.7865 21.6746 28.7085 21.6657 28.6305 21.6568C28.5417 21.1448 28.4528 20.6328 28.3725 20.1705C28.2886 19.9599 28.2136 19.7858 28.1507 19.6075C28.1213 19.5241 28.1123 19.433 28.0993 19.3446C28.0285 18.8653 27.9593 18.3857 27.8819 17.8536C27.8418 17.7496 27.6664 17.4827 27.7246 17.4148C28.0719 17.0095 27.8116 16.6522 27.7078 16.2756C27.5957 15.8683 27.4968 15.4573 27.384 15.0161C27.6643 14.9438 27.8646 14.9124 27.9369 15.3266C28.0366 15.8972 28.224 16.4522 28.364 17.0163C28.3984 17.1549 28.3952 17.3028 28.48 17.4369C28.6533 16.6239 28.1288 15.9047 28.1929 15.0091C28.337 15.1724 28.5517 15.3131 28.6126 15.5029C28.8227 16.1578 28.9792 16.8298 29.2318 17.4981C29.2911 17.4627 29.2746 17.4245 29.2581 17.3862ZM35.8197 22.345C35.8032 22.3067 35.7867 22.2685 35.7621 22.1392C35.6744 21.7222 35.5868 21.3052 35.4836 20.8144C35.3377 20.9758 35.2467 21.0765 35.2014 21.1267C35.2973 21.2708 35.3823 21.3652 35.4296 21.4757C35.5533 21.7644 35.6606 22.0601 35.8197 22.345ZM37.9168 22.8955C37.9003 22.8572 37.8839 22.8189 37.8592 22.6899C37.6354 21.8139 37.4115 20.938 37.1876 20.062C37.1402 20.0741 37.0929 20.0861 37.0456 20.0982C37.1327 20.4507 37.2055 20.8074 37.3101 21.1547C37.4866 21.7408 37.6833 22.3209 37.9168 22.8955ZM34.7014 19.5966C34.9918 19.6727 35.2944 19.719 35.5698 19.8316C36.0469 20.0267 36.4624 20.2702 36.571 20.8693C36.6896 21.5238 36.9039 22.161 37.0766 22.8057C37.127 22.7951 37.1774 22.7845 37.2277 22.7739C36.988 21.7974 36.7482 20.8208 36.5173 19.88C35.5651 19.6475 34.6147 19.4153 33.6643 19.1831C33.6551 19.2328 33.6459 19.2825 33.6367 19.3321C33.9603 19.4201 34.284 19.5081 34.7014 19.5966ZM33.9435 20.0347C34.4175 20.1738 34.8961 20.2999 35.3629 20.46C35.4995 20.5069 35.6028 20.6504 35.7469 20.7708C35.8225 20.6848 35.9352 20.5567 36.0359 20.4422C35.4152 20.2635 34.8405 20.0873 34.2586 19.9395C34.1373 19.9087 33.9892 19.9829 33.9435 20.0347ZM36.2002 21.7802C36.2544 22.0536 36.3086 22.3271 36.3628 22.6005C36.4231 22.5861 36.4835 22.5716 36.5438 22.5572C36.4167 22.0606 36.2896 21.5641 36.1625 21.0676C36.1196 21.0748 36.0767 21.0819 36.0338 21.0891C36.0759 21.292 36.1179 21.4949 36.2002 21.7802ZM34.7372 22.4915C34.5307 22.4298 34.3242 22.3681 34.0322 22.2808C34.0195 22.2944 33.9274 22.3937 33.7618 22.5721C34.1385 22.5721 34.4205 22.5721 34.7372 22.4915ZM34.3159 21.4678C34.4659 21.5309 34.616 21.594 34.8206 21.68C34.8687 21.6231 34.9559 21.5196 35.0425 21.4168C34.8002 21.3592 34.5958 21.2967 34.387 21.272C34.3422 21.2667 34.2812 21.3979 34.3159 21.4678ZM34.0531 20.8038C34.2884 20.8274 34.5236 20.8511 34.7588 20.8747C34.4928 20.8315 34.2763 20.2892 34.0531 20.8038ZM33.3051 20.6717C33.4065 20.5579 33.5078 20.4441 33.6539 20.2802C33.4481 20.2802 33.3193 20.2802 33.2048 20.2802C33.2048 20.4333 33.2048 20.5631 33.3051 20.6717ZM32.0526 19.8169C31.9848 19.9149 31.9171 20.0129 31.8493 20.1109C31.9156 20.1414 31.9819 20.172 32.0482 20.2025C32.0844 20.0746 32.1207 19.9467 32.0526 19.8169ZM31.2171 19.027C31.1327 19.1226 31.0484 19.2183 30.9102 19.375C31.1338 19.3651 31.2562 19.3597 31.3841 19.354C31.3601 19.2265 31.3408 19.1232 31.2171 19.027ZM32.6668 19.5499C32.6045 19.5411 32.5422 19.5324 32.4798 19.5236C32.4749 19.5784 32.47 19.6332 32.465 19.688C32.5327 19.6778 32.6004 19.6676 32.6668 19.5499ZM31.1587 20.1491C31.1647 20.0866 31.1706 20.0242 31.1766 19.9617C31.1449 20.0091 31.1131 20.0564 31.1587 20.1491ZM32.5549 20.4473C32.52 20.4427 32.4604 20.4252 32.4548 20.4359C32.4364 20.471 32.4376 20.5163 32.4313 20.5577C32.4716 20.5505 32.5119 20.5432 32.5549 20.4473ZM36.4662 23.381C36.4174 23.4 36.3686 23.419 36.3198 23.4381C36.3619 23.4477 36.4039 23.4574 36.4662 23.381ZM33.3389 19.6261C33.3738 19.6307 33.4335 19.6482 33.4391 19.6375C33.4575 19.6024 33.4562 19.5571 33.4626 19.5157C33.4223 19.523 33.382 19.5302 33.3389 19.6261ZM32.1383 19.1772C32.1305 19.1379 32.1226 19.0986 32.1147 19.0594C32.0879 19.0676 32.0372 19.0805 32.0377 19.0834C32.0484 19.1379 32.0651 19.1913 32.1383 19.1772Z" fill="white"/>
<path d="M5.62086 20.138C4.6717 19.9201 3.70346 19.7584 2.78557 19.4483C2.52654 19.3609 2.41492 18.8392 2.297 18.4575C3.23794 18.5603 4.11757 18.7222 5.01505 18.8873C4.98015 18.8321 4.96069 18.7599 4.92454 18.7503C4.30984 18.5873 3.69434 18.4269 3.07628 18.2771C2.71082 18.1885 2.52371 17.9376 2.42642 17.6039C2.21191 16.8682 2.00547 16.1301 1.75133 15.2369C1.71043 15.4792 1.65665 15.592 1.68141 15.6839C1.86488 16.3645 2.08122 17.0369 2.24754 17.7214C2.29676 17.924 2.21885 18.1573 2.19919 18.3765C2.09221 18.3047 1.91467 18.2519 1.88912 18.158C1.6203 17.1702 1.37576 16.1757 1.10387 15.1016C0.833035 15.7752 1.41963 16.3217 1.30355 16.9128C1.24987 16.9255 1.19619 16.9382 1.1425 16.9508C0.986952 16.2639 0.960876 15.5032 0.625686 14.9188C0.434721 14.5858 0.721487 14.0621 0.154132 13.948C0.110352 13.8642 0.110352 13.7468 0.148114 13.6177C0.275283 13.5127 0.36469 13.4193 0.54641 13.2294C0.31013 13.2791 0.210241 13.3001 0.110352 13.3211C0.110352 13.1323 0.110352 12.9436 0.143427 12.7395C0.302685 12.5532 0.428867 12.3823 0.551042 12.217C0.547034 12.2226 0.537519 12.2326 0.537519 12.2326C0.660787 12.1649 0.806322 12.1201 0.903654 12.0257C1.47017 11.4767 2.01238 10.9019 2.59448 10.3704C2.72294 10.2531 2.99024 10.2122 3.1744 10.2446C3.69691 10.3367 4.20948 10.4848 4.75185 10.6172C4.66229 10.9371 4.56034 11.1079 4.15767 10.948C3.75665 10.7887 3.30983 10.7442 2.88309 10.6494C2.87004 10.7131 2.85699 10.7767 2.84394 10.8403C3.20863 10.9074 3.59172 10.9266 3.93214 11.0568C4.19987 11.1592 4.79286 11.0128 4.59195 11.658C4.04006 11.7074 3.53833 11.1485 2.98865 11.5372C3.88277 11.4964 4.61491 11.8207 4.59475 12.3469C4.16207 12.2353 3.73779 12.1258 3.3135 12.0164C3.30042 12.0633 3.28733 12.1102 3.27424 12.1571C3.60566 12.2515 3.93214 12.3918 4.26982 12.428C4.65203 12.4689 4.66653 12.6639 4.61396 12.9442C4.19948 12.8866 3.79494 12.8303 3.39039 12.7741C3.38521 12.821 3.38003 12.868 3.37484 12.915C4.16489 12.8628 4.74575 13.1821 4.68836 13.637C4.33986 13.5701 3.99138 13.5032 3.64289 13.4363C3.63415 13.4894 3.62542 13.5425 3.61668 13.5956C3.88348 13.6509 4.15313 13.6954 4.41629 13.7645C4.67912 13.8334 5.00607 13.8547 4.95073 14.3306C4.57311 14.2576 4.21518 14.1884 3.85726 14.1191C3.84907 14.1563 3.84089 14.1934 3.83271 14.2306C4.13279 14.3299 4.43337 14.5123 4.73286 14.5105C5.2717 14.5073 5.31228 14.9245 5.26257 15.1957C5.21397 15.4609 4.96389 15.7981 4.52365 15.5384C4.43044 15.4834 4.24245 15.5882 4.11213 15.7182C4.2828 15.7351 4.45347 15.7519 4.62415 15.7688C4.65908 15.8142 4.69402 15.8596 4.72896 15.9049C4.3831 16.1547 4.03723 16.4045 3.69137 16.6543C3.73754 16.7103 3.78371 16.7662 3.82988 16.8222C4.1131 16.8428 4.39633 16.8634 4.67955 16.884C4.69135 16.8576 4.70315 16.8311 4.71495 16.8047C4.58118 16.7393 4.4474 16.6739 4.32342 16.6133C4.69198 16.2602 5.04576 15.9212 5.44451 15.5392C5.52429 15.908 5.6039 16.2761 5.68351 16.6441C5.71183 16.6529 5.74015 16.6617 5.76848 16.6704C5.80882 16.5251 5.84917 16.3797 5.92897 16.0922C6.07868 16.411 6.18471 16.6368 6.24809 16.9082C5.90506 17.2216 5.60466 17.4895 5.28016 17.7788C5.69413 18.0905 6.04025 18.3511 6.38637 18.6118C6.35026 18.6676 6.31415 18.7234 6.27805 18.7792C6.37374 18.6686 6.46943 18.558 6.56512 18.4474C6.50079 18.4872 6.43645 18.527 6.37211 18.5667C6.2009 18.2487 6.02969 17.9306 5.85847 17.6126C5.81319 17.643 5.7679 17.6735 5.72261 17.704C5.93286 17.483 6.1431 17.262 6.35334 17.041C6.44647 17.0358 6.59185 16.9903 6.62413 17.032C6.81212 17.2747 6.93643 17.5772 7.15501 17.7824C7.35182 17.9671 7.6491 18.0414 7.88824 18.1871C8.00455 18.2579 8.08926 18.3803 8.25304 18.5442C8.54082 18.6502 8.94423 18.7987 9.44299 18.9824C8.88592 19.4975 8.36823 19.9762 7.95605 20.3573C8.11718 20.6463 8.24559 20.8056 8.30006 20.9869C8.50252 21.6611 8.68066 22.3425 8.89065 23.1035C8.22651 22.9364 7.64762 22.7906 7.02933 22.635C7.33623 22.3462 7.60538 22.0929 7.85856 21.8546C7.8664 21.8769 8.21457 22.4164 8.23721 22.4186C8.136 22.0746 8.03465 21.7308 7.88925 21.2376C7.58785 21.5843 7.35993 21.8696 7.10709 22.1309C6.85627 22.39 6.65755 22.7349 6.22866 22.2351C6.00324 21.9724 5.51573 21.9351 5.14953 21.7886C5.11312 21.7741 5.09732 21.7082 5.02774 21.5929C5.3823 21.6607 5.67472 21.7166 5.96713 21.7726C5.28934 21.3188 4.35081 21.4467 3.79642 20.5999C4.52596 20.7701 5.1742 20.9212 5.82244 21.0724C4.90753 20.5283 3.71431 20.7082 3.00226 19.7209C3.72283 19.9123 4.44144 20.1116 5.16555 20.2885C5.31916 20.3261 5.49288 20.2817 5.71062 20.2218C5.77844 20.1316 5.79297 20.0946 5.8075 20.0577C5.74529 20.0845 5.68307 20.1112 5.62086 20.138ZM2.37003 15.6366C2.38651 15.6749 2.403 15.7132 2.42761 15.8419C2.52789 16.2449 2.62816 16.648 2.72844 17.051C2.79413 17.0301 2.85981 17.0092 2.92549 16.9883C2.75544 16.5351 2.5854 16.0818 2.37003 15.6366ZM3.06198 18.9323C2.90274 18.8914 2.74349 18.8505 2.58425 18.8097C2.57236 18.8591 2.56047 18.9085 2.54857 18.9579C3.49741 19.2029 4.44624 19.4478 5.39508 19.6928C5.4071 19.6424 5.41913 19.5921 5.43116 19.5418C4.67186 19.3399 3.91256 19.1379 3.06198 18.9323ZM4.64127 18.2267C4.79458 18.2267 4.94788 18.2267 5.10118 18.2267C5.09367 18.197 5.08617 18.1674 5.07866 18.1377C4.40897 17.9588 3.73928 17.7799 2.98304 17.5778C2.98854 17.5712 2.90281 17.6742 2.82354 17.7695C3.42633 17.9082 3.99485 18.0391 4.64127 18.2267ZM2.78839 13.9621C2.66113 13.7922 2.54008 13.5441 2.35312 13.9641C2.69017 14.2319 3.03803 14.5083 3.40672 14.8012C3.41401 14.7946 3.54201 14.6788 3.5924 14.6331C3.33491 14.4179 3.09547 14.2178 2.78839 13.9621ZM3.30777 17.2007C3.32681 17.2601 3.34584 17.3195 3.36487 17.3789C3.51721 17.2601 3.66954 17.1413 3.80157 17.0384C3.20629 16.6922 3.38832 16.1406 3.20194 15.713C3.13266 15.9033 3.11114 16.0939 3.13769 16.2776C3.17789 16.5558 3.25154 16.8292 3.30777 17.2007ZM4.3852 17.5044C4.5492 17.517 4.7132 17.5296 4.87719 17.5422C4.87738 17.5044 4.87756 17.4665 4.87774 17.4287C4.62473 17.3806 4.37172 17.3325 4.00115 17.262C4.16485 17.3952 4.23073 17.4488 4.3852 17.5044ZM4.33303 14.8625C4.21914 14.8771 4.10526 14.8917 3.99137 14.9063C3.99371 14.9343 3.99605 14.9622 3.99839 14.9902C4.2639 15.0218 4.52941 15.0534 4.79492 15.085C4.79719 15.0641 4.79946 15.0432 4.80173 15.0224C4.67652 14.9699 4.55131 14.9174 4.33303 14.8625ZM7.64478 19.1747C7.74994 19.0634 7.85509 18.9522 7.9995 18.7994C7.805 18.7994 7.67648 18.7994 7.48076 18.7994C7.51355 18.9482 7.54648 19.0976 7.64478 19.1747ZM1.80606 14.067C1.83138 14.2195 1.8567 14.372 1.88906 14.5668C2.02752 14.4221 2.14549 14.2989 2.27624 14.1622C2.11011 14.089 1.98682 14.0347 1.80606 14.067ZM7.06181 18.2245C7.05554 18.1234 7.04927 18.0223 7.0329 17.7584C6.83119 17.9437 6.72336 18.0428 6.5473 18.2045C6.81058 18.2682 6.91177 18.2927 7.06181 18.2245ZM1.10373 13.385C1.14155 13.4355 1.17937 13.486 1.2172 13.5366C1.25992 13.5022 1.30264 13.4677 1.34536 13.4333C1.2907 13.3931 1.23604 13.3528 1.10373 13.385ZM2.57123 14.6482C2.52642 14.6772 2.48161 14.7062 2.4368 14.7352C2.49954 14.7293 2.56228 14.7235 2.57123 14.6482ZM1.29989 14.2781C1.24866 14.2602 1.19774 14.2411 1.14532 14.2279C1.14254 14.2272 1.12704 14.277 1.11746 14.3032C1.15557 14.3135 1.19368 14.3237 1.29989 14.2781ZM3.33582 13.7952C3.38705 13.8131 3.43797 13.8322 3.49039 13.8454C3.49317 13.8461 3.50867 13.7964 3.51825 13.7702C3.48014 13.7599 3.44204 13.7496 3.33582 13.7952ZM6.51495 17.6458C6.46539 17.6331 6.41625 17.6168 6.36588 17.6109C6.35709 17.6099 6.34318 17.6522 6.33163 17.6745C6.37458 17.6885 6.41752 17.7025 6.51495 17.6458ZM2.06449 13.4251C2.1093 13.3961 2.1541 13.3672 2.19891 13.3382C2.13617 13.344 2.07343 13.3499 2.06449 13.4251ZM5.55136 18.5015C5.50655 18.5304 5.46174 18.5594 5.41693 18.5884C5.47967 18.5825 5.54241 18.5767 5.55136 18.5015ZM5.18078 18.9881C5.15658 18.9791 5.13238 18.9701 5.10818 18.961C5.11568 18.9864 5.12318 19.0117 5.18078 18.9881Z" fill="white"/>
<path d="M18.1936 5.70987C17.8496 5.60449 17.4887 5.53583 17.1645 5.38742C15.7116 4.72233 14.1014 4.60967 12.6123 4.07632C12.5653 4.05949 12.5047 4.08044 12.5516 4.17601C12.4541 4.28856 12.3443 4.50563 12.2611 4.49592C11.8577 4.44886 11.4612 4.34197 11.0628 4.25388C10.9617 4.23151 10.8625 4.20035 10.7336 4.16542C10.7168 4.35689 10.7029 4.5166 10.6724 4.86529C10.4832 4.67924 10.3067 4.58715 10.2772 4.46093C10.1992 4.1264 9.8251 3.79725 10.207 3.42635C10.2298 3.40421 10.2169 3.30269 10.1868 3.27552C9.47426 2.63359 9.65858 1.65403 9.29107 0.880087C9.23112 0.753828 9.39087 0.523778 9.44907 0.3417C9.5137 0.352929 9.57833 0.364157 9.64296 0.375384C9.87577 1.27965 10.1086 2.18392 10.3277 3.03497C11.033 3.2122 11.7493 3.38746 12.4631 3.57265C13.5612 3.85758 14.6566 4.15341 15.7563 4.43197C15.8685 4.4604 16.0028 4.40255 16.1843 4.37647C15.3582 4.16346 14.6204 3.9765 13.8844 3.78259C13.0107 3.55239 12.1419 3.30244 11.2645 3.08756C10.6975 2.9487 10.3553 2.64775 10.257 2.05186C10.1853 1.61761 10.104 1.16467 9.91211 0.776601C9.74643 0.441575 9.93771 0.343207 10.0765 0.145967C10.0932 0.110107 10.1423 0.110107 10.1934 0.146387C10.3674 0.734393 10.5392 1.28612 10.7111 1.83785C10.7383 1.82787 10.7656 1.81788 10.7928 1.8079C10.6904 1.24197 10.5881 0.67604 10.4857 0.110107C10.6034 0.110107 10.7212 0.110107 10.883 0.156313C11.0548 0.85047 11.1823 1.49842 11.3038 2.11531C11.4782 2.13256 11.7327 2.12685 11.9708 2.18656C13.0666 2.4614 14.1568 2.75843 15.2518 3.03614C15.3923 3.07176 15.5497 3.04102 15.6992 3.04102C15.4583 2.87054 15.2167 2.84434 14.9839 2.78428C14.1124 2.55946 13.2357 2.34934 12.3782 2.07917C12.0351 1.97105 11.735 1.72434 11.4204 1.53232C11.386 1.51133 11.3836 1.43521 11.3701 1.38369C11.2588 0.959293 11.1483 0.534665 11.0376 0.110107C11.4086 0.110107 11.7796 0.110107 12.1655 0.147807C12.2465 0.481477 12.3125 0.777448 12.3638 1.008C13.2768 1.2246 14.1951 1.44246 15.118 1.68287C15.1604 1.6919 15.1981 1.67837 15.2294 1.61219C14.3713 1.32785 13.5196 1.09617 12.6679 0.864485C12.6779 0.789539 12.688 0.714592 12.698 0.639646C12.9351 0.639646 13.1796 0.602523 13.4078 0.647526C13.8556 0.735853 14.29 0.896576 14.7393 0.970188C14.8917 0.995149 15.0725 0.84788 15.2402 0.779315C15.3261 0.714071 15.4119 0.648827 15.5271 0.561291C15.7984 0.844279 16.0734 1.131 16.3525 1.42213C16.8923 0.993055 17.2426 1.10983 17.5791 1.88996C18.0439 1.62768 18.8054 1.92754 18.8371 2.36984C18.9759 2.38283 19.1431 2.3495 19.2416 2.41656C19.5827 2.64886 19.9023 2.91304 20.2242 3.17244C20.292 3.22709 20.3949 3.33088 20.3797 3.38169C20.1336 4.20455 20.7288 4.88021 20.7722 5.65316C20.7876 5.92737 20.9258 6.19456 21.0068 6.46532C21.1409 6.91415 21.1499 7.48979 21.4431 7.77614C21.7272 8.05357 22.304 8.0303 22.7504 8.1463C22.9038 8.18616 23.0515 8.24776 23.2017 8.29942C23.19 8.37091 23.1783 8.44239 23.1665 8.51388C22.8956 8.5019 22.6234 8.50216 22.3541 8.47466C22.0563 8.44425 21.7612 8.38841 21.4502 8.42428C21.8388 8.52771 22.2273 8.63114 22.6455 8.74244C22.5185 9.03026 22.4057 9.19115 22.0414 9.04235C21.702 8.90373 21.3039 8.91394 20.9541 8.79359C20.4791 8.63015 20.3274 8.20102 20.2098 7.75247C19.8558 6.40203 19.4831 5.05646 19.1303 3.70572C19.0762 3.49877 19.0888 3.2745 18.953 3.04489C18.9364 3.19037 18.8758 3.34717 18.91 3.47959C19.3346 5.12307 19.7755 6.76236 20.2057 8.40442C20.2857 8.70951 20.4839 8.85025 20.7763 8.9184C21.2512 9.0291 21.722 9.15773 22.1945 9.2788C22.1976 9.3251 22.2007 9.37141 22.2038 9.41771C21.9648 9.49166 21.7259 9.56561 21.4828 9.64084C21.5568 9.66985 21.6511 9.70685 21.7537 9.74707C21.3657 10.2267 20.6154 10.0796 19.9782 9.38185C20.1743 9.36346 20.3339 9.3485 20.3453 9.34744C20.1646 9.07635 19.8704 8.7984 19.7751 8.46404C19.3197 6.86514 18.915 5.25175 18.5007 3.64135C18.4346 3.38456 18.4116 3.11676 18.3589 2.79387C18.2188 2.92323 18.083 3.04865 17.9471 3.17408C18.0017 3.16882 18.0562 3.16356 18.1107 3.1583C18.3694 4.0245 18.6281 4.8907 18.9025 5.80932C18.6644 5.77678 18.4654 5.74959 18.2259 5.71152C18.1854 5.70064 18.1936 5.70987 18.1936 5.70987ZM17.9918 4.42246C17.9865 4.31496 17.9811 4.20746 17.9723 4.02953C17.8151 4.20387 17.7017 4.32971 17.5727 4.47271C17.7167 4.51881 17.8121 4.54936 17.9592 4.6412C17.984 4.82116 18.0089 5.00112 18.0338 5.18108C18.1046 5.16406 18.1755 5.14704 18.2463 5.13002C18.1641 4.92178 18.082 4.71355 17.9918 4.42246ZM20.6399 7.42689C20.653 7.506 20.6661 7.5851 20.6792 7.66421C20.7283 7.65308 20.7773 7.64195 20.8264 7.63083C20.4506 6.17961 20.0748 4.72839 19.699 3.27717C19.6378 3.29173 19.5766 3.3063 19.5154 3.32086C19.8887 4.65938 20.2621 5.99791 20.6399 7.42689ZM12.5404 2.97225C13.5511 3.23212 14.5618 3.49198 15.5725 3.75185C15.5846 3.70225 15.5967 3.65266 15.6088 3.60306C14.28 3.24756 12.9512 2.89205 11.6225 2.53654C11.6092 2.57931 11.596 2.62208 11.5827 2.66485C11.871 2.76622 12.1593 2.86758 12.5404 2.97225ZM14.268 2.09565C14.6677 2.1788 15.0415 2.47788 15.6114 2.29843C14.5258 2.01695 13.5779 1.77121 12.6301 1.52548C12.6165 1.57324 12.6029 1.62101 12.5893 1.66877C13.1178 1.80986 13.6462 1.95094 14.268 2.09565ZM16.8181 1.67091C16.8081 1.73541 16.7981 1.7999 16.788 1.8644C16.8193 1.82072 16.8506 1.77704 16.8181 1.67091ZM15.4856 1.43348C15.4915 1.37103 15.4975 1.30858 15.5034 1.24613C15.4717 1.29346 15.44 1.34079 15.4856 1.43348ZM15.7267 3.84436C15.7355 3.81951 15.7443 3.79466 15.7531 3.76981C15.7285 3.77753 15.7039 3.78525 15.7267 3.84436Z" fill="white"/>
<path d="M8.93176 20.5955C9.1368 21.4376 9.34193 22.2797 9.54682 23.1219C9.58773 23.29 9.62776 23.4584 9.672 23.6425C9.39571 23.7024 9.23046 23.6828 9.1444 23.3182C8.92994 22.4096 8.63858 21.5193 8.40385 20.615C8.37048 20.4864 8.43882 20.2838 8.532 20.1791C8.83614 19.8374 9.17353 19.5251 9.49829 19.2017C9.51126 19.1888 9.52461 19.1691 9.53993 19.1668C9.64434 19.1511 9.84077 19.1252 9.8412 19.128C9.91798 19.6283 10.8454 18.8754 10.6727 19.7079C11.2895 19.306 11.6205 19.4294 11.9851 20.1814C13.0104 19.4016 13.0104 19.4016 13.2384 19.5652C13.6398 19.5289 13.8982 19.4505 14.1331 19.4951C14.741 19.6102 15.3583 19.7287 15.9313 19.9503C16.1892 20.0501 16.4237 20.3682 16.5384 20.6417C16.7141 21.0608 16.7264 21.5476 16.8992 21.9684C17.1912 22.6797 16.8366 23.1161 16.1173 23.381C16.0016 23.4237 15.8337 23.3257 15.5902 23.2698C15.331 23.5327 14.9981 23.9565 14.3986 23.7557C13.974 23.6134 13.5486 23.4732 13.0262 23.2997C13.0565 23.2713 12.9674 23.3548 12.8856 23.4314C12.9075 23.485 12.9132 23.5319 12.9305 23.5366C13.2389 23.6208 13.5522 23.6897 13.8551 23.7899C13.9082 23.8075 13.9188 23.9524 13.9834 24.0743C13.6468 24.1101 13.2758 24.1101 12.8869 24.0723C12.0343 23.2492 12.2101 22.0816 11.7254 21.1521C11.7169 21.3356 11.7223 21.5223 11.765 21.7001C11.9583 22.5048 12.1621 23.307 12.3621 24.1101C12.0276 24.1101 11.6931 24.1101 11.3427 24.0743C11.0124 22.9579 10.698 21.8773 10.334 20.6259C10.334 20.9078 10.3101 21.0394 10.3377 21.1591C10.5656 22.144 10.8031 23.1267 11.0376 24.1101C10.9549 24.1101 10.8721 24.1101 10.7479 24.1101C10.3649 22.9324 10.0234 21.7546 9.68179 20.5768C9.6676 20.572 9.65341 20.5671 9.63921 20.5622C9.65556 20.7684 9.64311 20.9818 9.69322 21.1794C9.91729 22.0629 10.1592 22.9419 10.3947 23.8226C10.3545 23.8616 10.3143 23.9007 10.2741 23.9397C10.1247 23.8118 9.88581 23.7095 9.84038 23.5518C9.54793 22.5368 9.29781 21.5096 8.95804 20.4836C8.89879 20.519 8.91527 20.5573 8.93176 20.5955ZM15.842 22.345C15.8255 22.3068 15.809 22.2685 15.7844 22.1392C15.6974 21.7208 15.6104 21.3024 15.5033 20.7874C15.322 20.9691 15.2011 21.0903 15.153 21.1385C15.2846 21.3098 15.3906 21.4096 15.4493 21.5319C15.5778 21.7996 15.6823 22.0787 15.842 22.345ZM11.8047 23.51C11.5637 22.6711 11.3227 21.8322 11.0817 20.9933C11.033 21.0075 10.9843 21.0216 10.9355 21.0358C11.1913 21.9698 11.447 22.9038 11.7027 23.8378C11.7384 23.8299 11.7741 23.822 11.8098 23.8141C11.8098 23.7424 11.8098 23.6707 11.8047 23.51ZM14.7161 20.0413C14.4415 19.9863 14.1669 19.9313 13.7563 19.8491C14.4146 20.3785 15.2916 20.1098 15.7485 20.7932C15.8414 20.6883 15.9556 20.5593 16.0693 20.4309C15.6121 20.3102 15.2019 20.2019 14.7161 20.0413ZM13.1883 22.2376C13.2543 22.5266 13.3202 22.8155 13.3796 23.0757C13.5123 22.9642 13.6704 22.8313 13.7945 22.727C13.2372 22.4843 13.3788 21.9221 13.0743 21.5613C13.0958 21.7602 13.1172 21.9591 13.1883 22.2376ZM12.5829 21.6187C12.5727 21.5228 12.5625 21.4268 12.5524 21.3308C12.4899 21.3418 12.4275 21.3528 12.365 21.3637C12.4814 21.8633 12.5977 22.363 12.7141 22.8626C12.767 22.8515 12.8199 22.8404 12.8729 22.8293C12.7763 22.4583 12.6797 22.0872 12.5829 21.6187ZM16.2257 21.3245C16.2146 21.2379 16.2035 21.1513 16.1923 21.0647C16.145 21.0746 16.0977 21.0846 16.0504 21.0946C16.1588 21.595 16.2672 22.0955 16.3757 22.596C16.4367 22.5841 16.4978 22.5723 16.5588 22.5605C16.4495 22.1778 16.3403 21.7951 16.2257 21.3245ZM14.5832 22.4589C14.4331 22.3973 14.2831 22.3356 14.0743 22.2499C14.0297 22.3021 13.9421 22.4047 13.8516 22.5107C14.0591 22.57 14.2278 22.6491 14.3989 22.6544C14.4876 22.6572 14.5805 22.5294 14.5832 22.4589ZM14.7547 21.3578C14.5604 21.3456 14.3661 21.3334 14.0966 21.3165C14.3809 21.4778 14.5639 21.5816 14.7938 21.7121C15.0448 21.4944 15.0448 21.4944 14.7547 21.3578ZM14.783 20.7561C14.5285 20.7007 14.274 20.6453 14.0195 20.5899C14.0095 20.6541 13.9996 20.7184 13.9896 20.7826C14.2543 20.8051 14.5191 20.8276 14.783 20.7561ZM14.6518 23.1193C14.4531 23.1193 14.2544 23.1193 14.0557 23.1193C14.29 23.245 14.5212 23.3027 14.7559 23.3301C14.8074 23.3361 14.8714 23.2344 14.9297 23.1822C14.8689 23.1614 14.8082 23.1405 14.6518 23.1193ZM13.3745 20.6061C13.4589 20.5105 13.5432 20.4148 13.6815 20.2581C13.4579 20.268 13.3355 20.2734 13.2076 20.2791C13.2315 20.4067 13.2508 20.5099 13.3745 20.6061ZM11.189 19.9462C11.179 20.0107 11.169 20.0752 11.159 20.1397C11.1902 20.096 11.2215 20.0523 11.189 19.9462ZM12.5135 20.3865C12.5035 20.451 12.4935 20.5155 12.4835 20.58C12.5147 20.5363 12.546 20.4927 12.5135 20.3865Z" fill="white"/>
<path d="M15.2193 0.758316C15.0724 0.84792 14.8917 0.995189 14.7393 0.970228C14.29 0.896616 13.8556 0.735893 13.4077 0.647566C13.1796 0.602564 12.9351 0.639686 12.698 0.639686C12.6879 0.714633 12.6779 0.789579 12.6678 0.864525C13.5195 1.09621 14.3712 1.32789 15.199 1.60409C15.1544 1.65252 15.1339 1.65644 15.1133 1.66036C14.195 1.4425 13.2768 1.22464 12.3638 1.00804C12.3124 0.777488 12.2464 0.481518 12.2161 0.147847C12.5497 0.110148 12.8477 0.110148 13.23 0.146366C13.2979 0.247544 13.2814 0.312503 13.2649 0.377463C13.8969 0.474768 14.4663 0.942802 15.1566 0.695215C15.1705 0.709236 15.1845 0.723256 15.2193 0.758316Z" fill="black"/>
<path d="M11.01 0.110107C11.1484 0.534665 11.2588 0.959293 11.3702 1.38369C11.3837 1.43521 11.3861 1.51133 11.4205 1.53232C11.735 1.72434 12.0351 1.97105 12.3783 2.07917C13.2358 2.34934 14.1125 2.55946 14.9839 2.78428C15.2167 2.84434 15.4583 2.87054 15.6993 3.04102C15.5497 3.04102 15.3924 3.07176 15.2519 3.03614C14.1568 2.75843 13.0666 2.4614 11.9709 2.18656C11.7328 2.12685 11.4782 2.13256 11.3038 2.11531C11.1824 1.49842 11.0548 0.850471 10.9272 0.156313C10.9272 0.110107 10.9824 0.110107 11.01 0.110107Z" fill="black"/>
<path d="M15.1839 0.662634C14.4663 0.942762 13.8969 0.474728 13.2649 0.377422C13.2814 0.312463 13.2979 0.247504 13.2797 0.146326C13.5795 0.110107 13.914 0.110107 14.2987 0.110107C14.5662 0.220165 14.787 0.324414 14.9995 0.443256C15.0798 0.488189 15.1412 0.566822 15.1839 0.662634Z" fill="white"/>
<path d="M50.1104 13.1639C50.0382 13.1761 49.9144 13.1545 49.9012 13.1041C49.5364 11.7119 49.183 10.3168 48.938 8.88501C49.0712 9.32463 49.2073 9.76339 49.337 10.2041C49.5668 10.9852 49.7926 11.7675 50.0652 12.5499C50.1104 12.7393 50.1104 12.928 50.1104 13.1639Z" fill="black"/>
<path d="M11.0743 24.1101C10.8029 23.1267 10.5655 22.144 10.3376 21.159C10.3099 21.0393 10.3338 20.9077 10.3338 20.6259C10.6978 21.8772 11.0122 22.9578 11.2924 24.0743C11.2092 24.1101 11.1601 24.1101 11.0743 24.1101Z" fill="black"/>
<path d="M12.4062 24.1101C12.162 23.307 11.9582 22.5048 11.7649 21.7001C11.7222 21.5223 11.7168 21.3356 11.7253 21.1521C12.2101 22.0816 12.0343 23.2492 12.8363 24.0723C12.6858 24.1101 12.5681 24.1101 12.4062 24.1101Z" fill="black"/>
<path d="M35.7203 0.110107C35.6724 0.518921 36.151 1.05717 36.6896 1.0878C36.5491 1.23548 36.4348 1.35566 36.2632 1.53605C36.1474 0.916334 35.4019 0.811642 35.395 0.149186C35.5133 0.110107 35.5961 0.110107 35.7203 0.110107Z" fill="black"/>
<path d="M0.110352 11.1699C0.609321 11.3086 0.427843 11.79 0.544166 12.1866C0.537519 12.2326 0.547034 12.2226 0.513652 12.2212C0.356964 12.2933 0.233658 12.3668 0.110352 12.4403C0.110352 12.0338 0.110352 11.6272 0.110352 11.1699Z" fill="white"/>
<path d="M10.4489 0.110107C10.5881 0.67604 10.6904 1.24197 10.7928 1.8079C10.7656 1.81788 10.7383 1.82787 10.7111 1.83785C10.5392 1.28612 10.3674 0.734394 10.2302 0.146387C10.314 0.110107 10.363 0.110107 10.4489 0.110107Z" fill="black"/>
<path d="M0.110352 12.477C0.233658 12.3668 0.356964 12.2933 0.51766 12.2156C0.428867 12.3823 0.302685 12.5532 0.143427 12.6923C0.110352 12.6116 0.110352 12.5626 0.110352 12.477Z" fill="black"/>
<path d="M38.4519 24.1101C38.4711 23.9813 38.5317 23.8524 38.6319 23.6395C38.7227 23.8403 38.7667 23.9376 38.7762 24.0725C38.6589 24.1101 38.5761 24.1101 38.4519 24.1101Z" fill="black"/>
<path d="M37.5691 24.1101C37.5883 23.9813 37.6489 23.8524 37.749 23.6395C37.8399 23.8403 37.8839 23.9376 37.8933 24.0725C37.776 24.1101 37.6933 24.1101 37.5691 24.1101Z" fill="black"/>
<path d="M0.110352 13.3578C0.210241 13.3001 0.31013 13.2791 0.54641 13.2295C0.36469 13.4193 0.275283 13.5128 0.148114 13.5737C0.110352 13.4924 0.110352 13.4435 0.110352 13.3578Z" fill="black"/>
<path d="M39.2567 0.110107C39.2627 0.188744 39.2319 0.267381 39.2012 0.346017C39.1582 0.299988 39.1152 0.253959 39.0725 0.159019C39.1218 0.110107 39.1709 0.110107 39.2567 0.110107Z" fill="black"/>
<path d="M46.0306 14.6508C46.1315 14.5834 46.2324 14.516 46.3819 14.416C46.623 15.3114 46.8524 16.1628 47.0817 17.0142C47.1404 16 46.5821 15.0859 46.5694 14.0828C45.8661 14.1157 45.4043 13.8828 45.3751 13.4193C45.6939 13.4803 45.9951 13.538 46.2962 13.5957C46.3062 13.5536 46.3163 13.5114 46.3263 13.4693C46.1249 13.4193 45.9075 13.4004 45.728 13.3081C45.6161 13.2505 45.5615 13.0821 45.4812 12.9634C45.5922 12.9353 45.72 12.857 45.8115 12.8873C46.3036 13.0507 46.8315 13.1728 47.2553 13.4491C47.4896 13.6019 47.5837 14.0176 47.6726 14.334C47.9166 15.2014 48.1265 16.0784 48.3443 16.9529C48.3824 17.1057 48.3934 17.2653 48.5163 17.4521C48.5316 17.2869 48.5944 17.1094 48.5548 16.9586C48.2543 15.8143 47.9324 14.6756 47.6211 13.5342C47.5834 13.396 47.5696 13.2513 47.5479 13.1279C46.9033 12.9579 46.2601 12.7951 45.6248 12.6058C45.5818 12.593 45.5985 12.3806 45.5799 12.1796C46.1823 12.3194 46.7267 12.4458 47.2711 12.5722C47.2806 12.5366 47.2901 12.5009 47.2997 12.4653C47.0889 12.3971 46.8802 12.3214 46.6667 12.2628C46.4443 12.2017 46.2048 12.1861 45.9962 12.0964C45.8177 12.0196 45.6723 11.8662 45.5123 11.7467C45.5506 11.67 45.589 11.5932 45.6273 11.5165C46.1795 11.6688 46.7345 11.8121 47.2829 11.9771C47.5943 12.0708 48.0077 12.1139 48.1754 12.3324C48.4607 12.704 48.6236 13.1844 48.7739 13.6401C48.9782 14.2595 49.1533 14.8927 49.279 15.532C49.3409 15.847 49.2636 16.1892 49.2494 16.5191C49.1896 16.5178 49.1299 16.5166 49.0702 16.5153C48.7746 15.4279 48.4789 14.3405 48.1832 13.2531C48.1423 13.2611 48.1013 13.269 48.0604 13.277C48.1705 13.7651 48.2655 14.2573 48.3947 14.7403C48.5403 15.2853 48.7279 15.819 48.8767 16.3632C49.0377 16.9523 48.4257 18.4574 47.907 18.7591C47.8263 18.8061 47.66 18.8335 47.6117 18.7877C47.3699 18.5582 47.1541 18.3012 46.904 18.0263C46.8865 18.0411 46.7976 18.1161 46.674 18.2205C46.9961 18.5016 47.3076 18.7736 47.6307 19.0556C47.0995 19.5806 46.6011 20.0212 46.1681 20.5184C45.8444 20.8901 45.4984 20.9081 45.081 20.7863C43.9764 20.4639 42.8711 20.144 41.7634 19.8323C41.6857 19.8105 41.5868 19.8638 41.4986 19.9689C42.8913 20.3396 44.284 20.7104 45.7083 21.0895C45.5594 21.3513 45.4681 21.5097 45.0571 21.3852C43.6673 20.9638 42.2384 20.6685 40.8566 20.225C40.5399 20.1234 40.3521 19.6222 40.0703 19.2603C40.5491 19.0791 40.8924 18.9492 41.2627 18.809C41.2627 19.0121 41.2627 19.1733 41.2627 19.289C42.5825 19.6232 43.9068 19.9616 45.2337 20.2897C45.3685 20.323 45.5187 20.2941 45.6419 20.2395C44.3093 19.8907 42.9767 19.5418 41.644 19.1929C41.6117 19.1418 41.5794 19.0906 41.5471 19.0395C41.7942 18.8335 42.0323 18.6152 42.2932 18.4285C42.3815 18.3653 42.5362 18.3429 42.6451 18.3682C43.4139 18.5467 44.1787 18.7424 44.9448 18.9327C44.9569 18.8896 44.969 18.8465 44.9811 18.8033C44.3465 18.6273 43.7096 18.4589 43.0791 18.2692C42.9477 18.2296 42.8401 18.1114 42.7215 18.0294C42.8751 17.9647 43.0429 17.8236 43.1796 17.849C43.6486 17.9361 44.1047 18.0906 44.5703 18.2001C44.7366 18.2392 44.916 18.2234 45.095 18.1204C44.4551 17.977 43.8152 17.8335 43.1287 17.6796C43.5131 17.1206 43.8771 16.61 44.6682 16.8053C44.5268 16.7315 44.3854 16.6577 44.1671 16.5438C44.584 16.1805 44.9449 15.8661 45.3864 15.4813C45.479 15.9261 45.5594 16.3118 45.6543 16.7679C46.006 16.1374 45.3833 15.6131 45.5252 15.0179C45.2786 15.2347 45.032 15.4515 44.7854 15.6684C44.7295 15.6273 44.6736 15.5862 44.6178 15.5452C44.8102 15.2444 44.9814 14.9253 45.214 14.6595C45.2569 14.6105 45.5479 14.7774 45.8216 14.8817C45.8026 14.8983 45.9073 14.8066 46.0231 14.6784C46.0341 14.6418 46.0306 14.6508 46.0306 14.6508ZM47.1346 14.8991C47.3494 15.7166 47.5642 16.5342 47.7564 17.2656C47.9326 17.0697 47.5555 14.9935 47.0266 14.2271C47.0733 14.4877 47.1019 14.6474 47.1346 14.8991ZM45.0444 19.5987C45.1248 19.6319 45.2083 19.6961 45.2844 19.6882C45.343 19.6822 45.3921 19.5856 45.4305 19.545C44.4574 19.2928 43.5021 19.0451 42.5467 18.7974C42.5345 18.8444 42.5224 18.8915 42.5102 18.9385C43.3251 19.1578 44.14 19.3771 45.0444 19.5987ZM46.4458 16.9235C46.3658 16.383 46.2858 15.8425 46.2058 15.302C46.1519 15.3116 46.098 15.3212 46.0441 15.3308C46.133 15.8931 46.222 16.4554 46.3111 17.0188C46.2689 17.0425 46.3235 17.0119 46.4458 16.9235ZM45.3396 18.7919C45.2884 18.774 45.2375 18.7548 45.185 18.7417C45.1823 18.741 45.1668 18.7907 45.1572 18.8169C45.1953 18.8272 45.2334 18.8375 45.3396 18.7919ZM45.0885 18.9366C45.0802 18.9618 45.0719 18.9869 45.0636 19.0121C45.088 19.0039 45.1124 18.9957 45.0885 18.9366Z" fill="white"/>
<path d="M31.374 7.88353C31.3771 8.01406 31.4345 8.22078 31.3747 8.26326C30.8113 8.6635 30.326 9.11827 30.0859 9.78805C30.0706 9.83071 30.0014 9.85412 29.9333 9.90398C29.8497 9.60986 29.77 9.32959 29.669 8.97443C29.3986 9.47155 30.0584 10.0711 29.3815 10.4388C29.2628 9.88323 29.1465 9.33903 29.0175 8.73512C28.9764 8.85811 28.8908 8.97967 28.9088 9.08328C28.9818 9.5021 29.1069 9.91229 29.1712 10.332C29.2032 10.5413 29.1453 10.7642 29.1281 10.9809C29.0569 10.9843 28.9856 10.9877 28.9143 10.9912C28.71 10.2217 28.5056 9.45224 28.2913 8.64528C28.1837 8.74254 28.0692 8.84596 28.0074 8.90183C28.1377 9.14115 28.2703 9.3201 28.3371 9.52082C28.471 9.92262 28.5737 10.3351 28.6804 10.7454C28.83 11.321 28.6475 11.4943 28.0547 11.3423C27.6685 11.2433 27.1937 11.3395 26.975 10.8635C26.3458 11.0978 25.8459 10.6074 25.2613 10.5518C24.792 10.5072 24.3371 10.3121 23.8447 10.1751C23.9627 9.90836 24.0601 9.70024 24.4618 9.87928C24.8288 10.0429 25.2416 10.1087 25.6385 10.1986C25.7755 10.2297 25.9255 10.2036 26.0702 10.1016C25.4864 9.95857 24.9027 9.81557 24.2871 9.66477C24.7378 8.84702 25.473 9.89108 25.9804 9.3903C25.5361 9.30665 25.1395 9.23197 24.7428 9.15729C24.7378 9.09458 24.7329 9.03186 24.7279 8.96915C25.0604 8.89916 25.3929 8.82918 25.7254 8.7592C25.7214 8.73133 25.7173 8.70347 25.7132 8.6756C25.574 8.6756 25.4347 8.6756 25.1116 8.6756C25.7205 7.98123 26.2431 7.38537 26.7007 6.86357C27.0648 7.12602 27.383 7.35531 27.7347 7.60879C27.7352 7.60724 27.7734 7.50122 27.8109 7.39728C27.5942 7.19245 27.3123 6.92597 27.0194 6.64909C27.4374 6.14516 27.8416 5.65805 28.2825 5.12659C28.3483 5.33299 28.4002 5.49563 28.452 5.65827C28.4925 5.65413 28.5329 5.64999 28.5734 5.64585C28.5734 5.30772 28.5734 4.96959 28.5734 4.63145C28.6537 4.62193 28.7341 4.61241 28.8144 4.60289C28.9178 5.1436 29.0212 5.68431 29.1451 6.3323C29.1866 6.07813 29.2637 5.87675 29.2408 5.68742C29.2006 5.35599 29.1573 5.00222 29.0085 4.71238C28.8232 4.35157 29.0064 4.22479 29.3144 4.02605C29.5022 4.81791 29.6802 5.5685 29.881 6.41524C29.9204 6.19578 30.0093 6.01137 29.971 5.85869C29.8337 5.31157 29.6277 4.78107 29.502 4.23191C29.451 4.00864 29.5393 3.75365 29.5642 3.51308C29.6433 3.50962 29.7224 3.50615 29.8015 3.50269C30.0557 4.51246 30.3099 5.52224 30.5693 6.55299C30.9688 6.15514 31.4968 5.71688 31.9152 5.19176C32.5028 4.45427 33.1382 4.2367 34.0077 4.67341C34.3418 4.84119 34.7406 4.88065 35.2429 5.01384C34.3325 5.61165 33.6192 4.78746 32.8588 5.00892C33.351 5.14703 33.8433 5.28513 34.3355 5.42324C34.3315 5.48212 34.3276 5.541 34.3236 5.59987C33.8855 5.59987 33.4473 5.59987 33.0092 5.59987C33.0061 5.63339 33.0031 5.66691 33.0001 5.70043C33.2208 5.75958 33.4415 5.81872 33.7169 5.89254C33.3036 6.28534 32.9216 6.63239 32.5593 6.99879C32.3447 7.21583 32.1774 7.48054 31.9561 7.68941C31.8579 7.78216 31.6789 7.78989 31.4829 7.78231C31.3866 7.62884 31.344 7.52929 31.2815 7.38338C31.1299 7.54834 31.0094 7.67936 30.8812 7.81893C31.0813 7.84516 31.2276 7.86434 31.374 7.88353ZM27.923 10.6822C27.9828 10.7759 28.0427 10.8695 28.1026 10.9631C28.1418 10.9287 28.181 10.8942 28.2203 10.8597C28.1197 10.5411 28.019 10.2225 27.9067 9.86668C27.7868 9.99611 27.7175 10.071 27.7325 10.0547C27.8221 10.3048 27.8735 10.4484 27.923 10.6822ZM26.7577 7.64265C26.8045 7.60917 26.8512 7.5757 26.898 7.54222C26.8342 7.55081 26.7704 7.55939 26.7577 7.64265ZM27.6716 6.70958C27.7165 6.68061 27.7613 6.65164 27.8061 6.62267C27.7433 6.62851 27.6806 6.63434 27.6716 6.70958ZM28.6388 5.82845C28.6473 5.80419 28.6558 5.77993 28.6643 5.75567C28.6389 5.7637 28.6136 5.77174 28.6388 5.82845Z" fill="white"/>
<path d="M24.2906 13.7587C24.9134 13.9131 25.488 14.0651 26.0627 14.2172C26.0542 14.2784 26.0457 14.3397 26.0373 14.401C25.2807 14.8174 24.5716 14.0343 23.809 14.2491C24.4026 14.4106 24.9961 14.5721 25.5774 14.7302C25.2956 15.4279 24.8085 15.7501 24.0876 15.7192C24.2603 15.7367 24.433 15.7541 24.5448 15.7654C24.188 16.1131 23.8273 16.4645 23.4331 16.8487C23.3693 16.4728 23.3055 16.0967 23.2416 15.7206C23.2033 15.7186 23.1649 15.7166 23.1266 15.7146C23.1266 15.8732 23.0934 16.0404 23.132 16.1891C23.4031 17.2333 23.397 17.263 22.47 17.9699C22.2401 17.0977 22.0152 16.2442 21.7903 15.3908C21.755 15.3924 21.7197 15.394 21.6845 15.3957C21.7054 15.5909 21.7015 15.7929 21.7519 15.9803C21.9122 16.577 22.0977 17.1669 22.264 17.762C22.4508 18.4304 21.8106 18.5716 21.4853 19.0616C21.1178 17.7164 20.7831 16.491 20.4483 15.2655C20.399 15.2773 20.3497 15.2891 20.3004 15.3009C20.4362 15.8219 20.565 16.3449 20.7096 16.8635C20.8991 17.543 21.1204 18.2145 21.2823 18.9003C21.3175 19.0494 21.1909 19.2673 21.0831 19.4123C20.9211 19.6301 20.7099 19.8116 20.4702 20.0598C20.0404 18.5253 19.6164 17.0485 19.2264 15.5628C19.187 15.4128 19.3533 15.2091 19.4241 15.0303C19.477 15.0473 19.53 15.0644 19.583 15.0814C19.9459 16.4278 20.3087 17.7743 20.6716 19.1207C20.7134 19.1133 20.7552 19.1058 20.797 19.0984C20.7433 18.8146 20.7069 18.5261 20.6327 18.2477C20.3736 17.2748 20.0846 16.3094 19.8488 15.3311C19.8021 15.1375 19.8718 14.8356 20.0053 14.6927C20.6585 13.9932 21.3514 13.3307 21.8996 12.6157C21.8996 12.4868 21.8451 12.3127 21.9087 12.2363C22.256 11.8188 22.6234 11.4166 23.0054 11.0302C23.0908 10.9439 23.2784 10.8812 23.3917 10.9109C24.897 11.3055 26.3975 11.7186 27.9017 12.1277C27.4703 13.0103 27.1621 13.0886 25.9202 12.7092C25.0913 12.456 24.2516 12.2375 23.4145 12.0118C23.3708 12 23.3059 12.0662 23.1592 12.1459C24.4771 12.4933 25.6971 12.8149 26.9162 13.1363C26.7974 13.7744 26.29 14.1104 25.7351 13.9432C25.1422 13.7646 24.546 13.5955 23.9464 13.441C23.8378 13.413 23.7057 13.4754 23.5969 13.5913C23.812 13.6463 24.0272 13.7013 24.2906 13.7587ZM22.348 15.6367C22.3645 15.6749 22.381 15.7132 22.4056 15.8419C22.5059 16.245 22.6061 16.648 22.7064 17.051C22.7723 17.0307 22.8382 17.0104 22.9041 16.9901C22.7339 16.5363 22.5636 16.0824 22.348 15.6367ZM24.3549 11.6653C23.4333 11.333 23.2493 11.3138 23.0896 11.4927C24.4836 11.8557 25.8999 12.2245 27.3161 12.5933C27.3285 12.5456 27.341 12.4978 27.3534 12.4501C26.385 12.1899 25.4166 11.9298 24.3549 11.6653ZM21.0819 15.8938C21.2871 16.6202 21.4923 17.3467 21.6974 18.0732C21.744 18.06 21.7905 18.0468 21.837 18.0336C21.5922 17.0809 21.3474 16.1281 21.1026 15.1754C21.0624 15.1808 21.0222 15.1862 20.9821 15.1916C21.0152 15.394 21.0483 15.5963 21.0819 15.8938ZM24.3104 12.8846C24.0162 12.8463 23.722 12.808 23.4278 12.7698C23.4248 12.8018 23.4217 12.8339 23.4187 12.866C24.3824 13.1135 25.3461 13.3609 26.3097 13.6083C26.321 13.5608 26.3322 13.5132 26.3434 13.4657C25.6926 13.2882 25.0418 13.1107 24.3104 12.8846ZM23.5697 14.4751C23.2099 14.244 22.8502 14.0129 22.4687 13.7678C22.4659 13.7708 22.3953 13.8446 22.3625 13.879C22.6948 14.2293 22.9989 14.5499 23.3198 14.8881C23.4139 14.7846 23.5232 14.6645 23.5697 14.4751ZM21.8678 14.4426C22.0189 14.3387 22.17 14.2347 22.3211 14.1308C22.2714 14.0789 22.2217 14.0269 22.1721 13.975C22.0665 14.0966 21.961 14.2181 21.8678 14.4426ZM24.7413 14.9778C24.5802 14.9443 24.419 14.9109 24.2579 14.8774C24.2505 14.9338 24.2432 14.9903 24.2358 15.0467C24.4218 15.0467 24.6078 15.0467 24.7413 14.9778ZM22.6024 14.7185C22.5511 14.7006 22.5002 14.6815 22.4478 14.6683C22.445 14.6676 22.4295 14.7174 22.4199 14.7436C22.4581 14.7539 22.4962 14.7641 22.6024 14.7185ZM23.3138 13.7953C23.365 13.8132 23.4159 13.8323 23.4684 13.8454C23.4711 13.8461 23.4867 13.7964 23.4962 13.7702C23.4581 13.7599 23.42 13.7497 23.3138 13.7953ZM21.1285 14.3582C21.1753 14.3247 21.222 14.2913 21.2688 14.2578C21.205 14.2664 21.1412 14.275 21.1285 14.3582ZM22.0521 13.3032C22.0437 13.3372 22.0353 13.3711 22.0269 13.405C22.0699 13.4018 22.1129 13.3986 22.1559 13.3954C22.1499 13.3548 22.144 13.3142 22.0521 13.3032ZM24.0687 14.8101C24.0929 14.8191 24.1171 14.8281 24.1413 14.8371C24.1338 14.8118 24.1263 14.7865 24.0687 14.8101ZM20.3082 15.1378C20.2829 15.1296 20.2577 15.1213 20.2325 15.113C20.2407 15.1373 20.249 15.1617 20.3082 15.1378Z" fill="white"/>
<path d="M6.17479 2.9805C6.29954 3.11724 6.48827 3.2342 6.53799 3.39414C6.75665 4.09749 6.93516 4.81325 7.25729 5.50144C7.01921 4.51203 6.78113 3.52262 6.55157 2.56861C6.15604 2.49005 5.73512 2.40645 5.31419 2.32285C5.31163 2.25357 5.30907 2.18429 5.30651 2.11501C5.62324 2.07166 5.93996 2.02831 6.26377 1.98399C6.21971 1.93179 6.14416 1.84226 6.06703 1.75087C6.74248 1.35236 7.29599 1.54318 7.5175 2.26948C7.821 3.26458 8.11988 4.26258 8.36237 5.27327C8.40346 5.44453 8.15129 5.68579 8.02931 5.9042C7.73006 4.77823 7.46213 3.77016 7.19421 2.76209C7.14634 2.77418 7.09846 2.78628 7.05059 2.79838C7.24996 3.57908 7.42157 4.36839 7.66114 5.13662C7.77058 5.48757 7.70805 5.71211 7.45623 5.94871C7.12217 6.26258 6.81133 6.60106 6.46337 6.9567C6.17147 6.64643 5.89798 6.35572 5.56805 6.005C5.5137 6.05939 5.41399 6.15919 5.2943 6.27897C6.25767 6.7529 6.3004 7.03175 5.6403 7.78036C5.67748 7.9341 5.76981 8.09153 5.72455 8.17011C5.57871 8.42329 5.43118 8.69913 5.02892 8.57856C4.31677 8.36509 3.59443 8.18565 2.87822 7.98536C2.58868 7.90439 2.30554 7.80092 2.0168 7.71687C1.58742 7.59189 1.19026 6.94204 1.46712 6.75197C1.87245 6.47372 1.7092 6.00279 2.10965 5.66602C2.20067 6.08053 2.27517 6.41981 2.34823 6.75254C3.29194 6.98941 4.29024 7.23998 5.28854 7.49055C5.30026 7.43778 5.31198 7.38501 5.3237 7.33225C4.53154 7.12663 3.73793 6.92622 2.94946 6.7074C2.87033 6.68543 2.82234 6.55186 2.75968 6.42772C2.75946 6.38535 2.75146 6.3931 2.79534 6.38927C3.0171 6.38001 3.2012 6.34235 3.3717 6.3751C3.90345 6.47727 4.43005 6.60607 4.96337 6.7471C5.00575 6.75612 5.04341 6.7426 5.07443 6.67609C4.51168 6.47086 3.95362 6.32513 3.4017 6.15909C3.32215 6.13515 3.27214 6.01355 3.20461 5.94142C3.20077 5.9457 3.19325 5.9544 3.23555 5.9403C3.28974 5.85579 3.30163 5.78538 3.30975 5.72076C3.30598 5.72656 3.29639 5.73653 3.29639 5.73653C3.46485 5.64496 3.63331 5.55339 3.81643 5.45385C3.27657 5.20785 3.26203 4.74814 3.33996 4.37712C3.39781 4.10169 3.67326 3.80991 3.93037 3.65613C4.16586 3.51527 4.50668 3.54959 4.90698 3.4913C4.57506 3.39693 4.32854 3.32684 4.0716 3.25379C4.40466 2.82703 5.44813 2.94324 5.7775 3.42955C5.86493 3.33288 5.94984 3.23899 5.99835 3.11125C5.96194 3.07738 5.9503 3.08496 5.98189 3.11766C6.07244 3.08858 6.1314 3.02678 6.18634 2.96875C6.18232 2.9725 6.17479 2.9805 6.17479 2.9805ZM5.09252 3.96375C4.76822 3.99961 4.44392 4.03547 4.11961 4.07133C4.12376 4.09957 4.12791 4.12781 4.13206 4.15604C4.30057 4.17829 4.46908 4.20055 4.63759 4.2228C4.6826 4.28727 4.72761 4.35173 4.77262 4.4162C4.42208 4.65995 4.07154 4.90371 3.721 5.14746C3.76184 5.19109 3.80268 5.23472 3.84353 5.27834C4.16106 5.29553 4.47859 5.31273 4.79612 5.32992C4.79546 5.28622 4.79481 5.24251 4.79415 5.19881C4.62924 5.17398 4.46432 5.14916 4.2994 5.12433C4.26642 5.06981 4.23345 5.01529 4.20047 4.96077C4.55694 4.65088 4.91342 4.34099 5.33187 3.98515C5.46811 4.38233 5.60435 4.77951 5.74059 5.17669C5.7715 5.17792 5.80241 5.17915 5.83332 5.18037C5.74281 4.62005 5.6523 4.05973 5.54188 3.37614C5.39077 3.6171 5.28487 3.78597 5.09252 3.96375ZM4.11727 7.8208C4.58088 7.95633 5.03533 8.18481 5.52094 8.01156C4.53846 7.7678 3.55597 7.52404 2.57348 7.28029C2.56389 7.33105 2.5543 7.3818 2.54471 7.43256C3.03773 7.56065 3.53074 7.68874 4.11727 7.8208ZM6.17777 4.27199C6.25504 4.64289 6.33231 5.0138 6.40957 5.3847C6.45806 5.37342 6.50655 5.36214 6.55504 5.35087C6.43133 4.82335 6.30762 4.29584 6.18391 3.76833C6.14147 3.77614 6.09903 3.78396 6.0566 3.79177C6.08291 3.92494 6.10922 4.05811 6.17777 4.27199ZM4.90743 6.04807C4.9315 5.98855 4.95556 5.92903 4.97963 5.86951C4.68446 5.83694 4.38929 5.80437 4.09412 5.77181C4.08664 5.81603 4.07916 5.86025 4.07168 5.90447C4.31724 5.95448 4.5628 6.0045 4.90743 6.04807ZM7.08689 2.10964C7.09528 2.07571 7.10367 2.04178 7.11207 2.00785C7.06908 2.01105 7.0261 2.01426 6.98311 2.01747C6.98907 2.05809 6.99503 2.09872 7.08689 2.10964ZM5.40545 7.12486C5.45501 7.13758 5.50415 7.1538 5.55451 7.15972C5.56331 7.16075 5.57722 7.11846 5.58877 7.09617C5.54582 7.08217 5.50288 7.06817 5.40545 7.12486ZM6.46144 6.26633C6.46849 6.22595 6.47553 6.18557 6.48258 6.14518C6.44096 6.15192 6.39543 6.15128 6.36013 6.16991C6.34954 6.1755 6.36749 6.23487 6.46144 6.26633Z" fill="white"/>
<path d="M42.8668 20.9989C43.6264 21.2057 44.3461 21.3879 45.0657 21.5701C45.0491 21.6413 45.0325 21.7125 45.0159 21.7837C44.073 22.0864 43.2601 21.3397 42.3804 21.3705C42.3804 21.4987 42.4333 21.6698 42.372 21.7365C41.854 22.3002 41.3151 22.8448 40.7403 23.4387C40.4959 22.5935 40.2749 21.8519 40.0744 21.1048C40.0515 21.0197 40.162 20.9066 40.1772 20.8016C40.1939 20.6865 40.1963 20.47 40.1631 20.4616C39.4833 20.2888 39.8889 19.6606 39.5479 19.3096C40.0534 19.2908 40.2719 19.6668 40.2539 20.2837C41.117 20.5154 41.9719 20.7448 42.8668 20.9989ZM40.8779 21.794C41.0538 21.8435 41.2297 21.893 41.4876 21.9656C41.5003 21.9516 41.5986 21.8438 41.7142 21.717C41.3279 21.6229 40.9869 21.5398 40.6458 21.4567C40.6302 21.4913 40.6145 21.526 40.5989 21.5607C40.6632 21.6382 40.7275 21.7156 40.8779 21.794Z" fill="white"/>
<path d="M17.3612 21.3235C17.4706 21.6689 17.551 21.9772 17.6346 22.2845C17.7238 22.612 17.6646 22.8484 17.2813 22.8894C17.0296 21.8591 16.7789 20.8329 16.541 19.8591C15.8549 19.6981 15.0992 19.5207 14.2388 19.3187C15.0064 18.7263 15.6727 19.3902 16.3407 19.2194C15.9756 19.1201 15.6104 19.0209 15.2346 18.9188C15.5324 18.495 15.8958 18.6226 16.2682 18.7122C17.0193 18.8929 17.5902 19.1897 17.68 20.093C17.7404 20.7005 17.9832 21.2898 18.1427 21.8877C18.1701 21.9901 18.2276 22.1056 18.2022 22.1956C18.1703 22.3087 18.0673 22.4018 17.995 22.5035C17.9259 22.4312 17.8177 22.3698 17.7939 22.2849C17.5905 21.5565 17.4024 20.8238 17.0837 20.1169C17.167 20.5066 17.2503 20.8963 17.3612 21.3235Z" fill="white"/>
<path d="M22.0732 5.52727C22.1629 5.9706 22.2509 6.36756 22.3419 6.77761C22.8899 6.96202 23.6241 6.8143 23.9304 7.60257C23.4825 7.49761 23.0346 7.39266 22.5868 7.2877C22.5772 7.33668 22.5677 7.38565 22.5582 7.43463C22.9461 7.5377 23.3339 7.64078 23.7218 7.74386C23.7343 7.7813 23.7469 7.81873 23.7594 7.85617C23.5987 7.91632 23.4262 8.048 23.2796 8.02381C22.7389 7.93464 22.1995 7.81739 21.6768 7.65554C21.5502 7.61635 21.4515 7.37659 21.4044 7.21085C21.0633 6.00844 20.7387 4.80135 20.4089 3.59574C20.446 3.55707 20.4831 3.5184 20.5203 3.47974C20.6451 3.59466 20.8383 3.68761 20.8837 3.82807C21.1752 4.73049 21.4343 5.64332 21.8099 6.53792C21.636 5.8091 21.4621 5.08028 21.2882 4.35147C21.3469 4.32517 21.4055 4.29888 21.4641 4.27259C21.6666 4.67536 21.8691 5.07814 22.0732 5.52727Z" fill="white"/>
<path d="M0.350586 9.74923C0.538671 9.59122 0.709835 9.47856 0.822841 9.40417C0.754293 9.33797 0.616607 9.20498 0.478921 9.072C0.519031 8.99742 0.559141 8.92284 0.599252 8.84827C2.02661 9.22869 3.45397 9.60912 5.00132 10.0215C4.44993 10.6048 4.02323 10.1554 3.62271 10.1114C3.17478 10.0621 2.74129 9.88224 2.27119 9.84881C2.35461 9.88609 2.43802 9.92336 2.46038 9.93336C1.88366 10.511 1.2881 11.1075 0.67691 11.7197C0.570315 11.1218 0.45199 10.4582 0.350586 9.74923ZM0.806827 9.91281C0.752947 10.0017 0.699067 10.0907 0.645187 10.1796C1.02474 9.95029 1.35863 10.7151 1.71315 10.1851C1.39611 10.1011 1.14029 10.0333 0.806827 9.91281Z" fill="white"/>
<path d="M17.3631 18.1779C17.1154 18.1225 16.9083 18.0782 16.6925 18.032C17.0961 17.5613 17.7684 17.8486 18.191 18.1328C18.7746 18.5251 18.5935 19.0868 18.8191 19.5348C19.068 20.029 19.1458 20.6127 19.2695 21.1638C19.3144 21.3636 19.2767 21.5819 19.2767 21.7917C19.1843 21.8069 19.0919 21.8221 18.9995 21.8373C18.7339 20.9163 18.4683 19.9953 18.2027 19.0743C18.1581 19.0862 18.1135 19.0982 18.0688 19.1102C18.2109 19.6428 18.4137 20.1684 18.477 20.7101C18.5343 21.1999 19.1152 21.7125 18.4472 22.2972C18.1274 21.086 17.8274 19.9501 17.5365 18.8482C17.1 18.7457 16.5947 18.6271 16.0894 18.5085C16.098 18.4294 16.1067 18.3504 16.1154 18.2713C16.3655 18.2713 16.6162 18.2815 16.8656 18.2679C17.0459 18.258 17.2245 18.2164 17.3631 18.1779Z" fill="white"/>
<path d="M9.38203 4.29727C9.40912 4.61391 9.43595 4.88401 9.46277 5.15412C9.36759 5.17313 9.27241 5.19214 9.17722 5.21116C8.85544 4.05779 8.53366 2.90443 8.21188 1.75106C8.16644 1.76279 8.121 1.77451 8.07555 1.78624C8.3826 2.96858 8.68964 4.15092 8.99669 5.33327C8.94802 5.36992 8.89936 5.40658 8.85069 5.44323C8.73357 5.36565 8.54107 5.31003 8.51095 5.20712C8.19867 4.14011 7.90862 3.06652 7.62409 1.99168C7.58808 1.85564 7.61916 1.70193 7.61916 1.56801C7.35666 1.52236 7.11386 1.48014 6.87105 1.43791C6.86276 1.37379 6.85448 1.30966 6.84619 1.24554C7.37454 1.11345 7.9029 0.981351 8.44107 0.846802C8.76179 2.00735 9.07178 3.12904 9.38203 4.29727Z" fill="white"/>
<path d="M4.61187 9.24954C4.78931 9.30331 4.92066 9.35552 5.0764 9.41742C5.00265 9.7434 4.89679 9.8273 4.50289 9.70853C3.23628 9.32659 1.94544 9.02455 0.652832 8.6888C1.09494 7.87871 1.39044 7.73537 2.15369 7.94772C3.14091 8.22239 4.12619 8.50401 5.11172 8.78467C5.17623 8.80304 5.2358 8.83869 5.31727 8.87505C5.2562 8.99793 5.20217 9.10667 5.1412 9.22935C3.93765 8.91714 2.73161 8.60428 1.52557 8.29142C1.51372 8.33879 1.50188 8.38615 1.49003 8.43352C2.51528 8.705 3.54053 8.97649 4.61187 9.24954Z" fill="white"/>
<path d="M48.4228 11.5309C48.8275 11.7808 49.0626 12.1114 49.1362 12.6213C49.2238 13.2283 49.4731 13.8104 49.5981 14.4145C49.6626 14.7259 49.6095 15.0615 49.6095 15.3861C49.5438 15.395 49.4782 15.4038 49.4125 15.4127C49.1167 14.2986 48.8208 13.1845 48.538 12.1195C47.5731 11.8433 46.5717 11.5612 45.5758 11.2609C45.5127 11.2418 45.4927 11.0807 45.3945 10.8481C46.452 11.1024 47.4016 11.3308 48.3934 11.5517C48.4355 11.5443 48.4274 11.535 48.4228 11.5309Z" fill="white"/>
<path d="M17.6838 17.1746C17.8649 17.2113 17.9992 17.2566 18.1372 17.2831C18.685 17.388 18.9783 17.7047 19.1071 18.2572C19.3072 19.1155 19.5676 19.9601 19.8152 20.8069C19.9065 21.1192 19.9103 21.3497 19.4772 21.3594C19.1755 20.1961 18.8747 19.036 18.5678 17.8524C18.1694 17.7577 17.7033 17.6469 17.0918 17.5015C17.359 17.3417 17.4988 17.2581 17.6838 17.1746Z" fill="white"/>
<path d="M25.5177 11.3375C24.7943 11.1327 24.1175 10.9296 23.25 10.6693C23.5275 10.5301 23.7305 10.3346 23.8719 10.3718C25.3715 10.7661 26.8614 11.1974 28.3865 11.6277C28.2448 11.8889 28.1336 12.0253 27.772 11.9066C27.0517 11.6702 26.3019 11.5232 25.5177 11.3375Z" fill="white"/>
<path d="M18.9822 16.9615C18.8482 16.492 18.5891 16.0717 19.0186 15.4934C19.2134 16.1656 19.3833 16.7209 19.5345 17.2812C19.7638 18.1309 19.9933 18.9811 20.1923 19.8381C20.2392 20.04 20.1649 20.27 20.1463 20.487C20.0725 20.4869 19.9988 20.4867 19.925 20.4866C19.6115 19.3271 19.298 18.1677 18.9822 16.9615Z" fill="white"/>
<path d="M44.3242 22.0956C44.0265 22.1844 43.7512 22.2593 43.4723 22.2759C43.2955 22.2864 43.1134 22.2102 42.899 22.2598C43.0962 22.3445 43.2934 22.4293 43.6148 22.5674C43.157 22.7711 42.7991 22.9304 42.4343 23.0927C42.4018 23.0093 42.3722 22.9332 42.3582 22.8973C41.9271 23.1459 41.4939 23.3957 41.0607 23.6455C41.0275 23.5983 40.9944 23.5511 40.9612 23.5039C41.5327 22.9317 42.0964 22.3513 42.684 21.7961C42.7742 21.7108 42.9842 21.6968 43.122 21.7268C43.5341 21.8163 43.9379 21.944 44.3242 22.0956Z" fill="white"/>
<path d="M9.13431 0.924151C9.4539 2.10822 9.72063 3.26138 10.0639 4.39138C10.1718 4.74639 10.1338 4.87967 9.75022 4.95875C9.37954 3.62469 9.00226 2.29053 8.64849 0.950195C8.6193 0.83959 8.74961 0.687104 8.8058 0.554077C8.90755 0.66415 9.0093 0.774223 9.13431 0.924151Z" fill="white"/>
<path d="M31.935 16.4227C31.5161 16.8349 31.1278 17.22 30.6111 17.7326C30.7469 16.8574 30.1967 16.3001 30.1204 15.3914C30.4185 15.6425 30.6064 15.8008 30.8614 16.0155C30.9704 16.0057 31.3096 15.7318 31.3321 16.2441C31.59 16.1359 31.8762 16.016 32.1623 15.8961C32.195 15.9466 32.2278 15.9971 32.2605 16.0477C32.1622 16.1637 32.0639 16.2797 31.935 16.4227Z" fill="white"/>
<path d="M18.1809 5.6965C18.3723 5.81804 18.5683 5.94371 18.7776 6.10495C18.791 6.14052 18.8001 6.13235 18.8001 6.13235C18.0923 6.46487 17.4606 6.0288 16.8168 5.88825C16.2524 5.76502 15.7348 5.42873 15.1951 5.13957C15.2091 5.08012 15.2245 5.06765 15.2398 5.05518C16.0911 5.26509 16.942 5.47623 17.7939 5.68333C17.8962 5.7082 18.0039 5.71114 18.1514 5.71705C18.1936 5.70986 18.1854 5.70063 18.1809 5.6965Z" fill="white"/>
<path d="M2.76364 6.3815C2.50141 6.4584 2.434 6.30202 2.38881 6.08373C2.31485 5.72638 2.0726 5.35338 2.56568 5.02938C2.62865 5.2087 2.68287 5.36308 2.73709 5.51746C2.77978 5.51005 2.82246 5.50265 2.86515 5.49525C2.86515 5.13375 2.86515 4.77226 2.86515 4.41076C2.93163 4.40336 2.99812 4.39595 3.0646 4.38855C3.14647 4.80644 3.22835 5.22433 3.30337 5.68936C3.29652 5.7365 3.30611 5.72653 3.27393 5.73236C3.22562 5.81025 3.2095 5.88231 3.19338 5.95437C3.19338 5.95437 3.20091 5.94567 3.16461 5.94517C3.00274 6.09413 2.87717 6.2436 2.75159 6.39307C2.75159 6.39307 2.75959 6.38533 2.76364 6.3815Z" fill="white"/>
<path d="M18.787 6.1451C18.8451 6.1764 18.9511 6.19055 18.963 6.23177C19.2154 7.10393 19.4571 7.97914 19.7277 8.94966C19.0108 8.42444 18.5171 6.91393 18.7793 6.17856C18.8002 6.13239 18.7911 6.14055 18.787 6.1451Z" fill="white"/>
<path d="M23.1209 6.29367C23.2875 6.45324 23.4135 6.59678 23.5683 6.77307C22.5253 6.84491 22.3057 6.17466 22.2395 5.18945C22.5329 5.53301 22.9669 5.67285 22.8242 6.19003C22.8227 6.1954 22.9911 6.2474 23.1209 6.29367Z" fill="white"/>
<path d="M18.8451 17.1041C18.5045 17.1373 18.1395 17.1321 17.7744 17.1269C17.775 17.0719 17.7757 17.0168 17.7763 16.9618C18.0129 16.7112 18.2494 16.4606 18.532 16.1613C18.635 16.484 18.7278 16.7748 18.8451 17.1041Z" fill="white"/>
<path d="M5.967 3.07249C5.53002 2.97805 5.08805 2.88842 4.59229 2.78788C5.0535 2.36571 5.97445 2.46669 6.17768 2.93393C6.17486 2.98043 6.18239 2.97242 6.14868 2.97226C6.0601 3.00969 6.00524 3.04729 5.95038 3.08489C5.95038 3.08489 5.96201 3.07731 5.967 3.07249Z" fill="white"/>
<path d="M18.4699 6.72961C18.6033 7.1511 18.6946 7.56231 18.7859 7.97351C18.7614 7.98902 18.7369 8.00453 18.7124 8.02003C18.5393 7.66694 18.3662 7.31385 18.1932 6.96077C18.0885 7.04106 17.9838 7.12136 17.8792 7.20166C18.062 7.04089 18.2449 6.88011 18.4699 6.72961Z" fill="white"/>
<path d="M17.3469 6.56782C17.2103 6.4557 17.1011 6.37482 16.9919 6.29393C17.0039 6.24873 17.0158 6.20353 17.0278 6.15833C17.419 6.24641 17.8102 6.3345 18.2911 6.44277C18.0966 6.64997 17.9549 6.80087 17.7873 6.97944C17.6347 6.83891 17.5046 6.71897 17.3469 6.56782Z" fill="white"/>
<path d="M46.0389 14.6405C45.8855 14.6043 45.7274 14.5693 45.5693 14.5343C45.1799 14.4481 45.1799 14.4481 45.3044 14.0154C45.6015 14.1008 45.8985 14.1862 46.2846 14.2973C46.1374 14.4297 46.0487 14.5096 45.9954 14.6201C46.0308 14.6508 46.0342 14.6418 46.0389 14.6405Z" fill="white"/>
<path d="M15.1689 5.10895C15.1093 5.07689 15.0746 5.02849 15.0398 4.9801C15.0994 4.98456 15.1589 4.98901 15.2292 5.02433C15.2244 5.06767 15.2091 5.08014 15.1689 5.10895Z" fill="white"/>
<path d="M33.9605 3.33449C33.1329 3.10478 32.3432 2.90234 31.5535 2.69991C31.5682 2.64556 31.583 2.59121 31.5978 2.53687C32.9302 2.89023 34.2626 3.2436 35.5951 3.59697C35.5836 3.64399 35.5722 3.69101 35.5608 3.73804C35.04 3.61262 34.5192 3.4872 33.9605 3.33449Z" fill="black"/>
<path d="M44.6209 4.65055C44.4721 4.80916 44.3532 4.93823 44.1752 5.13148C44.437 5.16055 44.6072 5.17944 44.7774 5.19833C44.7757 5.24529 44.774 5.29224 44.7724 5.33919C44.4448 5.31791 44.1172 5.29663 43.7897 5.27536C43.7423 5.21595 43.695 5.15655 43.6477 5.09714C43.9866 4.83996 44.3255 4.58277 44.6645 4.32559C44.6365 4.28721 44.6086 4.24883 44.5807 4.21045C44.4094 4.19337 44.2381 4.17628 44.0668 4.1592C44.0695 4.10849 44.0723 4.05779 44.0751 4.00708C44.3993 4.03282 44.7234 4.05857 45.1605 4.09328C44.9604 4.30052 44.8056 4.46078 44.6209 4.65055Z" fill="black"/>
<path d="M32.8185 1.76024C32.7082 1.70616 32.6426 1.65315 32.5769 1.60013C32.586 1.57493 32.5951 1.54973 32.6042 1.52454C33.5524 1.77007 34.5005 2.01561 35.4344 2.25745C35.3617 2.32571 35.0175 2.28844 34.1941 2.09268C33.7493 1.98694 33.3066 1.87207 32.8185 1.76024Z" fill="black"/>
<path d="M42.1548 2.52359C42.2723 2.39187 42.3897 2.26014 42.5786 2.04834C42.8564 2.45591 43.1093 2.82682 43.3621 3.19774C43.4365 3.16447 43.5109 3.1312 43.5853 3.09793C43.4837 3.19397 43.382 3.29 43.3998 3.27327C42.9674 2.99965 42.627 2.78425 42.2392 2.56947C42.1795 2.55458 42.1671 2.53909 42.1548 2.52359Z" fill="black"/>
<path d="M45.9358 6.45929C46.1581 6.65418 46.3533 6.81861 46.5818 7.01116C46.5003 7.07665 46.3897 7.1656 46.3443 7.20204C46.0095 6.8978 45.6753 6.59407 45.3235 6.27434C45.357 6.24266 45.4818 6.12452 45.6089 6.00427C45.7166 6.15686 45.8126 6.29285 45.9358 6.45929Z" fill="black"/>
<path d="M43.2391 5.10712C43.1588 4.77256 43.1022 4.47878 43.0457 4.185C43.0927 4.17684 43.1398 4.16868 43.1869 4.16052C43.2916 4.594 43.3963 5.02748 43.501 5.46096C43.5732 5.47596 43.6454 5.49095 43.7175 5.50595C43.5881 5.61178 43.4587 5.71761 43.2629 5.8777C43.2629 5.57475 43.2629 5.36132 43.2391 5.10712Z" fill="black"/>
<path d="M45.4748 4.31465C45.3983 4.14095 45.3221 4.01454 45.2236 3.85111C45.2978 3.77155 45.4036 3.65818 45.5312 3.52136C45.6255 4.10434 45.7117 4.6375 45.7979 5.17067C45.7458 5.18007 45.6938 5.18948 45.6418 5.19888C45.5862 4.91991 45.5307 4.64093 45.4748 4.31465Z" fill="black"/>
<path d="M46.4286 5.35396C46.2629 4.86541 46.1305 4.3398 45.998 3.8142C46.0543 3.8013 46.1105 3.78841 46.1667 3.77551C46.2651 4.28931 46.3635 4.8031 46.4286 5.35396Z" fill="black"/>
<path d="M47.9933 10.0737C48.0707 10.3629 48.131 10.6112 48.1958 10.8789C48.0756 10.8789 47.9573 10.8789 47.9158 10.8789C47.8668 10.6101 47.8235 10.3729 47.7651 10.0523C47.753 10.0534 47.8645 10.0431 47.9933 10.0737Z" fill="black"/>
<path d="M42.3713 4.06897C42.549 4.55847 42.7267 5.04797 42.9043 5.53747C42.8426 5.55637 42.7809 5.57526 42.7192 5.59416C42.6073 5.15664 42.4955 4.71911 42.3855 4.20576C42.3821 4.10961 42.3767 4.08929 42.3713 4.06897Z" fill="black"/>
<path d="M44.1429 3.52277C44.0295 3.50349 43.9661 3.48433 43.9026 3.46518C43.9606 3.41135 44.026 3.3055 44.0753 3.31246C44.3258 3.34778 44.5722 3.41237 44.8035 3.57781C44.5999 3.5595 44.3963 3.5412 44.1429 3.52277Z" fill="black"/>
<path d="M44.2985 5.94533C44.2004 5.93935 44.1472 5.93372 44.094 5.9281C44.1408 5.87269 44.1923 5.76642 44.2335 5.77024C44.4732 5.79244 44.7104 5.84053 44.9484 5.87987C44.944 5.92932 44.9397 5.97877 44.9353 6.02822C44.738 6.00071 44.5407 5.9732 44.2985 5.94533Z" fill="black"/>
<path d="M31.2865 4.45194C31.0747 4.48671 30.8864 4.5035 30.7021 4.51992C30.7021 4.46052 30.7021 4.33964 30.7021 4.1698C30.9255 4.22362 31.1214 4.27082 31.3359 4.35628C31.3397 4.40768 31.3249 4.42082 31.2865 4.45194Z" fill="black"/>
<path d="M37.844 1.71419C37.4742 2.1033 37.5511 1.74202 37.4414 1.45886C37.6538 1.56393 37.7645 1.61866 37.844 1.71419Z" fill="black"/>
<path d="M46.8487 6.50782C46.9249 6.47567 46.9599 6.47441 46.9948 6.47314C46.9948 6.59616 46.9948 6.71917 46.9948 6.86515C46.8066 6.8078 46.4647 6.86884 46.8487 6.50782Z" fill="black"/>
<path d="M41.9747 2.8933C41.9983 2.77209 42.0219 2.65088 42.1002 2.52661C42.1672 2.53905 42.1795 2.55454 42.208 2.59496C42.1545 2.69647 42.0849 2.77306 41.9909 2.86775C41.9666 2.88585 41.9747 2.8933 41.9747 2.8933Z" fill="black"/>
<path d="M36.8147 0.767334C36.8943 0.812085 36.9368 0.886787 36.9792 0.961489C36.9207 0.972198 36.8622 0.982908 36.8037 0.993618C36.7949 0.928174 36.7861 0.86273 36.8147 0.767334Z" fill="black"/>
<path d="M47.5308 7.58062C47.6236 7.47075 47.6873 7.40578 47.751 7.34082C47.7858 7.39213 47.8205 7.44345 47.8553 7.49476C47.7374 7.53835 47.6195 7.58195 47.5308 7.58062Z" fill="black"/>
<path d="M41.0745 1.95845C41.0832 1.85311 41.1414 1.76809 41.2368 1.62866C41.2918 1.79013 41.3272 1.89419 41.3626 1.99825C41.2831 1.99176 41.2035 1.98527 41.0745 1.95845Z" fill="black"/>
<path d="M41.963 2.88173C41.9045 2.96771 41.8497 3.05778 41.7949 3.14786C41.7513 3.10272 41.7077 3.05759 41.6641 3.01245C41.7371 2.96331 41.8101 2.91416 41.929 2.87915C41.9748 2.89328 41.9667 2.88584 41.963 2.88173Z" fill="black"/>
<path d="M42.4569 3.1333C42.4576 3.20821 42.4263 3.25189 42.395 3.29557C42.405 3.23107 42.4151 3.16657 42.4569 3.1333Z" fill="black"/>
<path d="M41.0691 2.69727C41.1135 2.71701 41.1302 2.77036 41.1409 2.82489C41.1414 2.82781 41.0907 2.84069 41.0639 2.84893C41.056 2.80966 41.0481 2.77039 41.0691 2.69727Z" fill="black"/>
<path d="M43.4635 2.26834C43.3933 2.28969 43.3503 2.27569 43.3074 2.26169C43.3189 2.2394 43.3328 2.19711 43.3416 2.19814C43.392 2.20406 43.4411 2.22027 43.4635 2.26834Z" fill="black"/>
<path d="M42.0012 1.76727C42.0734 1.74961 42.1115 1.75987 42.1496 1.77014C42.14 1.79638 42.1245 1.84609 42.1217 1.84539C42.0693 1.83222 42.0184 1.81309 42.0012 1.76727Z" fill="black"/>
<path d="M36.7227 1.787C36.7748 1.75362 36.8169 1.76329 36.859 1.77296C36.8101 1.79199 36.7613 1.81102 36.7227 1.787Z" fill="black"/>
<path d="M35.44 1.26611C35.4843 1.28585 35.5011 1.3392 35.5117 1.39374C35.5123 1.39666 35.4616 1.40954 35.4347 1.41778C35.4269 1.37851 35.419 1.33924 35.44 1.26611Z" fill="black"/>
<path d="M46.8586 7.52697C46.8227 7.56751 46.76 7.57335 46.6973 7.57919C46.7421 7.55022 46.7869 7.52125 46.8586 7.52697Z" fill="black"/>
<path d="M45.4595 7.0531C45.5089 7.0862 45.5268 7.14558 45.5162 7.15116C45.4809 7.16979 45.4354 7.16914 45.3938 7.17588C45.4008 7.1355 45.4079 7.09512 45.4595 7.0531Z" fill="black"/>
<path d="M47.7681 6.67203C47.698 6.69338 47.655 6.67938 47.6121 6.66537C47.6236 6.64309 47.6375 6.60079 47.6463 6.60183C47.6967 6.60775 47.7458 6.62396 47.7681 6.67203Z" fill="black"/>
<path d="M46.3647 6.1506C46.4064 6.09901 46.4467 6.09174 46.487 6.08447C46.4807 6.12587 46.4819 6.17121 46.4635 6.20631C46.4579 6.217 46.3982 6.1995 46.3647 6.1506Z" fill="black"/>
<path d="M45.5586 8.81261C45.5512 8.83427 45.5136 8.8478 45.4712 8.83877C45.4871 8.81231 45.5076 8.80839 45.5586 8.81261Z" fill="black"/>
<path d="M42.3813 4.16086C42.3588 4.15355 42.3423 4.11529 42.3485 4.073C42.3765 4.08928 42.3819 4.1096 42.3813 4.16086Z" fill="black"/>
<path d="M45.0068 6.72093C44.9995 6.7426 44.9618 6.75612 44.9194 6.7471C44.9353 6.72063 44.9559 6.71671 45.0068 6.72093Z" fill="black"/>
<path d="M40.2112 3.55261C40.2447 3.55349 40.2524 3.57802 40.2602 3.60254C40.2353 3.59378 40.2104 3.58502 40.2112 3.55261Z" fill="black"/>
<path d="M35.1779 1.72811C35.1454 1.72724 35.1379 1.70194 35.1304 1.67664C35.1546 1.68565 35.1788 1.69466 35.1779 1.72811Z" fill="black"/>
<path d="M35.7297 3.8199C35.6971 3.81904 35.6896 3.79373 35.6821 3.76843C35.7063 3.77744 35.7305 3.78646 35.7297 3.8199Z" fill="black"/>
<path d="M34.6546 19.5963C34.284 19.5081 33.9604 19.4201 33.6367 19.3321C33.6459 19.2824 33.6551 19.2328 33.6643 19.1831C34.6148 19.4153 35.5652 19.6474 36.5173 19.88C36.7483 20.8208 36.9881 21.7974 37.2278 22.7739C37.1774 22.7845 37.127 22.7951 37.0766 22.8057C36.904 22.1609 36.6896 21.5237 36.571 20.8693C36.4625 20.2702 36.047 20.0267 35.5699 19.8316C35.2945 19.719 34.9918 19.6727 34.6546 19.5963Z" fill="black"/>
<path d="M37.8716 22.9035C37.6834 22.3209 37.4867 21.7408 37.3101 21.1547C37.2056 20.8074 37.1328 20.4507 37.0457 20.0982C37.093 20.0861 37.1403 20.0741 37.1877 20.062C37.4115 20.938 37.6354 21.8139 37.8574 22.7662C37.8609 22.8629 37.8662 22.8832 37.8716 22.9035Z" fill="black"/>
<path d="M33.8987 20.0217C33.9894 19.9829 34.1375 19.9087 34.2588 19.9396C34.8407 20.0874 35.4154 20.2636 36.0361 20.4422C35.9354 20.5567 35.8227 20.6848 35.7471 20.7709C35.603 20.6504 35.4997 20.5069 35.3631 20.4601C34.8963 20.3 34.4177 20.1738 33.8987 20.0217Z" fill="black"/>
<path d="M36.1802 21.7389C36.118 21.4949 36.076 21.292 36.0339 21.0891C36.0768 21.0819 36.1197 21.0747 36.1626 21.0675C36.2897 21.564 36.4168 22.0606 36.5439 22.5571C36.4836 22.5716 36.4232 22.586 36.3629 22.6005C36.3087 22.327 36.2545 22.0536 36.1802 21.7389Z" fill="black"/>
<path d="M35.7744 22.3531C35.6606 22.0602 35.5533 21.7645 35.4296 21.4757C35.3823 21.3653 35.2974 21.2708 35.2014 21.1268C35.2468 21.0766 35.3378 20.9759 35.4836 20.8145C35.5868 21.3052 35.6745 21.7222 35.7602 22.2157C35.7637 22.3125 35.7691 22.3328 35.7744 22.3531Z" fill="black"/>
<path d="M34.7199 22.5318C34.4206 22.5721 34.1386 22.5721 33.762 22.5721C33.9275 22.3937 34.0197 22.2944 34.0323 22.2808C34.3244 22.3681 34.5308 22.4298 34.7199 22.5318Z" fill="black"/>
<path d="M34.272 21.467C34.2814 21.3979 34.3424 21.2667 34.3871 21.272C34.596 21.2968 34.8004 21.3592 35.0427 21.4168C34.9561 21.5196 34.8688 21.6231 34.8208 21.6801C34.6162 21.594 34.4661 21.5309 34.272 21.467Z" fill="black"/>
<path d="M34.0078 20.7853C34.2764 20.2893 34.493 20.8315 34.759 20.8748C34.5237 20.8511 34.2885 20.8275 34.0078 20.7853Z" fill="black"/>
<path d="M33.255 20.6823C33.2048 20.5631 33.2048 20.4333 33.2048 20.2802C33.3193 20.2802 33.4481 20.2802 33.654 20.2802C33.5079 20.4441 33.4065 20.5579 33.255 20.6823Z" fill="black"/>
<path d="M32.1048 19.8179C32.1208 19.9467 32.0845 20.0746 32.0482 20.2025C31.9819 20.172 31.9157 20.1415 31.8494 20.111C31.9171 20.013 31.9849 19.915 32.1048 19.8179Z" fill="black"/>
<path d="M31.2692 19.0234C31.3408 19.1232 31.3601 19.2264 31.3841 19.3539C31.2562 19.3596 31.1337 19.365 30.9102 19.3749C31.0484 19.2182 31.1327 19.1226 31.2692 19.0234Z" fill="black"/>
<path d="M32.6676 19.6036C32.6005 19.6675 32.5328 19.6778 32.4651 19.688C32.47 19.6332 32.475 19.5784 32.4799 19.5236C32.5422 19.5323 32.6045 19.5411 32.6676 19.6036Z" fill="black"/>
<path d="M31.1201 20.1263C31.1132 20.0563 31.1449 20.009 31.1766 19.9617C31.1707 20.0241 31.1647 20.0866 31.1201 20.1263Z" fill="black"/>
<path d="M32.5537 20.4916C32.512 20.5432 32.4717 20.5505 32.4314 20.5577C32.4377 20.5163 32.4365 20.471 32.4549 20.4359C32.4605 20.4252 32.5202 20.4427 32.5537 20.4916Z" fill="black"/>
<path d="M36.4561 23.424C36.4039 23.4574 36.3619 23.4477 36.3198 23.438C36.3686 23.419 36.4174 23.4 36.4561 23.424Z" fill="black"/>
<path d="M33.3403 19.5817C33.382 19.5302 33.4223 19.5229 33.4626 19.5156C33.4563 19.557 33.4575 19.6024 33.4391 19.6375C33.4335 19.6482 33.3738 19.6306 33.3403 19.5817Z" fill="black"/>
<path d="M32.1096 19.211C32.0652 19.1913 32.0485 19.1379 32.0378 19.0834C32.0373 19.0804 32.088 19.0676 32.1148 19.0593C32.1227 19.0986 32.1306 19.1379 32.1096 19.211Z" fill="black"/>
<path d="M29.2522 17.4171C29.2747 17.4244 29.2912 17.4627 29.285 17.505C29.257 17.4887 29.2516 17.4684 29.2522 17.4171Z" fill="black"/>
<path d="M37.8614 22.8116C37.8838 22.819 37.9003 22.8572 37.8942 22.8995C37.8661 22.8832 37.8608 22.8629 37.8614 22.8116Z" fill="black"/>
<path d="M35.7644 22.2611C35.7869 22.2684 35.8034 22.3067 35.7972 22.349C35.7692 22.3327 35.7638 22.3124 35.7644 22.2611Z" fill="black"/>
<path d="M28.9157 20.5645C28.8932 20.5572 28.8767 20.519 28.8829 20.4767C28.9109 20.493 28.9163 20.5133 28.9157 20.5645Z" fill="black"/>
<path d="M2.22073 18.3969C2.21876 18.1573 2.29667 17.924 2.24745 17.7214C2.08113 17.0369 1.86479 16.3646 1.68132 15.6839C1.65657 15.5921 1.71034 15.4792 1.75124 15.2369C2.00538 16.1301 2.21182 16.8682 2.42633 17.6039C2.52362 17.9376 2.71073 18.1885 3.07619 18.2771C3.69425 18.4269 4.30975 18.5873 4.92445 18.7503C4.9606 18.7599 4.98006 18.8321 5.01497 18.8873C4.11748 18.7222 3.23785 18.5603 2.32315 18.4267C2.27283 18.4424 2.25759 18.4298 2.22073 18.3969Z" fill="black"/>
<path d="M6.33691 17.0164C6.14322 17.262 5.93297 17.483 5.72273 17.704C5.76802 17.6735 5.8133 17.6431 5.85859 17.6126C6.0298 17.9307 6.20102 18.2487 6.37223 18.5668C6.43657 18.527 6.5009 18.4872 6.56524 18.4474C6.46955 18.558 6.37386 18.6686 6.27816 18.7793C6.31427 18.7234 6.35038 18.6676 6.38649 18.6118C6.04037 18.3512 5.69425 18.0905 5.28027 17.7788C5.60478 17.4895 5.90518 17.2217 6.24428 16.9497C6.29545 16.961 6.30791 16.9764 6.33691 17.0164Z" fill="black"/>
<path d="M3.10763 18.9341C3.91257 19.1379 4.67187 19.3399 5.43117 19.5418C5.41914 19.5921 5.40711 19.6425 5.39509 19.6928C4.44625 19.4478 3.49742 19.2029 2.54858 18.9579C2.56048 18.9085 2.57237 18.8591 2.58426 18.8097C2.74351 18.8505 2.90275 18.8914 3.10763 18.9341Z" fill="black"/>
<path d="M4.60226 18.1983C3.99479 18.0391 3.42627 17.9082 2.82349 17.7695C2.90275 17.6742 2.98848 17.5712 2.98298 17.5778C3.73922 17.7799 4.40891 17.9588 5.0786 18.1378C5.08611 18.1674 5.09361 18.1971 5.10112 18.2267C4.94782 18.2267 4.79452 18.2267 4.60226 18.1983Z" fill="black"/>
<path d="M2.82211 13.9899C3.09537 14.2178 3.33481 14.418 3.5923 14.6332C3.54191 14.6788 3.41391 14.7947 3.40662 14.8013C3.03793 14.5083 2.69008 14.232 2.35303 13.9642C2.53998 13.5441 2.66104 13.7923 2.82211 13.9899Z" fill="black"/>
<path d="M3.3094 17.1527C3.25157 16.8292 3.17792 16.5558 3.13771 16.2775C3.11116 16.0938 3.13269 15.9032 3.20196 15.713C3.38834 16.1406 3.20631 16.6922 3.80159 17.0384C3.66957 17.1413 3.51723 17.2601 3.3649 17.3789C3.34587 17.3195 3.32683 17.2601 3.3094 17.1527Z" fill="black"/>
<path d="M2.41528 15.6285C2.58533 16.0818 2.75537 16.535 2.92542 16.9883C2.85974 17.0092 2.79406 17.0301 2.72837 17.051C2.62809 16.6479 2.52782 16.2449 2.42946 15.7657C2.42602 15.6692 2.42065 15.6489 2.41528 15.6285Z" fill="black"/>
<path d="M4.34098 17.5034C4.23081 17.4488 4.16493 17.3952 4.00122 17.2621C4.3718 17.3325 4.62481 17.3806 4.87782 17.4287C4.87763 17.4666 4.87745 17.5044 4.87727 17.5423C4.71327 17.5297 4.54927 17.5171 4.34098 17.5034Z" fill="black"/>
<path d="M4.37964 14.8638C4.55139 14.9174 4.6766 14.9699 4.80182 15.0224C4.79955 15.0433 4.79728 15.0642 4.79501 15.0851C4.5295 15.0535 4.26398 15.0219 3.99847 14.9903C3.99613 14.9623 3.99379 14.9343 3.99146 14.9064C4.10534 14.8918 4.21922 14.8772 4.37964 14.8638Z" fill="black"/>
<path d="M7.61204 19.211C7.54643 19.0977 7.5135 18.9482 7.48071 18.7994C7.67643 18.7994 7.80495 18.7994 7.99945 18.7994C7.85505 18.9522 7.74989 19.0635 7.61204 19.211Z" fill="black"/>
<path d="M1.83478 14.0237C1.98681 14.0347 2.11009 14.089 2.27623 14.1622C2.14547 14.2989 2.0275 14.4221 1.88905 14.5668C1.85669 14.372 1.83136 14.2195 1.83478 14.0237Z" fill="black"/>
<path d="M7.03744 18.2708C6.91183 18.2927 6.81064 18.2682 6.54736 18.2045C6.72343 18.0428 6.83125 17.9437 7.03297 17.7584C7.04933 18.0223 7.0556 18.1234 7.03744 18.2708Z" fill="black"/>
<path d="M1.1426 13.3488C1.23608 13.3528 1.29074 13.3931 1.3454 13.4333C1.30268 13.4677 1.25996 13.5022 1.21724 13.5366C1.17941 13.486 1.14159 13.4355 1.1426 13.3488Z" fill="black"/>
<path d="M5.64355 20.1572C5.68312 20.1112 5.74534 20.0845 5.80755 20.0577C5.79302 20.0947 5.77849 20.1316 5.73937 20.1895C5.69859 20.1992 5.68239 20.1878 5.64355 20.1572Z" fill="black"/>
<path d="M2.59809 14.683C2.56225 14.7235 2.49951 14.7294 2.43677 14.7352C2.48158 14.7062 2.52638 14.6773 2.59809 14.683Z" fill="black"/>
<path d="M1.26581 14.306C1.19365 14.3237 1.15554 14.3134 1.11743 14.3032C1.12701 14.2769 1.14251 14.2272 1.14529 14.2279C1.19771 14.2411 1.24863 14.2602 1.26581 14.306Z" fill="black"/>
<path d="M3.36987 13.7673C3.44203 13.7496 3.48014 13.7599 3.51825 13.7701C3.50867 13.7964 3.49317 13.8461 3.49039 13.8454C3.43797 13.8322 3.38705 13.8131 3.36987 13.7673Z" fill="black"/>
<path d="M6.48762 17.6812C6.41744 17.7025 6.37449 17.6885 6.33154 17.6745C6.34309 17.6522 6.357 17.6099 6.3658 17.611C6.41616 17.6169 6.4653 17.6331 6.48762 17.6812Z" fill="black"/>
<path d="M2.0376 13.3905C2.07344 13.3499 2.13618 13.3441 2.19892 13.3383C2.15411 13.3672 2.1093 13.3962 2.0376 13.3905Z" fill="black"/>
<path d="M5.57832 18.5361C5.54247 18.5767 5.47973 18.5825 5.41699 18.5883C5.4618 18.5594 5.50661 18.5304 5.57832 18.5361Z" fill="black"/>
<path d="M2.42545 15.7204C2.40298 15.7131 2.38649 15.6749 2.39267 15.6326C2.42069 15.6489 2.42606 15.6692 2.42545 15.7204Z" fill="black"/>
<path d="M5.1557 19.0125C5.12315 19.0117 5.11565 18.9864 5.10815 18.9611C5.13235 18.9701 5.15655 18.9791 5.1557 19.0125Z" fill="black"/>
<path d="M20.6376 7.38159C20.2621 5.99784 19.8887 4.65931 19.5154 3.32079C19.5766 3.30622 19.6378 3.29166 19.699 3.2771C20.0748 4.72832 20.4506 6.17954 20.8264 7.63076C20.7773 7.64188 20.7283 7.65301 20.6792 7.66414C20.6661 7.58503 20.653 7.50593 20.6376 7.38159Z" fill="black"/>
<path d="M12.4941 2.97056C12.1594 2.86754 11.8711 2.76618 11.5828 2.66482C11.596 2.62205 11.6093 2.57927 11.6225 2.5365C12.9513 2.89201 14.2801 3.24752 15.6089 3.60303C15.5968 3.65262 15.5847 3.70222 15.5726 3.75181C14.5619 3.49195 13.5512 3.23208 12.4941 2.97056Z" fill="black"/>
<path d="M14.2214 2.09388C13.6463 1.95098 13.1178 1.80989 12.5894 1.66881C12.603 1.62104 12.6166 1.57328 12.6302 1.52551C13.578 1.77125 14.5258 2.01698 15.6115 2.29846C15.0415 2.47792 14.6677 2.17884 14.2214 2.09388Z" fill="black"/>
<path d="M17.9998 4.50525C18.0819 4.71349 18.1641 4.92172 18.2463 5.12996C18.1754 5.14698 18.1046 5.164 18.0337 5.18102C18.0089 5.00106 17.984 4.8211 17.957 4.59265C17.9699 4.53119 17.9848 4.51822 17.9998 4.50525Z" fill="black"/>
<path d="M17.9312 4.56208C17.8121 4.54937 17.7167 4.51881 17.5728 4.47272C17.7017 4.32972 17.8151 4.20388 17.9723 4.02954C17.9811 4.20747 17.9865 4.31497 17.9958 4.46389C17.9849 4.51829 17.9699 4.53126 17.9312 4.56208Z" fill="black"/>
<path d="M16.85 1.70215C16.8506 1.77706 16.8194 1.82074 16.7881 1.86441C16.7981 1.79992 16.8081 1.73542 16.85 1.70215Z" fill="black"/>
<path d="M15.4468 1.41076C15.4398 1.34075 15.4716 1.29342 15.5033 1.24609C15.4973 1.30854 15.4914 1.37099 15.4468 1.41076Z" fill="black"/>
<path d="M15.2053 1.65673C15.198 1.67839 15.1603 1.69191 15.1179 1.68289C15.1338 1.65642 15.1544 1.6525 15.2053 1.65673Z" fill="black"/>
<path d="M15.7029 3.81863C15.7038 3.78522 15.7283 3.7775 15.7529 3.76978C15.7442 3.79463 15.7354 3.81948 15.7029 3.81863Z" fill="black"/>
<path d="M11.807 23.5544C11.8096 23.6707 11.8096 23.7424 11.8096 23.8141C11.7739 23.822 11.7382 23.8299 11.7025 23.8378C11.4468 22.9037 11.191 21.9697 10.9353 21.0357C10.984 21.0216 11.0328 21.0074 11.0815 20.9933C11.3225 21.8322 11.5635 22.671 11.807 23.5544Z" fill="black"/>
<path d="M14.7537 20.0674C15.2017 20.2018 15.6119 20.3101 16.0691 20.4308C15.9554 20.5592 15.8411 20.6882 15.7482 20.7931C15.2914 20.1097 14.4144 20.3785 13.7561 19.849C14.1667 19.9312 14.4413 19.9862 14.7537 20.0674Z" fill="black"/>
<path d="M13.1634 22.1977C13.1171 21.959 13.0957 21.7602 13.0742 21.5613C13.3787 21.922 13.237 22.4842 13.7944 22.727C13.6703 22.8312 13.5122 22.9641 13.3795 23.0756C13.3201 22.8155 13.2542 22.5265 13.1634 22.1977Z" fill="black"/>
<path d="M15.7964 22.3531C15.6821 22.0786 15.5776 21.7995 15.4491 21.5319C15.3904 21.4095 15.2844 21.3097 15.1528 21.1384C15.2009 21.0903 15.3218 20.9691 15.5031 20.7874C15.6102 21.3024 15.6972 21.7208 15.7823 22.2156C15.7857 22.3124 15.7911 22.3327 15.7964 22.3531Z" fill="black"/>
<path d="M12.5829 21.6674C12.6796 22.0872 12.7762 22.4582 12.8728 22.8293C12.8199 22.8404 12.767 22.8514 12.714 22.8625C12.5977 22.3629 12.4813 21.8633 12.365 21.3637C12.4274 21.3527 12.4899 21.3418 12.5523 21.3308C12.5625 21.4268 12.5727 21.5227 12.5829 21.6674Z" fill="black"/>
<path d="M16.2283 21.3684C16.3402 21.7951 16.4495 22.1777 16.5587 22.5604C16.4977 22.5722 16.4367 22.5841 16.3756 22.5959C16.2672 22.0954 16.1587 21.595 16.0503 21.0945C16.0976 21.0845 16.1449 21.0746 16.1923 21.0646C16.2034 21.1512 16.2145 21.2378 16.2283 21.3684Z" fill="black"/>
<path d="M14.6273 22.4597C14.5804 22.5294 14.4876 22.6572 14.3988 22.6544C14.2278 22.6491 14.0591 22.57 13.8516 22.5107C13.9421 22.4047 14.0297 22.3021 14.0743 22.2499C14.283 22.3356 14.433 22.3973 14.6273 22.4597Z" fill="black"/>
<path d="M14.8018 21.3579C15.0446 21.4943 15.0446 21.4943 14.7936 21.712C14.5637 21.5816 14.3807 21.4777 14.0964 21.3164C14.3659 21.3333 14.5602 21.3456 14.8018 21.3579Z" fill="black"/>
<path d="M14.7833 20.8031C14.519 20.8276 14.2542 20.8051 13.9895 20.7826C13.9995 20.7184 14.0094 20.6541 14.0193 20.5898C14.2739 20.6453 14.5284 20.7007 14.7833 20.8031Z" fill="black"/>
<path d="M14.6996 23.1194C14.8082 23.1404 14.8689 23.1613 14.9297 23.1822C14.8714 23.2343 14.8074 23.336 14.7559 23.33C14.5212 23.3026 14.29 23.245 14.0557 23.1193C14.2544 23.1193 14.4531 23.1193 14.6996 23.1194Z" fill="black"/>
<path d="M13.3223 20.6096C13.2508 20.5099 13.2314 20.4067 13.2075 20.2791C13.3354 20.2734 13.4578 20.268 13.6814 20.2581C13.5432 20.4148 13.4588 20.5104 13.3223 20.6096Z" fill="black"/>
<path d="M11.2209 19.9773C11.2215 20.0522 11.1902 20.0959 11.1589 20.1396C11.169 20.0751 11.179 20.0106 11.2209 19.9773Z" fill="black"/>
<path d="M12.5453 20.4177C12.5459 20.4926 12.5147 20.5363 12.4834 20.58C12.4934 20.5155 12.5034 20.451 12.5453 20.4177Z" fill="black"/>
<path d="M15.7864 22.2611C15.8089 22.2684 15.8254 22.3067 15.8192 22.349C15.7912 22.3327 15.7858 22.3124 15.7864 22.2611Z" fill="black"/>
<path d="M8.93765 20.5645C8.91518 20.5572 8.8987 20.519 8.90487 20.4767C8.9329 20.493 8.93827 20.5133 8.93765 20.5645Z" fill="black"/>
<path d="M47.1326 14.8531C47.1019 14.6474 47.0733 14.4878 47.0266 14.2272C47.5555 14.9936 47.9326 17.0698 47.7564 17.2657C47.5642 16.5343 47.3494 15.7167 47.1326 14.8531Z" fill="black"/>
<path d="M44.9997 19.5976C44.14 19.3772 43.3251 19.1579 42.5103 18.9386C42.5224 18.8915 42.5345 18.8445 42.5467 18.7975C43.5021 19.0452 44.4575 19.2928 45.4305 19.5451C45.3921 19.5856 45.343 19.6823 45.2845 19.6883C45.2084 19.6961 45.1248 19.632 44.9997 19.5976Z" fill="black"/>
<path d="M46.412 16.9524C46.3236 17.0119 46.2691 17.0426 46.3112 17.0189C46.2221 16.4555 46.1332 15.8931 46.0442 15.3308C46.0981 15.3212 46.152 15.3116 46.206 15.302C46.2859 15.8425 46.3659 16.383 46.412 16.9524Z" fill="black"/>
<path d="M45.3056 18.8198C45.2334 18.8375 45.1953 18.8272 45.1572 18.817C45.1668 18.7907 45.1823 18.741 45.1851 18.7417C45.2375 18.7549 45.2884 18.774 45.3056 18.8198Z" fill="black"/>
<path d="M45.1126 18.9622C45.1123 18.9958 45.0879 19.004 45.0635 19.0122C45.0718 18.987 45.0801 18.9619 45.1126 18.9622Z" fill="black"/>
<path d="M27.9239 10.637C27.8734 10.4483 27.822 10.3047 27.7325 10.0546C27.7175 10.0709 27.7868 9.99601 27.9066 9.86658C28.019 10.2224 28.1196 10.541 28.2202 10.8596C28.181 10.8941 28.1418 10.9286 28.1025 10.963C28.0427 10.8694 27.9828 10.7758 27.9239 10.637Z" fill="black"/>
<path d="M31.3974 7.86528C31.2276 7.86427 31.0812 7.84508 30.8811 7.81885C31.0094 7.67929 31.1298 7.54826 31.2815 7.3833C31.3439 7.52921 31.3866 7.62877 31.4471 7.76792C31.4503 7.82071 31.4356 7.83391 31.3974 7.86528Z" fill="black"/>
<path d="M26.7322 7.60521C26.7704 7.55929 26.8342 7.5507 26.898 7.54211C26.8513 7.57559 26.8045 7.60906 26.7322 7.60521Z" fill="black"/>
<path d="M27.6448 6.67489C27.6806 6.63435 27.7434 6.62852 27.8061 6.62268C27.7613 6.65165 27.7165 6.68062 27.6448 6.67489Z" fill="black"/>
<path d="M28.6135 5.80406C28.6136 5.77168 28.6389 5.76365 28.6643 5.75562C28.6558 5.77988 28.6473 5.80414 28.6135 5.80406Z" fill="black"/>
<path d="M24.4016 11.6675C25.4166 11.9299 26.385 12.19 27.3534 12.4501C27.341 12.4978 27.3285 12.5456 27.3161 12.5933C25.8998 12.2245 24.4836 11.8558 23.0896 11.4928C23.2493 11.3138 23.4333 11.333 24.4016 11.6675Z" fill="black"/>
<path d="M21.0815 15.8463C21.0481 15.5964 21.015 15.394 20.9819 15.1916C21.0221 15.1862 21.0623 15.1808 21.1024 15.1754C21.3472 16.1282 21.5921 17.0809 21.8369 18.0337C21.7904 18.0468 21.7438 18.06 21.6973 18.0732C21.4921 17.3467 21.287 16.6203 21.0815 15.8463Z" fill="black"/>
<path d="M24.3507 12.9089C25.0418 13.1107 25.6926 13.2882 26.3434 13.4657C26.3322 13.5132 26.321 13.5608 26.3098 13.6084C25.3461 13.3609 24.3824 13.1135 23.4187 12.866C23.4217 12.8339 23.4248 12.8019 23.4278 12.7698C23.722 12.8081 24.0162 12.8463 24.3507 12.9089Z" fill="black"/>
<path d="M23.6012 14.5097C23.5233 14.6645 23.414 14.7846 23.3199 14.8881C22.999 14.5499 22.6949 14.2293 22.3625 13.879C22.3954 13.8446 22.466 13.7708 22.4688 13.7678C22.8503 14.0129 23.21 14.244 23.6012 14.5097Z" fill="black"/>
<path d="M22.3933 15.6285C22.5636 16.0824 22.7338 16.5362 22.9041 16.9901C22.8382 17.0104 22.7723 17.0307 22.7064 17.051C22.6061 16.6479 22.5058 16.2449 22.4075 15.7657C22.404 15.6692 22.3987 15.6489 22.3933 15.6285Z" fill="black"/>
<path d="M21.8616 14.3911C21.961 14.2181 22.0665 14.0965 22.172 13.975C22.2217 14.0269 22.2714 14.0788 22.321 14.1308C22.1699 14.2347 22.0188 14.3387 21.8616 14.3911Z" fill="black"/>
<path d="M24.7675 15.0122C24.6078 15.0466 24.4218 15.0466 24.2358 15.0466C24.2432 14.9902 24.2505 14.9338 24.2579 14.8773C24.419 14.9108 24.5802 14.9443 24.7675 15.0122Z" fill="black"/>
<path d="M22.5683 14.7465C22.4961 14.7641 22.458 14.7539 22.4199 14.7436C22.4295 14.7174 22.445 14.6676 22.4478 14.6683C22.5002 14.6815 22.5511 14.7006 22.5683 14.7465Z" fill="black"/>
<path d="M23.3479 13.7673C23.4201 13.7496 23.4582 13.7599 23.4963 13.7701C23.4867 13.7964 23.4712 13.8461 23.4684 13.8454C23.416 13.8322 23.3651 13.8131 23.3479 13.7673Z" fill="black"/>
<path d="M21.103 14.3209C21.1413 14.275 21.2051 14.2664 21.2689 14.2578C21.2221 14.2913 21.1753 14.3248 21.103 14.3209Z" fill="black"/>
<path d="M22.095 13.2883C22.1439 13.3141 22.1499 13.3547 22.1558 13.3954C22.1128 13.3986 22.0698 13.4018 22.0269 13.405C22.0352 13.371 22.0436 13.3371 22.095 13.2883Z" fill="black"/>
<path d="M22.4035 15.7204C22.381 15.7131 22.3645 15.6749 22.3707 15.6326C22.3987 15.6489 22.4041 15.6692 22.4035 15.7204Z" fill="black"/>
<path d="M24.0938 14.7856C24.1263 14.7865 24.1338 14.8118 24.1413 14.8371C24.1171 14.8281 24.0929 14.8191 24.0938 14.7856Z" fill="black"/>
<path d="M20.2826 15.1619C20.2489 15.1616 20.2406 15.1373 20.2324 15.1129C20.2576 15.1212 20.2829 15.1295 20.2826 15.1619Z" fill="black"/>
<path d="M5.27009 4.03108C4.91361 4.34097 4.55714 4.65087 4.20066 4.96076C4.23364 5.01528 4.26662 5.0698 4.29959 5.12432C4.46451 5.14914 4.62943 5.17397 4.79435 5.1988C4.795 5.2425 4.79566 5.28621 4.79631 5.32991C4.47878 5.31272 4.16125 5.29552 3.84372 5.27833C3.80288 5.2347 3.76203 5.19108 3.72119 5.14745C4.07173 4.9037 4.42227 4.65994 4.77281 4.41619C4.7278 4.35172 4.68279 4.28726 4.63779 4.22279C4.46927 4.20054 4.30076 4.17828 4.13225 4.15603C4.1281 4.12779 4.12395 4.09956 4.11981 4.07132C4.44411 4.03546 4.76841 3.9996 5.15801 3.97913C5.2389 4.0067 5.2545 4.01889 5.27009 4.03108Z" fill="black"/>
<path d="M4.07072 7.8188C3.53095 7.68873 3.03794 7.56064 2.54492 7.43255C2.55451 7.38179 2.5641 7.33103 2.57369 7.28027C3.55618 7.52403 4.53867 7.76779 5.52115 8.01154C5.03554 8.1848 4.58109 7.95632 4.07072 7.8188Z" fill="black"/>
<path d="M2.79541 6.38928C2.8771 6.24363 3.00268 6.09416 3.16839 5.94092C3.27221 6.01355 3.32222 6.13516 3.40177 6.15909C3.95369 6.32513 4.51176 6.47087 5.04415 6.66796C4.99988 6.71672 4.9793 6.72063 4.95872 6.72455C4.43013 6.60608 3.90352 6.47727 3.37177 6.37511C3.20127 6.34235 3.01717 6.38001 2.79541 6.38928Z" fill="black"/>
<path d="M5.20117 3.97464C5.285 3.78593 5.3909 3.61706 5.54201 3.3761C5.65243 4.05969 5.74294 4.62001 5.83345 5.18033C5.80254 5.17911 5.77163 5.17788 5.74072 5.17665C5.60448 4.77947 5.46824 4.38229 5.30101 4.00808C5.25443 4.01886 5.23884 4.00667 5.20117 3.97464Z" fill="black"/>
<path d="M6.1567 4.23162C6.10926 4.0581 6.08295 3.92493 6.05664 3.79176C6.09908 3.78394 6.14152 3.77613 6.18396 3.76831C6.30767 4.29582 6.43138 4.82334 6.55509 5.35085C6.5066 5.36213 6.45811 5.37341 6.40962 5.38468C6.33235 5.01378 6.25509 4.64288 6.1567 4.23162Z" fill="black"/>
<path d="M4.85799 6.05121C4.56289 6.00442 4.31733 5.9544 4.07178 5.90439C4.07926 5.86017 4.08674 5.81595 4.09422 5.77173C4.38939 5.8043 4.68455 5.83686 4.97972 5.86943C4.95566 5.92895 4.93159 5.98847 4.85799 6.05121Z" fill="black"/>
<path d="M5.98193 3.11759C6.00521 3.04729 6.06007 3.00969 6.15266 2.96851C6.13144 3.02671 6.07248 3.0885 5.98193 3.11759Z" fill="black"/>
<path d="M7.04398 2.12446C6.99507 2.09868 6.98911 2.05806 6.98315 2.01743C7.02614 2.01422 7.06912 2.01102 7.11211 2.00781C7.10371 2.04174 7.09532 2.07568 7.04398 2.12446Z" fill="black"/>
<path d="M5.43286 7.08946C5.50305 7.06811 5.54599 7.08212 5.58894 7.09612C5.57739 7.1184 5.56348 7.1607 5.55468 7.15966C5.50432 7.15374 5.45518 7.13753 5.43286 7.08946Z" fill="black"/>
<path d="M6.41713 6.26793C6.36771 6.23483 6.34976 6.17545 6.36035 6.16987C6.39565 6.15123 6.44118 6.15188 6.4828 6.14514C6.47575 6.18552 6.46871 6.22591 6.41713 6.26793Z" fill="black"/>
<path d="M3.23574 5.94026C3.20956 5.88231 3.22567 5.81025 3.27775 5.72656C3.30182 5.78534 3.28993 5.85575 3.23574 5.94026Z" fill="black"/>
<path d="M5.05075 6.72093C5.04343 6.7426 5.00576 6.75612 4.96338 6.7471C4.97924 6.72063 4.99982 6.71671 5.05075 6.72093Z" fill="black"/>
<path d="M40.8349 21.7935C40.7275 21.7156 40.6632 21.6382 40.5989 21.5607C40.6145 21.526 40.6302 21.4914 40.6458 21.4567C40.9869 21.5398 41.3279 21.6229 41.7142 21.717C41.5986 21.8438 41.5003 21.9516 41.4876 21.9657C41.2297 21.893 41.0538 21.8435 40.8349 21.7935Z" fill="black"/>
<path d="M0.845721 9.93921C1.14036 10.0334 1.39619 10.1011 1.71323 10.1851C1.35871 10.7151 1.02482 9.95032 0.645264 10.1796C0.699144 10.0907 0.753024 10.0018 0.845721 9.93921Z" fill="black"/>
</g>
<defs>
<clipPath id="clip0_8756_16016">
<rect width="50" height="24" fill="white"/>
</clipPath>
</defs>
</svg>
