<svg width="96" height="48" viewBox="0 0 96 48" fill="none" xmlns="http://www.w3.org/2000/svg">
    <g id="reactjs-ar21 1" filter="url(#filter0_d_8756_16392)">
        <g id="Group">
            <path id="Vector"
                  d="M20.6792 26.5583C22.2035 26.5583 23.4392 25.3226 23.4392 23.7983C23.4392 22.274 22.2035 21.0383 20.6792 21.0383C19.1549 21.0383 17.9192 22.274 17.9192 23.7983C17.9192 25.3226 19.1549 26.5583 20.6792 26.5583Z"
                  fill="#00D8FF"/>
            <g id="Group_2">
                <path id="Vector_2" fill-rule="evenodd" clip-rule="evenodd"
                      d="M20.6792 18.1866C24.3849 18.1866 27.8274 18.7183 30.423 19.6119C33.5504 20.6886 35.4732 22.3205 35.4732 23.7983C35.4732 25.3382 33.4354 27.0719 30.077 28.1846C27.538 29.0258 24.1969 29.465 20.6792 29.465C17.0727 29.465 13.6575 29.0528 11.0899 28.1754C7.84137 27.065 5.88477 25.3089 5.88477 23.7983C5.88477 22.3325 7.72067 20.7132 10.8041 19.6381C13.4094 18.7298 16.9369 18.1866 20.6788 18.1866H20.6792Z"
                      stroke="#00D8FF" stroke-width="1.66272"/>
                <path id="Vector_3" fill-rule="evenodd" clip-rule="evenodd"
                      d="M15.7942 21.0086C17.6455 17.7985 19.8258 15.082 21.8966 13.2799C24.3916 11.1086 26.766 10.2583 28.0461 10.9964C29.3801 11.7657 29.8639 14.3972 29.1501 17.8623C28.6109 20.482 27.3217 23.5956 25.5643 26.6429C23.7625 29.7672 21.6994 32.5198 19.6568 34.3052C17.0721 36.5646 14.5733 37.3822 13.2647 36.6276C11.9949 35.8958 11.5094 33.496 12.1185 30.2879C12.6332 27.5772 13.9248 24.2501 15.7936 21.0086L15.7942 21.0086Z"
                      stroke="#00D8FF" stroke-width="1.66272"/>
                <path id="Vector_4" fill-rule="evenodd" clip-rule="evenodd"
                      d="M15.7987 26.6511C13.9421 23.4446 12.6781 20.1984 12.1505 17.5043C11.5154 14.2584 11.9645 11.7766 13.2434 11.0363C14.5761 10.2647 17.0976 11.1597 19.743 13.5087C21.7432 15.2847 23.7971 17.9561 25.5595 21.0005C27.3665 24.1217 28.7208 27.2839 29.2476 29.9452C29.9142 33.3129 29.3747 35.8861 28.0673 36.6429C26.7988 37.3772 24.4775 36.5997 22.0023 34.4697C19.911 32.6701 17.6735 29.8894 15.7987 26.6511V26.6511Z"
                      stroke="#00D8FF" stroke-width="1.66272"/>
            </g>
        </g>
        <path id="Vector_5" fill-rule="evenodd" clip-rule="evenodd"
              d="M51.3159 30.8499L47.933 25.739C49.6427 25.5881 51.1833 24.3493 51.1833 22.086C51.1833 19.7831 49.549 18.3092 47.2564 18.3092H42.2217V30.8404H43.7813V25.8613H46.2804L49.4744 30.8404L51.3159 30.8499ZM47.0698 24.4994H43.7821V19.7084H47.0698C48.5548 19.7084 49.5689 20.6852 49.5689 22.0948C49.5689 23.5043 48.554 24.5009 47.0698 24.5009V24.4994ZM57.1217 31.0746C58.6067 31.0746 59.8273 30.5863 60.7294 29.6849L60.0528 28.7638C59.3381 29.4967 58.2867 29.9097 57.2535 29.9097C55.3 29.9097 54.0969 28.4819 53.9842 26.7729H61.3297V26.4156C61.3297 23.6917 59.7137 21.5492 56.97 21.5492C54.3772 21.5492 52.4992 23.6727 52.4992 26.3028C52.4992 29.1402 54.4344 31.0675 57.1209 31.0675L57.1217 31.0746ZM59.9408 25.7382H53.9849C54.0604 24.3485 55.0173 22.7126 56.9534 22.7126C59.0204 22.7126 59.9218 24.385 59.9408 25.7382ZM70.6884 30.8491V24.6113C70.6884 22.4132 69.0922 21.5484 67.1752 21.5484C65.6902 21.5484 64.5261 22.0368 63.5493 23.0517L64.2068 24.0284C65.0144 23.1644 65.8983 22.7698 66.9878 22.7698C68.3029 22.7698 69.2804 23.4646 69.2804 24.686V26.3203C68.5475 25.4745 67.5143 25.0799 66.2739 25.0799C64.7333 25.0799 63.0974 26.0384 63.0974 28.0673C63.0974 30.0399 64.7317 31.0739 66.2739 31.0739C67.4953 31.0739 68.5292 30.6419 69.2804 29.8152V30.8475L70.6884 30.8491ZM66.7814 30.0598C65.4663 30.0598 64.5451 29.2339 64.5451 28.0872C64.5451 26.9222 65.4663 26.0955 66.7814 26.0955C67.7772 26.0955 68.7349 26.4711 69.2804 27.2232V28.9329C68.7357 29.6841 67.7772 30.0598 66.7814 30.0598ZM77.5019 31.0746C79.1553 31.0746 80.1321 30.3981 80.8277 29.4967L79.8883 28.6327C79.2871 29.4404 78.5168 29.816 77.5853 29.816C75.6501 29.816 74.4486 28.3127 74.4486 26.3028C74.4486 24.2929 75.6509 22.8087 77.5853 22.8087C78.5248 22.8087 79.2951 23.166 79.8883 23.9919L80.8277 23.1279C80.1329 22.2258 79.1553 21.55 77.5019 21.55C74.7964 21.55 72.9739 23.6171 72.9739 26.3036C72.9739 29.0091 74.7964 31.0683 77.5019 31.0683V31.0746ZM85.0937 31.0746C85.9196 31.0746 86.4278 30.8301 86.7852 30.4926L86.3722 29.4404C86.184 29.6468 85.8164 29.816 85.4137 29.816C84.7943 29.816 84.4926 29.3276 84.4926 28.651V23.0144H86.3349V21.7747H84.4926V19.2947H83.083V21.7747H81.5797V23.0151H83.083V28.9528C83.083 30.3059 83.7596 31.0762 85.0937 31.0762V31.0746Z"
              fill="#00D8FF"/>
    </g>
    <defs>
        <!--<filter id="filter0_d_8756_16392" x="-4" y="0" width="103.294" height="55.647" filterUnits="userSpaceOnUse" color-interpolation-filters="sRGB">-->
        <!--<feFlood flood-opacity="0" result="BackgroundImageFix"/>-->
        <!--<feColorMatrix in="SourceAlpha" type="matrix" values="0 0 0 0 0 0 0 0 0 0 0 0 0 0 0 0 0 0 127 0" result="hardAlpha"/>-->
        <!--<feOffset dy="4"/>-->
        <!--<feGaussianBlur stdDeviation="2"/>-->
        <!--<feComposite in2="hardAlpha" operator="out"/>-->
        <!--<feColorMatrix type="matrix" values="0 0 0 0 0 0 0 0 0 0 0 0 0 0 0 0 0 0 0.25 0"/>-->
        <!--<feBlend mode="normal" in2="BackgroundImageFix" result="effect1_dropShadow_8756_16392"/>-->
        <!--<feBlend mode="normal" in="SourceGraphic" in2="effect1_dropShadow_8756_16392" result="shape"/>-->
        <!--</filter>-->
    </defs>
</svg>
