<svg width="31" height="31" viewBox="0 0 31 31" fill="none" xmlns="http://www.w3.org/2000/svg">
<g id="postman 1" opacity="0.7">
<path id="Vector" d="M26.9032 7.88311C25.4355 5.98261 23.4372 4.56003 21.161 3.79529C18.8848 3.03054 16.4329 2.95799 14.1155 3.5868C11.7981 4.21561 9.71916 5.51755 8.14169 7.32794C6.56423 9.13834 5.55907 11.3759 5.25335 13.7576C4.94763 16.1393 5.35506 18.5581 6.42414 20.7082C7.49321 22.8583 9.1759 24.6431 11.2594 25.8369C13.3429 27.0306 15.7336 27.5797 18.1291 27.4146C20.5247 27.2496 22.8175 26.3778 24.7176 24.9096C30.0213 20.8108 31.0004 13.1887 26.9032 7.88311Z" fill="#EAEAF4"/>
<path id="Vector_2" d="M21.3892 10.8984L16.2703 16.0579L14.8237 14.5708C19.8619 9.53264 20.3672 9.9879 21.3892 10.8984Z" fill="black"/>
<path id="Vector_3" d="M16.2702 16.1991C16.2249 16.198 16.1816 16.18 16.1488 16.1486L14.692 14.6918C14.6592 14.6579 14.6409 14.6125 14.6409 14.5653C14.6409 14.5181 14.6592 14.4727 14.692 14.4388C19.6592 9.47157 20.3371 9.70413 21.5106 10.7664C21.5302 10.7821 21.5459 10.8022 21.5565 10.825C21.567 10.8479 21.5721 10.8729 21.5713 10.898C21.5788 10.9473 21.5599 10.9978 21.5208 11.0297L16.4019 16.149C16.366 16.1819 16.3189 16.1996 16.2702 16.1991ZM15.0763 14.5704L16.2702 15.7643L21.1262 10.9083C20.9586 10.6981 20.7193 10.5572 20.4543 10.5124C20.1892 10.4676 19.9169 10.5221 19.6895 10.6655C18.8094 11.06 17.3932 12.2638 15.0763 14.5704Z" fill="#EAEAF4"/>
<path id="Vector_4" d="M17.7374 17.4844L16.3413 16.058L21.4603 10.9993C22.8363 12.345 20.7925 14.5913 17.7374 17.4844Z" fill="black"/>
<path id="Vector_5" d="M17.7372 17.6665C17.6925 17.6629 17.65 17.6453 17.6158 17.616L16.1894 16.2199C16.168 16.1681 16.168 16.1098 16.1894 16.0579C16.1742 16.0154 16.1742 15.9689 16.1894 15.9263L21.3083 10.8074C21.3439 10.7739 21.3909 10.7553 21.4398 10.7553C21.4886 10.7553 21.5356 10.7739 21.5712 10.8074C21.737 10.9599 21.868 11.1464 21.9552 11.3541C22.0425 11.5619 22.084 11.7859 22.0769 12.0111C22.0769 13.3769 20.5188 15.0966 17.8685 17.6058C17.8331 17.6408 17.7869 17.6623 17.7372 17.6665ZM16.604 16.0579L17.7471 17.2006C19.7703 15.2886 21.7029 13.3158 21.7127 11.9804C21.7238 11.6973 21.6302 11.42 21.4498 11.2015L16.604 16.0579Z" fill="#EAEAF4"/>
<path id="Vector_6" d="M14.8639 14.6011L15.8757 15.6129C15.8822 15.6186 15.8874 15.6256 15.8909 15.6335C15.8944 15.6413 15.8963 15.6498 15.8963 15.6585C15.8963 15.6671 15.8944 15.6756 15.8909 15.6834C15.8874 15.6913 15.8822 15.6983 15.8757 15.704L13.741 16.1592C13.6979 16.1685 13.6529 16.1635 13.613 16.1449C13.573 16.1263 13.5402 16.0951 13.5196 16.0562C13.499 16.0172 13.4916 15.9726 13.4987 15.9291C13.5058 15.8855 13.5269 15.8455 13.5589 15.8151L14.8032 14.581C14.8032 14.581 14.8438 14.581 14.8639 14.6011Z" fill="black"/>
<path id="Vector_7" d="M13.6904 16.3614C13.623 16.3606 13.5569 16.3425 13.4984 16.3088C13.44 16.2751 13.3911 16.227 13.3566 16.1691C13.3177 16.0957 13.3036 16.0117 13.3164 15.9297C13.3291 15.8476 13.3681 15.7719 13.4275 15.7138L14.6616 14.4695C14.7061 14.4297 14.7637 14.4077 14.8234 14.4077C14.8831 14.4077 14.9407 14.4297 14.9852 14.4695L15.997 15.4813C16.057 15.5382 16.0805 15.6243 16.0577 15.704C16.035 15.7837 15.9682 15.847 15.8859 15.866L13.7511 16.3212L13.6904 16.3614ZM14.8236 14.8238L13.6806 15.9669L15.5725 15.5621L14.8236 14.8238Z" fill="#EAEAF4"/>
<path id="Vector_8" d="M24.1108 8.05534C23.3786 7.34894 22.2283 7.31935 21.4605 7.98592C20.6926 8.65248 20.5614 9.79669 21.1593 10.6199C21.7572 11.4432 22.8843 11.6738 23.7569 11.1511L22.3809 9.77506L24.1108 8.05534Z" fill="black"/>
<path id="Vector_9" d="M22.7452 11.6162C22.3245 11.6108 21.9147 11.4817 21.5669 11.2451C21.2191 11.0084 20.9486 10.6746 20.7891 10.2853C20.6298 9.8963 20.5879 9.4691 20.6689 9.05657C20.7498 8.64404 20.9499 8.26429 21.2444 7.96429C21.6494 7.56669 22.1943 7.34393 22.7619 7.34393C23.3294 7.34393 23.8743 7.56669 24.2794 7.96429C24.3181 7.99691 24.3401 8.04509 24.3401 8.09593C24.34 8.12094 24.3345 8.14564 24.324 8.16835C24.3136 8.19107 24.2983 8.21126 24.2794 8.22757L22.6405 9.77544L23.8848 10.9997C23.905 11.0189 23.9201 11.0428 23.9289 11.0693C23.9377 11.0957 23.9399 11.1239 23.9353 11.1514C23.9323 11.178 23.9235 11.2035 23.9095 11.2263C23.8956 11.249 23.8768 11.2684 23.8545 11.2831C23.5202 11.492 23.1359 11.6073 22.7418 11.6169L22.7452 11.6162ZM22.7452 7.69076C22.0244 7.69455 21.3794 8.12818 21.1089 8.79095C20.8384 9.45372 20.9856 10.2167 21.491 10.7258C21.7423 10.9786 22.0641 11.1496 22.4143 11.2164C22.7645 11.2832 23.1267 11.2427 23.4535 11.1002L22.2596 9.90632C22.2406 9.89115 22.2253 9.87189 22.2147 9.84999C22.2042 9.82809 22.1987 9.8041 22.1987 9.7798C22.1987 9.7555 22.2042 9.73151 22.2147 9.70961C22.2253 9.6877 22.2406 9.66845 22.2596 9.65328L23.8378 8.06482C23.5241 7.82438 23.1404 7.69329 22.7452 7.69076Z" fill="#EAEAF4"/>
<path id="Vector_10" d="M24.1413 8.08569L22.4114 9.80541L23.7874 11.1814C23.9259 11.1019 24.0548 11.0068 24.1717 10.898C24.5323 10.5168 24.7308 10.0104 24.7251 9.48572C24.7194 8.961 24.5101 8.45901 24.1413 8.08569Z" fill="black"/>
<path id="Vector_11" d="M23.7565 11.3332C23.7338 11.3344 23.711 11.3305 23.69 11.3218C23.669 11.313 23.6502 11.2997 23.6351 11.2827L22.2591 9.9067C22.2401 9.89152 22.2248 9.87227 22.2142 9.85037C22.2037 9.82847 22.1982 9.80448 22.1982 9.78018C22.1982 9.75587 22.2037 9.73188 22.2142 9.70998C22.2248 9.68808 22.2401 9.66883 22.2591 9.65365L23.9788 7.96428C23.9954 7.93924 24.018 7.9187 24.0444 7.90449C24.0709 7.89028 24.1005 7.88284 24.1305 7.88284C24.1606 7.88284 24.1902 7.89028 24.2167 7.90449C24.2431 7.9187 24.2657 7.93924 24.2823 7.96428C24.4842 8.16209 24.6446 8.3982 24.7541 8.65877C24.8636 8.91935 24.92 9.19915 24.92 9.48179C24.92 9.76444 24.8636 10.0442 24.7541 10.3048C24.6446 10.5654 24.4842 10.8015 24.2823 10.9993C24.1632 11.1256 24.0269 11.2346 23.8775 11.3229C23.8399 11.3419 23.7967 11.3456 23.7565 11.3332ZM22.6438 9.77543L23.7868 10.9185C23.8655 10.8634 23.9399 10.8025 24.0095 10.7364C24.3455 10.4013 24.5348 9.94649 24.5357 9.47193C24.5365 9.04723 24.3817 8.63696 24.1006 8.31862L22.6438 9.77543Z" fill="#EAEAF4"/>
<path id="Vector_12" d="M21.6016 11.1109C21.4646 10.9822 21.2837 10.9106 21.0957 10.9106C20.9078 10.9106 20.7269 10.9822 20.5898 11.1109L16.0073 15.6831L16.7661 16.4521L21.6119 12.2031C21.6858 12.1323 21.7444 12.0471 21.7841 11.9527C21.8238 11.8584 21.8439 11.7569 21.8429 11.6546C21.8419 11.5522 21.82 11.4511 21.7785 11.3576C21.737 11.264 21.6768 11.1803 21.6016 11.1109Z" fill="black"/>
<path id="Vector_13" d="M16.7255 16.6346C16.6801 16.6335 16.6368 16.6155 16.6041 16.5841L15.8351 15.8151C15.8023 15.7812 15.7839 15.7358 15.7839 15.6886C15.7839 15.6414 15.8023 15.596 15.8351 15.5621L20.418 10.9993C20.55 10.8675 20.7185 10.7783 20.9018 10.7434C21.0851 10.7086 21.2746 10.7295 21.4458 10.8037C21.617 10.8778 21.762 11.0017 21.8619 11.1592C21.9619 11.3167 22.0122 11.5006 22.0064 11.6871C22.0012 11.8137 21.9707 11.9379 21.9168 12.0526C21.8629 12.1672 21.7867 12.27 21.6927 12.3548L16.8469 16.6039C16.8116 16.6288 16.7683 16.64 16.7255 16.6346ZM16.1894 15.6831L16.6951 16.1991L21.4499 12.0612C21.5675 11.9588 21.6377 11.8123 21.6422 11.6564C21.6468 11.5005 21.5853 11.348 21.4703 11.2417C21.3642 11.136 21.2205 11.0767 21.0707 11.0767C20.9209 11.0767 20.7772 11.136 20.671 11.2417L16.1894 15.6831Z" fill="#EAEAF4"/>
<path id="Vector_14" d="M12.4564 20.8935C12.4434 20.9111 12.4364 20.9323 12.4364 20.9542C12.4364 20.976 12.4434 20.9973 12.4564 21.0149L12.6586 21.895C12.6667 21.9468 12.659 21.9999 12.6365 22.0472C12.6141 22.0946 12.5779 22.1341 12.5326 22.1606C12.4875 22.187 12.4353 22.1983 12.3833 22.1931C12.3314 22.1878 12.2824 22.1662 12.2435 22.1314L10.8577 20.796L15.1776 16.4419H16.675L17.6868 17.4537C16.1085 18.8336 14.3487 19.991 12.4564 20.8935Z" fill="black"/>
<path id="Vector_15" d="M12.3653 22.3806C12.2507 22.3784 12.1377 22.3313 12.0618 22.249L10.7366 20.9238C10.7176 20.9087 10.7023 20.8894 10.6918 20.8675C10.6812 20.8456 10.6758 20.8216 10.6758 20.7973C10.6758 20.773 10.6812 20.749 10.6918 20.7271C10.7023 20.7052 10.7176 20.686 10.7366 20.6708L15.0866 16.3106C15.1109 16.2847 15.1427 16.2671 15.1776 16.2601H16.6849C16.7242 16.2463 16.767 16.2463 16.8063 16.2601L17.8181 17.2719C17.8373 17.2897 17.852 17.3118 17.8607 17.3365C17.8695 17.3611 17.8722 17.3875 17.8685 17.4134C17.8692 17.4386 17.8641 17.4635 17.8536 17.4864C17.8431 17.5092 17.8274 17.5293 17.8078 17.5451L17.727 17.616C16.1423 18.9371 14.3989 20.0552 12.5371 20.9443L12.7295 21.7638C12.7444 21.827 12.7449 21.8927 12.7311 21.9562C12.7174 22.0196 12.6896 22.0792 12.6499 22.1306C12.6101 22.182 12.5594 22.2238 12.5015 22.2531C12.4435 22.2824 12.3797 22.2983 12.3148 22.2998L12.3653 22.3806ZM11.1312 20.7922L12.3247 21.996C12.3358 22.0059 12.3502 22.0114 12.3651 22.0114C12.38 22.0114 12.3944 22.0059 12.4055 21.996C12.4129 21.9856 12.4169 21.9732 12.4169 21.9605C12.4169 21.9477 12.4129 21.9353 12.4055 21.925L12.2033 21.0449C12.1873 20.9817 12.1938 20.915 12.2214 20.856C12.2491 20.797 12.2963 20.7494 12.355 20.7212C14.1667 19.844 15.8652 18.7501 17.4133 17.4635L16.5836 16.6338H15.2281L11.1312 20.7922Z" fill="#EAEAF4"/>
<path id="Vector_16" d="M9.81603 21.8343L10.8278 20.8225L12.3859 22.3806L9.90746 22.2088C9.8649 22.2055 9.82449 22.1888 9.79199 22.1611C9.75948 22.1334 9.73655 22.0962 9.72645 22.0547C9.71636 22.0133 9.71962 21.9697 9.73577 21.9301C9.75193 21.8906 9.78015 21.8572 9.81641 21.8347L9.81603 21.8343Z" fill="black"/>
<path id="Vector_17" d="M12.4159 22.5324L9.94731 22.3606C9.80087 22.3469 9.67492 22.2467 9.62332 22.1128C9.57173 21.9789 9.60321 21.8199 9.70451 21.713L10.7163 20.7012C10.7503 20.6684 10.7956 20.65 10.8428 20.65C10.89 20.65 10.9354 20.6684 10.9694 20.7012L12.5172 22.249C12.5386 22.2784 12.5502 22.3138 12.5502 22.3501C12.5502 22.3865 12.5386 22.4219 12.5172 22.4512C12.4938 22.4891 12.458 22.518 12.4159 22.5324ZM9.94731 21.966L11.9705 22.0976L10.8578 21.0555L9.94731 21.966Z" fill="#EAEAF4"/>
<path id="Vector_18" d="M16.8167 16.564L14.7729 16.8778L15.9566 15.7044L16.8167 16.564Z" fill="white"/>
<path id="Vector_19" d="M14.7728 17.0694C14.7388 17.0702 14.7053 17.0611 14.6765 17.0431C14.6477 17.0251 14.6249 16.999 14.6108 16.9681C14.5893 16.9388 14.5776 16.9033 14.5776 16.867C14.5776 16.8306 14.5893 16.7952 14.6108 16.7659L15.7842 15.5822C15.8198 15.5487 15.8668 15.5301 15.9157 15.5301C15.9645 15.5301 16.0115 15.5487 16.0471 15.5822L16.9075 16.4419C16.9247 16.4691 16.9339 16.5007 16.9339 16.5329C16.9339 16.5651 16.9247 16.5967 16.9075 16.624C16.8991 16.6572 16.8813 16.6873 16.8562 16.7106C16.8311 16.734 16.7998 16.7496 16.766 16.7556L14.7428 17.0694H14.7728ZM15.9564 15.9665L15.299 16.624L16.4322 16.4521L15.9564 15.9665Z" fill="#EAEAF4"/>
<path id="Vector_20" d="M16.8166 16.5633L15.3901 16.7454C15.352 16.754 15.312 16.7502 15.2762 16.7343C15.2404 16.7185 15.2107 16.6916 15.1914 16.6575C15.1721 16.6234 15.1643 16.5841 15.1691 16.5452C15.174 16.5064 15.1912 16.4701 15.2183 16.4419L15.9569 15.7032L16.8166 16.5633Z" fill="black"/>
<path id="Vector_21" d="M15.3495 16.9381C15.2834 16.9375 15.2186 16.9193 15.1618 16.8856C15.1049 16.8518 15.058 16.8035 15.0259 16.7458C14.9873 16.6765 14.9723 16.5965 14.9832 16.518C14.9942 16.4395 15.0305 16.3667 15.0866 16.3106L15.8252 15.572C15.8608 15.5385 15.9078 15.5199 15.9567 15.5199C16.0055 15.5199 16.0525 15.5385 16.0881 15.572L16.9482 16.432C16.9738 16.4562 16.9918 16.4874 17 16.5216C17.0082 16.5559 17.0064 16.5918 16.9946 16.625C16.9828 16.6582 16.9617 16.6873 16.9337 16.7087C16.9057 16.7302 16.8722 16.743 16.837 16.7458L15.4208 16.9279L15.3495 16.9381ZM15.3495 16.5637L16.422 16.432L15.9466 15.9567L15.3396 16.5637H15.3495ZM24.1511 9.24926C24.132 9.21733 24.1019 9.19352 24.0664 9.18233C24.031 9.17114 23.9926 9.17336 23.9587 9.18856C23.942 9.19704 23.9271 9.2088 23.915 9.22314C23.9029 9.23748 23.8937 9.2541 23.8881 9.27202C23.8769 9.30819 23.8804 9.34735 23.898 9.3809C23.969 9.53 23.9492 9.70641 23.8476 9.83615C23.8349 9.84865 23.825 9.86364 23.8185 9.88016C23.812 9.89668 23.8089 9.91438 23.8096 9.93214C23.81 9.96772 23.8235 10.0019 23.8476 10.0281C23.8735 10.0384 23.9024 10.0384 23.9284 10.0281C23.9519 10.034 23.9767 10.0334 23.9999 10.0262C24.0231 10.0191 24.0439 10.0057 24.06 9.98753C24.1433 9.88553 24.1961 9.76205 24.2122 9.63135C24.2283 9.50065 24.2071 9.36843 24.1511 9.24926Z" fill="#EAEAF4"/>
</g>
</svg>
