<svg width="27" height="45" viewBox="0 0 27 45" fill="none" xmlns="http://www.w3.org/2000/svg">
<path d="M9.72193 15.9493C9.86142 18.3865 10.4127 25.6874 10.4127 23.2475C10.4127 21.0486 10.4127 18.8498 10.4127 16.651C10.4127 15.8112 10.4612 18.3369 10.3264 19.1695C10.2566 19.6004 10.035 20.8898 10.0673 20.4561C10.1479 19.3755 10.5854 16.1532 10.5854 17.2358C10.5854 19.4138 9.41541 25.8906 9.54924 23.7153C9.68916 21.441 10.3622 19.1794 11.1706 17.0097C11.4211 16.3374 11.7442 15.6563 11.9286 14.9668C11.9758 14.7903 11.967 14.4551 11.967 14.9356C11.967 18.2877 11.0816 28.3162 11.5544 24.9863C11.9555 22.1608 13.0527 19.4313 14.0393 16.7134C14.3368 15.8939 14.6402 15.0762 14.826 14.2339C14.8702 14.0333 14.9028 13.4219 14.9028 13.6257C14.9028 15.4028 14.3173 17.2211 13.9721 18.9668C13.4515 21.5993 13.1758 24.2599 13.1758 26.9278C13.1758 28.2637 13.5313 24.2705 13.7898 22.9512C14.1802 20.9588 14.7567 18.9741 15.0467 16.9707C15.1917 15.9685 15.2445 16.9498 15.2481 17.3995C15.2678 19.8634 15.2263 22.3275 15.2481 24.7913C15.25 25.0069 15.4208 26.6445 15.4208 25.571C15.4208 23.445 15.4017 21.3186 15.4592 19.1929C15.493 17.9426 15.5394 16.6925 15.5839 15.4424C15.6069 14.7973 15.5935 15.4163 15.5935 15.5126C15.5935 18.0384 15.6325 20.5661 15.5839 23.0915C15.5642 24.1183 15.4208 25.1368 15.4208 26.1636C15.4208 26.8279 15.4208 25.0765 15.4208 25.072C15.4208 22.8233 15.2579 20.5294 15.536 18.2884C15.6642 17.2545 15.9389 16.2414 15.9389 15.2007C15.9389 12.2634 16.1116 21.0743 16.1116 24.0116C16.1116 24.9891 16.1102 22.0552 16.1884 21.0798C16.3077 19.5906 16.6003 18.1288 16.8024 16.651" stroke="white" stroke-width="3" stroke-linecap="round"/>
<path d="M4.5411 16.0896C11.0315 16.0896 17.3929 17.4931 23.8828 17.4931C24.0778 17.4931 23.5635 17.4783 23.4415 17.4151C22.8336 17.1008 22.402 16.6634 21.8489 16.2923C21.0938 15.7858 20.1494 15.4095 19.3544 14.9512C17.3308 13.7848 15.3137 12.5934 13.3389 11.3723C12.233 10.6884 10.9342 10.1062 9.90421 9.3528C9.26225 8.88325 9.1527 8.40969 8.72413 7.82454C8.45872 7.46216 8.29082 8.52592 8.25402 8.65884C7.80475 10.2816 6.90706 12.296 5.66361 13.6257C5.00295 14.3322 4.23886 14.7142 3.41859 15.2475C3.23095 15.3695 3.38553 15.6413 3.29386 15.8089C2.9687 16.4035 3.90618 15.2097 3.98464 15.1072C5.30946 13.3751 6.78646 11.777 8.20605 10.1013C8.89785 9.28476 9.30031 8.01146 10.4894 7.52825C11.1713 7.25118 11.8872 6.95059 12.5714 6.69394C13.1115 6.49135 12.9941 6.79537 13.0031 7.13838C13.0648 9.49319 14.6765 11.5421 16.4282 13.3216C18.3458 15.2697 20.3942 16.7727 22.9906 18.1091C23.5522 18.3982 23.7453 18.5821 23.192 18.1325C21.9386 17.1138 20.5757 16.1933 19.3256 15.1773C16.4541 12.8436 16.0571 9.27075 14.116 6.49121C13.2932 5.31302 11.7605 4.6987 10.8348 3.62963C9.82968 2.46878 10.0512 3.88777 9.72192 4.62767C9.20678 5.78514 8.54705 6.85662 8.09092 8.04286C7.69311 9.07742 7.16023 10.1204 6.59424 11.0994C5.21038 13.4929 3.73931 15.8356 2.33445 18.2105C2.2707 18.3182 1.82572 18.9979 2.07541 19.0292C3.87081 19.2536 5.93831 18.802 7.73594 18.6861C11.3608 18.4523 15.1975 18.6053 18.7788 19.1071C19.0285 19.1421 21.5341 18.6876 21.35 18.5379C18.3025 16.0612 14.8733 13.9321 12.9264 10.6939C12.0455 9.2289 11.7004 7.6124 11.4105 6.01558C11.2931 5.36885 11.2688 5.16476 10.8924 5.87523C8.96689 9.50979 7.19663 13.209 4.88649 16.651C4.14245 17.7596 4.84559 17.7015 5.78833 16.9005C7.30693 15.6102 8.2911 14.0277 9.29018 12.4639C9.37224 12.3355 10.6162 10.5651 10.8444 10.6393C11.7061 10.9195 9.21014 15.2544 9.04074 16.0116C8.92258 16.5398 9.12387 16.0766 9.24221 15.8245C9.89507 14.4335 10.5499 13.0366 11.2954 11.6764C12.1418 10.1317 11.7942 12.2441 11.7942 12.729C11.7942 14.4028 11.6216 16.0694 11.6216 17.7426C11.6216 17.8934 11.615 17.441 11.6216 17.2904C11.6607 16.3898 12.1395 15.643 12.6481 14.8576C12.7456 14.7071 13.8822 12.8152 13.6555 13.9376C13.4568 14.9213 12.9517 15.8357 12.6577 16.7914" stroke="white" stroke-width="3" stroke-linecap="round"/>
<path d="M5.57723 17.7738C9.75902 17.7738 13.8305 18.3352 18.0112 18.3352C19.9781 18.3352 21.8282 18.4943 23.7389 18.6237C23.9222 18.6361 25.3534 18.9613 24.9861 18.5301C24.6422 18.1265 24.2535 17.7402 23.8828 17.3528C23.1395 16.5761 22.7686 15.5712 21.9832 14.8265C20.4912 13.4119 19.6706 11.4376 18.2798 9.98438C17.4319 9.09838 16.9339 8.04071 16.3034 7.05262C16.0093 6.59165 15.9129 6.02879 15.5071 5.62573C15.1827 5.30344 14.8941 4.95049 14.6437 4.58869C14.2205 3.97726 13.4046 3.41534 12.7536 2.98246C12.3498 2.71396 11.9214 2.21545 11.4488 2.0234C10.5553 1.66031 9.42312 5.63804 9.29015 5.91422C8.27348 8.02576 6.70951 9.90766 5.50047 11.9571C4.44111 13.7528 2.98682 16.1641 2.98682 18.1949" stroke="white" stroke-width="3" stroke-linecap="round"/>
<path d="M9.20386 20.0194C9.20386 22.0812 9.37655 24.1321 9.37655 26.1948C9.37655 27.3903 9.74667 28.102 10.24 29.2046C10.4884 29.7598 13.0783 29.6656 13.6363 29.6958C14.7212 29.7546 15.7837 29.5438 16.86 29.4541C17.0646 29.437 18.5762 29.3833 18.5677 29.15C18.526 27.9973 17.8576 26.9036 17.5987 25.7816C17.371 24.7945 17.297 23.7338 17.1862 22.7329C17.0612 21.6043 16.8223 20.4337 16.8024 19.3021C16.7944 18.8501 16.8024 18.3974 16.8024 17.9454C16.8024 17.1369 16.5045 19.2336 16.4474 19.419C15.6949 21.8655 14.805 24.2887 14.0777 26.7406C13.8482 27.5141 13.6939 28.1362 13.6939 28.9317C13.6939 29.235 14.2737 29.5791 14.4231 29.1422C14.7068 28.312 15.2029 27.5182 15.4304 26.6861C15.8033 25.3223 16.8024 27.6343 16.8024 28.1519C16.8024 29.1379 16.5114 27.8133 16.4474 27.536C16.2612 26.7288 16.3917 24.8362 14.9028 24.7913C14.1306 24.7681 12.2308 24.473 11.7175 25.0798C11.0624 25.8543 10.8186 27.1204 10.6238 28.035C10.5611 28.3293 10.677 28.6632 10.4511 28.8927C10.2108 29.1368 10.0317 29.524 10.4895 28.9395C10.8422 28.489 10.9647 27.9784 11.0651 27.458C11.1585 26.974 11.1522 26.4926 11.2762 26.0077C11.3726 25.6306 11.3491 24.5644 11.612 24.8849C11.7276 25.0259 11.622 25.5313 11.6312 25.6802C11.6788 26.4545 11.7943 27.2194 11.7943 27.996C11.7943 28.5146 11.8488 29.2726 12.0053 29.7816C12.2371 30.535 11.8182 28.2344 11.7943 27.458C11.7837 27.1129 11.4573 24.2655 11.2762 24.3391C10.641 24.5972 9.76956 26.0545 10.9308 26.0545" stroke="white" stroke-width="3" stroke-linecap="round"/>
<path d="M8 40C9.65085 39.9425 11.4018 39 13 39" stroke="white" stroke-linecap="round"/>
<path d="M10 40C10.1097 40.8448 10.4286 41.6434 10.4286 42.5C10.4286 43.0326 11 43.4924 11 44" stroke="white" stroke-linecap="round"/>
<path d="M16.1823 38.9587C15.152 38.9587 14.5219 39.1974 14.2433 40.2322C14.0039 41.1216 14.0671 42.4151 14.9704 42.9247C15.6248 43.2938 16.3879 43.4036 17.1253 43.4623C17.4696 43.4897 18.0566 43.59 18.3636 43.3962C19.0601 42.9563 19.355 41.7643 19.355 41.0034C19.355 40.3277 18.9151 39.6292 18.4385 39.1526C17.6386 38.3527 16.6461 38.5621 15.627 38.5621" stroke="white" stroke-linecap="round"/>
<path d="M20.7827 38.9587C20.859 39.4163 21.2111 39.9633 21.4173 40.3865C21.5581 40.6755 21.7327 40.9596 21.8491 41.259C21.9515 41.5223 21.8713 42.4775 22.1312 42.6075" stroke="white" stroke-linecap="round"/>
<path d="M20.5448 38.7209C21.2729 38.6299 24.9867 37.283 24.9867 38.9588C24.9867 39.4219 24.0267 39.8244 23.6868 39.9944C23.443 40.1163 23.1521 40.176 22.8891 40.2456C22.6936 40.2973 22.0507 40.3889 21.9726 40.5452" stroke="white" stroke-linecap="round"/>
</svg>
